%TF.GenerationSoftware,KiCad,Pcbnew,6.0.11+dfsg-1*%
%TF.CreationDate,2025-02-26T04:55:10-05:00*%
%TF.ProjectId,Terminal_LCD_Keyboard,5465726d-696e-4616-9c5f-4c43445f4b65,rev?*%
%TF.SameCoordinates,Original*%
%TF.FileFunction,Copper,L1,Top*%
%TF.FilePolarity,Positive*%
%FSLAX46Y46*%
G04 Gerber Fmt 4.6, Leading zero omitted, Abs format (unit mm)*
G04 Created by KiCad (PCBNEW 6.0.11+dfsg-1) date 2025-02-26 04:55:10*
%MOMM*%
%LPD*%
G01*
G04 APERTURE LIST*
G04 Aperture macros list*
%AMRoundRect*
0 Rectangle with rounded corners*
0 $1 Rounding radius*
0 $2 $3 $4 $5 $6 $7 $8 $9 X,Y pos of 4 corners*
0 Add a 4 corners polygon primitive as box body*
4,1,4,$2,$3,$4,$5,$6,$7,$8,$9,$2,$3,0*
0 Add four circle primitives for the rounded corners*
1,1,$1+$1,$2,$3*
1,1,$1+$1,$4,$5*
1,1,$1+$1,$6,$7*
1,1,$1+$1,$8,$9*
0 Add four rect primitives between the rounded corners*
20,1,$1+$1,$2,$3,$4,$5,0*
20,1,$1+$1,$4,$5,$6,$7,0*
20,1,$1+$1,$6,$7,$8,$9,0*
20,1,$1+$1,$8,$9,$2,$3,0*%
G04 Aperture macros list end*
%TA.AperFunction,ComponentPad*%
%ADD10C,3.800000*%
%TD*%
%TA.AperFunction,ComponentPad*%
%ADD11C,2.000000*%
%TD*%
%TA.AperFunction,ComponentPad*%
%ADD12C,1.600000*%
%TD*%
%TA.AperFunction,ComponentPad*%
%ADD13R,1.000000X1.000000*%
%TD*%
%TA.AperFunction,ComponentPad*%
%ADD14O,1.000000X1.000000*%
%TD*%
%TA.AperFunction,ComponentPad*%
%ADD15C,1.500000*%
%TD*%
%TA.AperFunction,ComponentPad*%
%ADD16R,2.400000X1.600000*%
%TD*%
%TA.AperFunction,ComponentPad*%
%ADD17O,2.400000X1.600000*%
%TD*%
%TA.AperFunction,SMDPad,CuDef*%
%ADD18RoundRect,0.237500X0.237500X-0.287500X0.237500X0.287500X-0.237500X0.287500X-0.237500X-0.287500X0*%
%TD*%
%TA.AperFunction,ComponentPad*%
%ADD19R,1.700000X1.700000*%
%TD*%
%TA.AperFunction,ComponentPad*%
%ADD20O,1.700000X1.700000*%
%TD*%
%TA.AperFunction,ComponentPad*%
%ADD21C,2.340000*%
%TD*%
%TA.AperFunction,ComponentPad*%
%ADD22O,1.600000X1.600000*%
%TD*%
%TA.AperFunction,ComponentPad*%
%ADD23R,1.600000X1.600000*%
%TD*%
%TA.AperFunction,ComponentPad*%
%ADD24R,1.050000X1.500000*%
%TD*%
%TA.AperFunction,ComponentPad*%
%ADD25O,1.050000X1.500000*%
%TD*%
%TA.AperFunction,SMDPad,CuDef*%
%ADD26RoundRect,0.237500X-0.237500X0.287500X-0.237500X-0.287500X0.237500X-0.287500X0.237500X0.287500X0*%
%TD*%
%TA.AperFunction,ViaPad*%
%ADD27C,0.800000*%
%TD*%
%TA.AperFunction,ViaPad*%
%ADD28C,0.635000*%
%TD*%
%TA.AperFunction,Conductor*%
%ADD29C,0.254000*%
%TD*%
%TA.AperFunction,Conductor*%
%ADD30C,0.508000*%
%TD*%
G04 APERTURE END LIST*
D10*
%TO.P,H4,1,1*%
%TO.N,GND*%
X105410000Y-117475000D03*
%TD*%
%TO.P,H3,1,1*%
%TO.N,GND*%
X28575000Y-117475000D03*
%TD*%
%TO.P,H2,1,1*%
%TO.N,GND*%
X117475000Y-24765000D03*
%TD*%
%TO.P,H1,1,1*%
%TO.N,GND*%
X28575000Y-24765000D03*
%TD*%
D11*
%TO.P,SW3,1,1*%
%TO.N,Net-(SW1-Pad1)*%
X70000000Y-111760000D03*
X63500000Y-111760000D03*
%TO.P,SW3,2,2*%
%TO.N,Net-(DISP1-Pad13)*%
X70000000Y-116260000D03*
X63500000Y-116260000D03*
%TD*%
D12*
%TO.P,C7,1*%
%TO.N,VCC*%
X74375000Y-30480000D03*
%TO.P,C7,2*%
%TO.N,GND*%
X79375000Y-30480000D03*
%TD*%
D11*
%TO.P,SW33,1,1*%
%TO.N,Net-(SW31-Pad1)*%
X63500000Y-43180000D03*
X70000000Y-43180000D03*
%TO.P,SW33,2,2*%
%TO.N,Net-(DISP1-Pad13)*%
X63500000Y-47680000D03*
X70000000Y-47680000D03*
%TD*%
D13*
%TO.P,DISP2,1,Vss*%
%TO.N,GND*%
X107950000Y-24257000D03*
D14*
%TO.P,DISP2,2,Vdd*%
%TO.N,VCC*%
X106680000Y-24257000D03*
%TO.P,DISP2,3,Vee*%
%TO.N,Net-(DISP1-Pad3)*%
X105410000Y-24257000D03*
%TO.P,DISP2,4,RS*%
%TO.N,Net-(DISP1-Pad4)*%
X104140000Y-24257000D03*
%TO.P,DISP2,5,R/W*%
%TO.N,unconnected-(DISP2-Pad5)*%
X102870000Y-24257000D03*
%TO.P,DISP2,6,E*%
%TO.N,Net-(DISP1-Pad6)*%
X101600000Y-24257000D03*
%TO.P,DISP2,7,DB0*%
%TO.N,unconnected-(DISP2-Pad7)*%
X100330000Y-24257000D03*
%TO.P,DISP2,8,DB1*%
%TO.N,unconnected-(DISP2-Pad8)*%
X99060000Y-24257000D03*
%TO.P,DISP2,9,DB2*%
%TO.N,unconnected-(DISP2-Pad9)*%
X97790000Y-24257000D03*
%TO.P,DISP2,10,DB3*%
%TO.N,unconnected-(DISP2-Pad10)*%
X96520000Y-24257000D03*
%TO.P,DISP2,11,DB4*%
%TO.N,Net-(DISP1-Pad11)*%
X95250000Y-24257000D03*
%TO.P,DISP2,12,DB5*%
%TO.N,Net-(DISP1-Pad12)*%
X93980000Y-24257000D03*
%TO.P,DISP2,13,DB6*%
%TO.N,Net-(DISP1-Pad13)*%
X92710000Y-24257000D03*
%TO.P,DISP2,14,DB7*%
%TO.N,Net-(DISP1-Pad14)*%
X91440000Y-24257000D03*
%TO.P,DISP2,15*%
%TO.N,N/C*%
X90170000Y-24257000D03*
%TO.P,DISP2,16*%
X88900000Y-24257000D03*
%TD*%
D15*
%TO.P,Y1,1,1*%
%TO.N,Net-(C5-Pad1)*%
X110490000Y-50800000D03*
%TO.P,Y1,2,2*%
%TO.N,Net-(C6-Pad1)*%
X110490000Y-45920000D03*
%TD*%
D16*
%TO.P,U2,1,PC6(RES)*%
%TO.N,Net-(J2-Pad5)*%
X107960000Y-66025000D03*
D17*
%TO.P,U2,2,PD0(RXD)*%
%TO.N,Net-(CON2-Pad1)*%
X107960000Y-68565000D03*
%TO.P,U2,3,PD1(TXD)*%
%TO.N,Net-(CON2-Pad2)*%
X107960000Y-71105000D03*
%TO.P,U2,4,PD2(INT0)*%
%TO.N,unconnected-(U2-Pad4)*%
X107960000Y-73645000D03*
%TO.P,U2,5,PD3(INT1)*%
%TO.N,unconnected-(U2-Pad5)*%
X107960000Y-76185000D03*
%TO.P,U2,6,PD4(XCK/T0)*%
%TO.N,Net-(D1-Pad2)*%
X107960000Y-78725000D03*
%TO.P,U2,7,VCC*%
%TO.N,VCC*%
X107960000Y-81265000D03*
%TO.P,U2,8,GND*%
%TO.N,GND*%
X107960000Y-83805000D03*
%TO.P,U2,9,PB6(X1/TOSC1)*%
%TO.N,Net-(C5-Pad1)*%
X107960000Y-86345000D03*
%TO.P,U2,10,PB7(X2/TOSC2)*%
%TO.N,Net-(C6-Pad1)*%
X107960000Y-88885000D03*
%TO.P,U2,11,PD5(T1)*%
%TO.N,unconnected-(U2-Pad11)*%
X107960000Y-91425000D03*
%TO.P,U2,12,PD6(AIN0)*%
%TO.N,Net-(DISP1-Pad6)*%
X107960000Y-93965000D03*
%TO.P,U2,13,PD7(AIN1)*%
%TO.N,Net-(DISP1-Pad4)*%
X107960000Y-96505000D03*
%TO.P,U2,14,PB0(ICP1)*%
%TO.N,Net-(SW31-Pad1)*%
X107960000Y-99045000D03*
%TO.P,U2,15,PB1(OC1A)*%
%TO.N,Net-(SW26-Pad1)*%
X115580000Y-99045000D03*
%TO.P,U2,16,PB2(SS/OC1B)*%
%TO.N,Net-(SW21-Pad1)*%
X115580000Y-96505000D03*
%TO.P,U2,17,PB3(MOSI/OC2)*%
%TO.N,Net-(J2-Pad4)*%
X115580000Y-93965000D03*
%TO.P,U2,18,PB4(MISO)*%
%TO.N,Net-(J2-Pad1)*%
X115580000Y-91425000D03*
%TO.P,U2,19,PB5(SCK)*%
%TO.N,Net-(J2-Pad3)*%
X115580000Y-88885000D03*
%TO.P,U2,20,AVCC*%
%TO.N,VCC*%
X115580000Y-86345000D03*
%TO.P,U2,21,AREF*%
%TO.N,Net-(C4-Pad1)*%
X115580000Y-83805000D03*
%TO.P,U2,22,GND*%
%TO.N,GND*%
X115580000Y-81265000D03*
%TO.P,U2,23,PC0(A0)*%
%TO.N,Net-(DISP1-Pad11)*%
X115580000Y-78725000D03*
%TO.P,U2,24,PC1(A1)*%
%TO.N,Net-(DISP1-Pad12)*%
X115580000Y-76185000D03*
%TO.P,U2,25,PC2(A2)*%
%TO.N,Net-(DISP1-Pad13)*%
X115580000Y-73645000D03*
%TO.P,U2,26,PC3(A3)*%
%TO.N,Net-(DISP1-Pad14)*%
X115580000Y-71105000D03*
%TO.P,U2,27,PC4(A4/SDA)*%
%TO.N,Net-(SW10-Pad2)*%
X115580000Y-68565000D03*
%TO.P,U2,28,PC5(A5/SCL)*%
%TO.N,unconnected-(U2-Pad28)*%
X115580000Y-66025000D03*
%TD*%
D18*
%TO.P,D1,1,K*%
%TO.N,Net-(R2-Pad1)*%
X116205000Y-38580000D03*
%TO.P,D1,2,A*%
%TO.N,Net-(D1-Pad2)*%
X116205000Y-36830000D03*
%TD*%
D11*
%TO.P,SW22,1,1*%
%TO.N,Net-(SW21-Pad1)*%
X48260000Y-66040000D03*
X54760000Y-66040000D03*
%TO.P,SW22,2,2*%
%TO.N,Net-(DISP1-Pad12)*%
X54760000Y-70540000D03*
X48260000Y-70540000D03*
%TD*%
D19*
%TO.P,J2,1,MISO*%
%TO.N,Net-(J2-Pad1)*%
X110505000Y-115575000D03*
D20*
%TO.P,J2,2,VCC*%
%TO.N,VCC*%
X110505000Y-113035000D03*
%TO.P,J2,3,SCK*%
%TO.N,Net-(J2-Pad3)*%
X113045000Y-115575000D03*
%TO.P,J2,4,MOSI*%
%TO.N,Net-(J2-Pad4)*%
X113045000Y-113035000D03*
%TO.P,J2,5,~{RST}*%
%TO.N,Net-(J2-Pad5)*%
X115585000Y-115575000D03*
%TO.P,J2,6,GND*%
%TO.N,GND*%
X115585000Y-113035000D03*
%TD*%
D11*
%TO.P,SW30,1,1*%
%TO.N,Net-(SW26-Pad1)*%
X93980000Y-54610000D03*
X100480000Y-54610000D03*
%TO.P,SW30,2,2*%
%TO.N,Net-(SW10-Pad2)*%
X100480000Y-59110000D03*
X93980000Y-59110000D03*
%TD*%
D19*
%TO.P,DISP1,1,Vss*%
%TO.N,GND*%
X77470000Y-24511000D03*
D20*
%TO.P,DISP1,2,Vdd*%
%TO.N,VCC*%
X74930000Y-24511000D03*
%TO.P,DISP1,3,Vee*%
%TO.N,Net-(DISP1-Pad3)*%
X72390000Y-24511000D03*
%TO.P,DISP1,4,RS*%
%TO.N,Net-(DISP1-Pad4)*%
X69850000Y-24511000D03*
%TO.P,DISP1,5,R/W*%
%TO.N,unconnected-(DISP1-Pad5)*%
X67310000Y-24511000D03*
%TO.P,DISP1,6,E*%
%TO.N,Net-(DISP1-Pad6)*%
X64770000Y-24511000D03*
%TO.P,DISP1,7,DB0*%
%TO.N,unconnected-(DISP1-Pad7)*%
X62230000Y-24511000D03*
%TO.P,DISP1,8,DB1*%
%TO.N,unconnected-(DISP1-Pad8)*%
X59690000Y-24511000D03*
%TO.P,DISP1,9,DB2*%
%TO.N,unconnected-(DISP1-Pad9)*%
X57150000Y-24511000D03*
%TO.P,DISP1,10,DB3*%
%TO.N,unconnected-(DISP1-Pad10)*%
X54610000Y-24511000D03*
%TO.P,DISP1,11,DB4*%
%TO.N,Net-(DISP1-Pad11)*%
X52070000Y-24511000D03*
%TO.P,DISP1,12,DB5*%
%TO.N,Net-(DISP1-Pad12)*%
X49530000Y-24511000D03*
%TO.P,DISP1,13,DB6*%
%TO.N,Net-(DISP1-Pad13)*%
X46990000Y-24511000D03*
%TO.P,DISP1,14,DB7*%
%TO.N,Net-(DISP1-Pad14)*%
X44450000Y-24511000D03*
%TD*%
D11*
%TO.P,SW12,1,1*%
%TO.N,Net-(J2-Pad1)*%
X48260000Y-88900000D03*
X54760000Y-88900000D03*
%TO.P,SW12,2,2*%
%TO.N,Net-(DISP1-Pad12)*%
X54760000Y-93400000D03*
X48260000Y-93400000D03*
%TD*%
%TO.P,SW26,1,1*%
%TO.N,Net-(SW26-Pad1)*%
X33020000Y-54610000D03*
X39520000Y-54610000D03*
%TO.P,SW26,2,2*%
%TO.N,Net-(DISP1-Pad11)*%
X39520000Y-59110000D03*
X33020000Y-59110000D03*
%TD*%
%TO.P,SW13,1,1*%
%TO.N,Net-(J2-Pad1)*%
X70000000Y-88900000D03*
X63500000Y-88900000D03*
%TO.P,SW13,2,2*%
%TO.N,Net-(DISP1-Pad13)*%
X70000000Y-93400000D03*
X63500000Y-93400000D03*
%TD*%
%TO.P,SW20,1,1*%
%TO.N,Net-(J2-Pad4)*%
X93980000Y-77470000D03*
X100480000Y-77470000D03*
%TO.P,SW20,2,2*%
%TO.N,Net-(SW10-Pad2)*%
X93980000Y-81970000D03*
X100480000Y-81970000D03*
%TD*%
%TO.P,SW28,1,1*%
%TO.N,Net-(SW26-Pad1)*%
X70000000Y-54610000D03*
X63500000Y-54610000D03*
%TO.P,SW28,2,2*%
%TO.N,Net-(DISP1-Pad13)*%
X63500000Y-59110000D03*
X70000000Y-59110000D03*
%TD*%
%TO.P,SW10,1,1*%
%TO.N,Net-(J2-Pad3)*%
X93980000Y-100330000D03*
X100480000Y-100330000D03*
%TO.P,SW10,2,2*%
%TO.N,Net-(SW10-Pad2)*%
X100480000Y-104830000D03*
X93980000Y-104830000D03*
%TD*%
%TO.P,SW16,1,1*%
%TO.N,Net-(J2-Pad4)*%
X39520000Y-77470000D03*
X33020000Y-77470000D03*
%TO.P,SW16,2,2*%
%TO.N,Net-(DISP1-Pad11)*%
X33020000Y-81970000D03*
X39520000Y-81970000D03*
%TD*%
%TO.P,SW6,1,1*%
%TO.N,Net-(J2-Pad3)*%
X33020000Y-100330000D03*
X39520000Y-100330000D03*
%TO.P,SW6,2,2*%
%TO.N,Net-(DISP1-Pad11)*%
X33020000Y-104830000D03*
X39520000Y-104830000D03*
%TD*%
D12*
%TO.P,C6,1*%
%TO.N,Net-(C6-Pad1)*%
X113030000Y-55880000D03*
%TO.P,C6,2*%
%TO.N,GND*%
X113030000Y-60880000D03*
%TD*%
D21*
%TO.P,RV1,1,1*%
%TO.N,VCC*%
X105475000Y-35520000D03*
%TO.P,RV1,2,2*%
%TO.N,Net-(DISP1-Pad3)*%
X107975000Y-30520000D03*
%TO.P,RV1,3,3*%
%TO.N,GND*%
X110475000Y-35520000D03*
%TD*%
D11*
%TO.P,SW1,1,1*%
%TO.N,Net-(SW1-Pad1)*%
X33020000Y-111760000D03*
X39520000Y-111760000D03*
%TO.P,SW1,2,2*%
%TO.N,Net-(DISP1-Pad11)*%
X39520000Y-116260000D03*
X33020000Y-116260000D03*
%TD*%
%TO.P,SW19,1,1*%
%TO.N,Net-(J2-Pad4)*%
X78740000Y-77470000D03*
X85240000Y-77470000D03*
%TO.P,SW19,2,2*%
%TO.N,Net-(DISP1-Pad14)*%
X78740000Y-81970000D03*
X85240000Y-81970000D03*
%TD*%
%TO.P,SW31,1,1*%
%TO.N,Net-(SW31-Pad1)*%
X33020000Y-43180000D03*
X39520000Y-43180000D03*
%TO.P,SW31,2,2*%
%TO.N,Net-(DISP1-Pad11)*%
X33020000Y-47680000D03*
X39520000Y-47680000D03*
%TD*%
%TO.P,SW35,1,1*%
%TO.N,Net-(SW31-Pad1)*%
X100480000Y-43180000D03*
X93980000Y-43180000D03*
%TO.P,SW35,2,2*%
%TO.N,Net-(SW10-Pad2)*%
X93980000Y-47680000D03*
X100480000Y-47680000D03*
%TD*%
D19*
%TO.P,CON2,1,RX*%
%TO.N,Net-(CON2-Pad1)*%
X83825000Y-30353000D03*
D20*
%TO.P,CON2,2,TX*%
%TO.N,Net-(CON2-Pad2)*%
X86365000Y-30353000D03*
%TO.P,CON2,3,Vcc*%
%TO.N,VCC*%
X88905000Y-30353000D03*
%TO.P,CON2,4,KEY*%
%TO.N,unconnected-(CON2-Pad4)*%
X91445000Y-30353000D03*
%TO.P,CON2,5,GND*%
%TO.N,GND*%
X93985000Y-30353000D03*
%TD*%
D11*
%TO.P,SW2,1,1*%
%TO.N,Net-(SW1-Pad1)*%
X48260000Y-111760000D03*
X54760000Y-111760000D03*
%TO.P,SW2,2,2*%
%TO.N,Net-(DISP1-Pad12)*%
X48260000Y-116260000D03*
X54760000Y-116260000D03*
%TD*%
%TO.P,SW27,1,1*%
%TO.N,Net-(SW26-Pad1)*%
X48260000Y-54610000D03*
X54760000Y-54610000D03*
%TO.P,SW27,2,2*%
%TO.N,Net-(DISP1-Pad12)*%
X48260000Y-59110000D03*
X54760000Y-59110000D03*
%TD*%
D19*
%TO.P,J1,1,Pin_1*%
%TO.N,Net-(C1-Pad1)*%
X35560000Y-25400000D03*
D20*
%TO.P,J1,2,Pin_2*%
%TO.N,GND*%
X38100000Y-25400000D03*
%TD*%
D11*
%TO.P,SW9,1,1*%
%TO.N,Net-(J2-Pad3)*%
X78740000Y-100330000D03*
X85240000Y-100330000D03*
%TO.P,SW9,2,2*%
%TO.N,Net-(DISP1-Pad14)*%
X78740000Y-104830000D03*
X85240000Y-104830000D03*
%TD*%
D12*
%TO.P,R1,1*%
%TO.N,VCC*%
X88900000Y-35560000D03*
D22*
%TO.P,R1,2*%
%TO.N,Net-(J2-Pad5)*%
X99060000Y-35560000D03*
%TD*%
D11*
%TO.P,SW7,1,1*%
%TO.N,Net-(J2-Pad3)*%
X54760000Y-100330000D03*
X48260000Y-100330000D03*
%TO.P,SW7,2,2*%
%TO.N,Net-(DISP1-Pad12)*%
X54760000Y-104830000D03*
X48260000Y-104830000D03*
%TD*%
%TO.P,SW23,1,1*%
%TO.N,Net-(SW21-Pad1)*%
X70000000Y-66040000D03*
X63500000Y-66040000D03*
%TO.P,SW23,2,2*%
%TO.N,Net-(DISP1-Pad13)*%
X70000000Y-70540000D03*
X63500000Y-70540000D03*
%TD*%
%TO.P,SW25,1,1*%
%TO.N,Net-(SW21-Pad1)*%
X93980000Y-66040000D03*
X100480000Y-66040000D03*
%TO.P,SW25,2,2*%
%TO.N,Net-(SW10-Pad2)*%
X93980000Y-70540000D03*
X100480000Y-70540000D03*
%TD*%
%TO.P,SW4,1,1*%
%TO.N,Net-(SW1-Pad1)*%
X85240000Y-111760000D03*
X78740000Y-111760000D03*
%TO.P,SW4,2,2*%
%TO.N,Net-(DISP1-Pad14)*%
X85240000Y-116260000D03*
X78740000Y-116260000D03*
%TD*%
D23*
%TO.P,C2,1*%
%TO.N,VCC*%
X61147000Y-31312056D03*
D12*
%TO.P,C2,2*%
%TO.N,GND*%
X61147000Y-33812056D03*
%TD*%
D11*
%TO.P,SW24,1,1*%
%TO.N,Net-(SW21-Pad1)*%
X78740000Y-66040000D03*
X85240000Y-66040000D03*
%TO.P,SW24,2,2*%
%TO.N,Net-(DISP1-Pad14)*%
X85240000Y-70540000D03*
X78740000Y-70540000D03*
%TD*%
%TO.P,SW15,1,1*%
%TO.N,Net-(J2-Pad1)*%
X100480000Y-88900000D03*
X93980000Y-88900000D03*
%TO.P,SW15,2,2*%
%TO.N,Net-(SW10-Pad2)*%
X100480000Y-93400000D03*
X93980000Y-93400000D03*
%TD*%
%TO.P,SW34,1,1*%
%TO.N,Net-(SW31-Pad1)*%
X85240000Y-43180000D03*
X78740000Y-43180000D03*
%TO.P,SW34,2,2*%
%TO.N,Net-(DISP1-Pad14)*%
X78740000Y-47680000D03*
X85240000Y-47680000D03*
%TD*%
D12*
%TO.P,C5,1*%
%TO.N,Net-(C5-Pad1)*%
X109220000Y-55920000D03*
%TO.P,C5,2*%
%TO.N,GND*%
X109220000Y-60920000D03*
%TD*%
%TO.P,C4,1*%
%TO.N,Net-(C4-Pad1)*%
X115570000Y-102870000D03*
%TO.P,C4,2*%
%TO.N,GND*%
X115570000Y-107870000D03*
%TD*%
D11*
%TO.P,SW18,1,1*%
%TO.N,Net-(J2-Pad4)*%
X70000000Y-77470000D03*
X63500000Y-77470000D03*
%TO.P,SW18,2,2*%
%TO.N,Net-(DISP1-Pad13)*%
X70000000Y-81970000D03*
X63500000Y-81970000D03*
%TD*%
%TO.P,SW29,1,1*%
%TO.N,Net-(SW26-Pad1)*%
X78740000Y-54610000D03*
X85240000Y-54610000D03*
%TO.P,SW29,2,2*%
%TO.N,Net-(DISP1-Pad14)*%
X78740000Y-59110000D03*
X85240000Y-59110000D03*
%TD*%
D24*
%TO.P,U1,1,VO*%
%TO.N,VCC*%
X51987000Y-33066108D03*
D25*
%TO.P,U1,2,GND*%
%TO.N,GND*%
X53257000Y-33066108D03*
%TO.P,U1,3,VI*%
%TO.N,Net-(C1-Pad1)*%
X54527000Y-33066108D03*
%TD*%
D26*
%TO.P,R2,1*%
%TO.N,Net-(R2-Pad1)*%
X116215000Y-41565000D03*
%TO.P,R2,2*%
%TO.N,GND*%
X116215000Y-43315000D03*
%TD*%
D11*
%TO.P,SW5,1,1*%
%TO.N,Net-(SW1-Pad1)*%
X93980000Y-111760000D03*
X100480000Y-111760000D03*
%TO.P,SW5,2,2*%
%TO.N,Net-(SW10-Pad2)*%
X93980000Y-116260000D03*
X100480000Y-116260000D03*
%TD*%
%TO.P,SW8,1,1*%
%TO.N,Net-(J2-Pad3)*%
X63500000Y-100330000D03*
X70000000Y-100330000D03*
%TO.P,SW8,2,2*%
%TO.N,Net-(DISP1-Pad13)*%
X70000000Y-104830000D03*
X63500000Y-104830000D03*
%TD*%
%TO.P,SW17,1,1*%
%TO.N,Net-(J2-Pad4)*%
X48260000Y-77470000D03*
X54760000Y-77470000D03*
%TO.P,SW17,2,2*%
%TO.N,Net-(DISP1-Pad12)*%
X48260000Y-81970000D03*
X54760000Y-81970000D03*
%TD*%
%TO.P,SW21,1,1*%
%TO.N,Net-(SW21-Pad1)*%
X33020000Y-66040000D03*
X39520000Y-66040000D03*
%TO.P,SW21,2,2*%
%TO.N,Net-(DISP1-Pad11)*%
X39520000Y-70540000D03*
X33020000Y-70540000D03*
%TD*%
%TO.P,SW32,1,1*%
%TO.N,Net-(SW31-Pad1)*%
X54760000Y-43180000D03*
X48260000Y-43180000D03*
%TO.P,SW32,2,2*%
%TO.N,Net-(DISP1-Pad12)*%
X48260000Y-47680000D03*
X54760000Y-47680000D03*
%TD*%
%TO.P,SW11,1,1*%
%TO.N,Net-(J2-Pad1)*%
X33020000Y-88900000D03*
X39520000Y-88900000D03*
%TO.P,SW11,2,2*%
%TO.N,Net-(DISP1-Pad11)*%
X39520000Y-93400000D03*
X33020000Y-93400000D03*
%TD*%
%TO.P,SW14,1,1*%
%TO.N,Net-(J2-Pad1)*%
X85240000Y-88900000D03*
X78740000Y-88900000D03*
%TO.P,SW14,2,2*%
%TO.N,Net-(DISP1-Pad14)*%
X85240000Y-93400000D03*
X78740000Y-93400000D03*
%TD*%
D12*
%TO.P,C3,1*%
%TO.N,VCC*%
X111760000Y-102870000D03*
%TO.P,C3,2*%
%TO.N,GND*%
X111760000Y-107870000D03*
%TD*%
%TO.P,C1,1*%
%TO.N,Net-(C1-Pad1)*%
X46990000Y-29250000D03*
%TO.P,C1,2*%
%TO.N,GND*%
X46990000Y-34250000D03*
%TD*%
D23*
%TO.P,C8,1*%
%TO.N,Net-(C1-Pad1)*%
X33020000Y-31750000D03*
D12*
%TO.P,C8,2*%
%TO.N,GND*%
X33020000Y-34250000D03*
%TD*%
D27*
%TO.N,Net-(D1-Pad2)*%
X111760000Y-39370000D03*
X103505000Y-39370000D03*
%TO.N,GND*%
X100330000Y-85090000D03*
%TO.N,Net-(DISP1-Pad6)*%
X107315000Y-33020000D03*
X110490000Y-83185000D03*
%TO.N,GND*%
X82550000Y-26670000D03*
D28*
%TO.N,Net-(J2-Pad3)*%
X113030000Y-100965000D03*
D27*
%TO.N,Net-(CON2-Pad1)*%
X83185000Y-68580000D03*
X83825000Y-34295000D03*
%TO.N,Net-(CON2-Pad2)*%
X86360000Y-37465000D03*
D28*
%TO.N,Net-(DISP1-Pad4)*%
X109855000Y-22860000D03*
%TO.N,Net-(DISP1-Pad12)*%
X93980000Y-26761500D03*
D27*
X49530000Y-26670000D03*
X49530000Y-38735000D03*
%TO.N,Net-(DISP1-Pad13)*%
X70000000Y-73810000D03*
X75565000Y-27940000D03*
X58420000Y-38100000D03*
X57150000Y-30480000D03*
D28*
%TO.N,Net-(DISP1-Pad14)*%
X91440000Y-27305000D03*
X74295000Y-38735000D03*
D27*
X44450000Y-33020000D03*
D28*
X90170000Y-31750000D03*
%TO.N,Net-(J2-Pad5)*%
X118745000Y-115570000D03*
X118690500Y-67310000D03*
%TO.N,Net-(J2-Pad1)*%
X105410000Y-100330000D03*
D27*
X105410000Y-90170000D03*
%TO.N,Net-(SW31-Pad1)*%
X88900000Y-43180000D03*
D28*
X102870000Y-101600000D03*
D27*
X88900000Y-102870000D03*
%TO.N,Net-(J2-Pad4)*%
X102870000Y-92710000D03*
%TD*%
D29*
%TO.N,Net-(D1-Pad2)*%
X103505000Y-39370000D02*
X103505000Y-78105000D01*
X111760000Y-38100000D02*
X111760000Y-39370000D01*
X114300000Y-36830000D02*
X113030000Y-36830000D01*
X116205000Y-36830000D02*
X114300000Y-36830000D01*
X113030000Y-36830000D02*
X111760000Y-38100000D01*
X104125000Y-78725000D02*
X107960000Y-78725000D01*
X103505000Y-78105000D02*
X104125000Y-78725000D01*
%TO.N,GND*%
X116215000Y-43315000D02*
X113165000Y-43315000D01*
X113165000Y-43315000D02*
X110475000Y-40625000D01*
X110475000Y-40625000D02*
X110475000Y-35520000D01*
%TO.N,Net-(R2-Pad1)*%
X116205000Y-38580000D02*
X116205000Y-41555000D01*
X116205000Y-41555000D02*
X116215000Y-41565000D01*
%TO.N,Net-(CON2-Pad2)*%
X107960000Y-71105000D02*
X106030000Y-71105000D01*
X105280000Y-66805000D02*
X105410000Y-66675000D01*
X103497948Y-37465000D02*
X86360000Y-37465000D01*
X106030000Y-71105000D02*
X106030000Y-67555000D01*
X106030000Y-67555000D02*
X105280000Y-66805000D01*
X105410000Y-66675000D02*
X105410000Y-39377052D01*
X105410000Y-39377052D02*
X103497948Y-37465000D01*
%TO.N,Net-(J2-Pad5)*%
X99060000Y-35560000D02*
X102235000Y-35560000D01*
X102235000Y-35560000D02*
X106045000Y-39370000D01*
X106045000Y-39370000D02*
X106045000Y-64110000D01*
X106045000Y-64110000D02*
X107960000Y-66025000D01*
%TO.N,Net-(J2-Pad3)*%
X100480000Y-100330000D02*
X107950000Y-107800000D01*
X107950000Y-116205000D02*
X109205000Y-117460000D01*
X107950000Y-107800000D02*
X107950000Y-116205000D01*
X109205000Y-117460000D02*
X113045000Y-117460000D01*
%TO.N,Net-(J2-Pad1)*%
X105410000Y-100330000D02*
X105410000Y-100965000D01*
X108585000Y-104140000D02*
X108585000Y-114935000D01*
X105410000Y-100965000D02*
X108585000Y-104140000D01*
X108585000Y-114935000D02*
X109225000Y-115575000D01*
X109225000Y-115575000D02*
X110505000Y-115575000D01*
%TO.N,Net-(J2-Pad3)*%
X117475000Y-117475000D02*
X117475000Y-111125000D01*
X113045000Y-117460000D02*
X113060000Y-117475000D01*
X113060000Y-117475000D02*
X117475000Y-117475000D01*
X113045000Y-115575000D02*
X113045000Y-117460000D01*
%TO.N,Net-(DISP1-Pad4)*%
X110490000Y-22860000D02*
X110490000Y-27305000D01*
X109855000Y-22860000D02*
X110490000Y-22860000D01*
X118110000Y-34925000D02*
X118110000Y-66040000D01*
X110490000Y-27305000D02*
X118110000Y-34925000D01*
D30*
%TO.N,Net-(DISP1-Pad11)*%
X31115000Y-46990000D02*
X31115000Y-29210000D01*
X52070000Y-23495000D02*
X52070000Y-24511000D01*
X31115000Y-29210000D02*
X33020000Y-27305000D01*
X51435000Y-22860000D02*
X52070000Y-23495000D01*
X33020000Y-27305000D02*
X33020000Y-24130000D01*
X33020000Y-24130000D02*
X34290000Y-22860000D01*
X34290000Y-22860000D02*
X51435000Y-22860000D01*
%TO.N,GND*%
X104140000Y-85090000D02*
X100330000Y-85090000D01*
X107960000Y-83805000D02*
X105425000Y-83805000D01*
X105425000Y-83805000D02*
X104140000Y-85090000D01*
D29*
%TO.N,Net-(DISP1-Pad6)*%
X111125000Y-82550000D02*
X111125000Y-60325000D01*
X107315000Y-56515000D02*
X107315000Y-33020000D01*
X110490000Y-83185000D02*
X111125000Y-82550000D01*
X111125000Y-60325000D02*
X107315000Y-56515000D01*
D30*
%TO.N,VCC*%
X107960000Y-81265000D02*
X108600000Y-81265000D01*
X106680000Y-61595000D02*
X106680000Y-36725000D01*
X108600000Y-81265000D02*
X110490000Y-79375000D01*
X110490000Y-79375000D02*
X110490000Y-65405000D01*
X106680000Y-36725000D02*
X105475000Y-35520000D01*
X110490000Y-65405000D02*
X106680000Y-61595000D01*
X102975000Y-33020000D02*
X104775000Y-31220000D01*
X106680000Y-25400000D02*
X106680000Y-24257000D01*
X104775000Y-31220000D02*
X104775000Y-27305000D01*
X104775000Y-27305000D02*
X106680000Y-25400000D01*
X88900000Y-33020000D02*
X102975000Y-33020000D01*
X102975000Y-33020000D02*
X105475000Y-35520000D01*
D29*
%TO.N,Net-(DISP1-Pad6)*%
X64770000Y-24511000D02*
X64770000Y-26035000D01*
X64770000Y-26035000D02*
X79375000Y-26035000D01*
X81280000Y-24130000D02*
X86995000Y-24130000D01*
X79375000Y-26035000D02*
X81280000Y-24130000D01*
X86995000Y-24130000D02*
X88265000Y-25400000D01*
X88265000Y-25400000D02*
X101600000Y-25400000D01*
X101600000Y-25400000D02*
X101600000Y-24257000D01*
D30*
%TO.N,VCC*%
X75565000Y-33020000D02*
X74295000Y-33020000D01*
X74295000Y-33020000D02*
X64135000Y-33020000D01*
X74375000Y-30480000D02*
X74375000Y-32940000D01*
X74375000Y-32940000D02*
X74295000Y-33020000D01*
%TO.N,GND*%
X82550000Y-27305000D02*
X82550000Y-26670000D01*
X79375000Y-30480000D02*
X82550000Y-27305000D01*
D29*
%TO.N,Net-(DISP1-Pad12)*%
X49530000Y-26670000D02*
X49621500Y-26761500D01*
X86812000Y-24765000D02*
X88082000Y-26035000D01*
X49621500Y-26761500D02*
X79918500Y-26761500D01*
X79918500Y-26761500D02*
X81915000Y-24765000D01*
X81915000Y-24765000D02*
X86812000Y-24765000D01*
X88082000Y-26035000D02*
X93253500Y-26035000D01*
X93253500Y-26035000D02*
X93980000Y-26761500D01*
%TO.N,Net-(DISP1-Pad4)*%
X117475000Y-67945000D02*
X117475000Y-66675000D01*
X118110000Y-68580000D02*
X118110000Y-97790000D01*
X118110000Y-68580000D02*
X117475000Y-67945000D01*
X117475000Y-66675000D02*
X118110000Y-66040000D01*
D30*
%TO.N,VCC*%
X111760000Y-102870000D02*
X110490000Y-102870000D01*
X109855000Y-103505000D02*
X109855000Y-112385000D01*
X109855000Y-112385000D02*
X110505000Y-113035000D01*
X110490000Y-102870000D02*
X109855000Y-103505000D01*
D29*
%TO.N,Net-(J2-Pad3)*%
X113665000Y-109220000D02*
X113665000Y-101600000D01*
X117475000Y-111125000D02*
X115570000Y-109220000D01*
X115570000Y-109220000D02*
X113665000Y-109220000D01*
D30*
%TO.N,Net-(C1-Pad1)*%
X35560000Y-29210000D02*
X33020000Y-31750000D01*
X33020000Y-31750000D02*
X44490000Y-31750000D01*
X54527000Y-30397000D02*
X54527000Y-33066108D01*
X44490000Y-31750000D02*
X46990000Y-29250000D01*
X35560000Y-25400000D02*
X35560000Y-29210000D01*
X46990000Y-29250000D02*
X53380000Y-29250000D01*
X53380000Y-29250000D02*
X54527000Y-30397000D01*
%TO.N,VCC*%
X64135000Y-33020000D02*
X62427056Y-31312056D01*
X88900000Y-33020000D02*
X75565000Y-33020000D01*
X52070000Y-35560000D02*
X51987000Y-35477000D01*
X51987000Y-35477000D02*
X51987000Y-33066108D01*
D29*
X88900000Y-30358000D02*
X88905000Y-30353000D01*
D30*
X62427056Y-31312056D02*
X61147000Y-31312056D01*
X88900000Y-35560000D02*
X88900000Y-33020000D01*
X55880000Y-35560000D02*
X52070000Y-35560000D01*
X61147000Y-31312056D02*
X60127944Y-31312056D01*
X60127944Y-31312056D02*
X55880000Y-35560000D01*
X88900000Y-33020000D02*
X88900000Y-30358000D01*
%TO.N,Net-(C5-Pad1)*%
X109220000Y-52070000D02*
X109220000Y-55920000D01*
D29*
X112576000Y-86360000D02*
X112561000Y-86345000D01*
X109220000Y-55920000D02*
X111720000Y-58420000D01*
X112576000Y-64316000D02*
X112576000Y-86360000D01*
X111720000Y-63460000D02*
X112576000Y-64316000D01*
X111720000Y-58420000D02*
X111720000Y-63460000D01*
X112561000Y-86345000D02*
X107960000Y-86345000D01*
D30*
X110490000Y-50800000D02*
X109220000Y-52070000D01*
D29*
%TO.N,Net-(CON2-Pad1)*%
X83185000Y-68580000D02*
X83185000Y-41275000D01*
X83185000Y-36830000D02*
X83825000Y-36190000D01*
X83825000Y-36190000D02*
X83825000Y-34295000D01*
X83185000Y-41275000D02*
X83185000Y-36830000D01*
%TO.N,Net-(DISP1-Pad3)*%
X104140000Y-22987000D02*
X73152000Y-22987000D01*
X105410000Y-24257000D02*
X104140000Y-22987000D01*
X73152000Y-22987000D02*
X72390000Y-23749000D01*
X72390000Y-23749000D02*
X72390000Y-24511000D01*
%TO.N,Net-(DISP1-Pad4)*%
X109855000Y-97155000D02*
X108610000Y-97155000D01*
X110490000Y-97790000D02*
X109855000Y-97155000D01*
X108610000Y-97155000D02*
X107960000Y-96505000D01*
X118110000Y-97790000D02*
X110490000Y-97790000D01*
D30*
%TO.N,Net-(DISP1-Pad11)*%
X33020000Y-47680000D02*
X31805000Y-47680000D01*
X31115000Y-93345000D02*
X31115000Y-81915000D01*
X31170000Y-70540000D02*
X31115000Y-70485000D01*
X31805000Y-47680000D02*
X31115000Y-46990000D01*
X31170000Y-81970000D02*
X31115000Y-81915000D01*
X31115000Y-59055000D02*
X31115000Y-46990000D01*
X33020000Y-116260000D02*
X31115000Y-114355000D01*
X33020000Y-93400000D02*
X31170000Y-93400000D01*
X33020000Y-81970000D02*
X31170000Y-81970000D01*
X31115000Y-70485000D02*
X31115000Y-59055000D01*
X33020000Y-104830000D02*
X31170000Y-104830000D01*
X31115000Y-114355000D02*
X31115000Y-104775000D01*
X33020000Y-70540000D02*
X31170000Y-70540000D01*
X33020000Y-59110000D02*
X31170000Y-59110000D01*
X31170000Y-59110000D02*
X31115000Y-59055000D01*
X31115000Y-81915000D02*
X31115000Y-70485000D01*
X31115000Y-104775000D02*
X31115000Y-93345000D01*
X31170000Y-104830000D02*
X31115000Y-104775000D01*
X31170000Y-93400000D02*
X31115000Y-93345000D01*
%TO.N,Net-(DISP1-Pad12)*%
X45085000Y-43180000D02*
X49530000Y-38735000D01*
X45085000Y-47498000D02*
X45085000Y-43180000D01*
X45267000Y-47680000D02*
X48260000Y-47680000D01*
X45140000Y-104830000D02*
X45085000Y-104775000D01*
X45140000Y-59110000D02*
X45085000Y-59055000D01*
X48260000Y-70540000D02*
X45140000Y-70540000D01*
X48260000Y-104830000D02*
X45140000Y-104830000D01*
X45140000Y-93400000D02*
X45085000Y-93345000D01*
X45085000Y-113085000D02*
X45085000Y-104775000D01*
X48260000Y-93400000D02*
X45140000Y-93400000D01*
X45085000Y-47498000D02*
X45267000Y-47680000D01*
X45085000Y-104775000D02*
X45085000Y-93345000D01*
X48260000Y-116260000D02*
X45085000Y-113085000D01*
X45140000Y-70540000D02*
X45085000Y-70485000D01*
X45085000Y-93345000D02*
X45085000Y-81915000D01*
X45085000Y-81915000D02*
X45085000Y-70485000D01*
X45085000Y-59055000D02*
X45085000Y-47498000D01*
X45140000Y-81970000D02*
X45085000Y-81915000D01*
X45085000Y-70485000D02*
X45085000Y-59055000D01*
X48260000Y-59110000D02*
X45140000Y-59110000D01*
X48260000Y-81970000D02*
X45140000Y-81970000D01*
%TO.N,Net-(DISP1-Pad13)*%
X53975000Y-27940000D02*
X48260000Y-27940000D01*
X60380000Y-70540000D02*
X59944000Y-70104000D01*
X59944000Y-58674000D02*
X59944000Y-47625000D01*
X63500000Y-104830000D02*
X60380000Y-104830000D01*
X57150000Y-30480000D02*
X54610000Y-27940000D01*
X46990000Y-26670000D02*
X46990000Y-24511000D01*
X63500000Y-70540000D02*
X60380000Y-70540000D01*
X60380000Y-59110000D02*
X59944000Y-58674000D01*
X63500000Y-116260000D02*
X59944000Y-112704000D01*
X59999000Y-47680000D02*
X63500000Y-47680000D01*
D29*
X75565000Y-27940000D02*
X53975000Y-27940000D01*
X70000000Y-73810000D02*
X70000000Y-70540000D01*
D30*
X54610000Y-27940000D02*
X53975000Y-27940000D01*
X60380000Y-93400000D02*
X59944000Y-92964000D01*
X59944000Y-47625000D02*
X59999000Y-47680000D01*
X59944000Y-70104000D02*
X59944000Y-58674000D01*
X59944000Y-104394000D02*
X59944000Y-92964000D01*
X59944000Y-81534000D02*
X59944000Y-70104000D01*
X59944000Y-92964000D02*
X59944000Y-81534000D01*
X48260000Y-27940000D02*
X46990000Y-26670000D01*
X60380000Y-81970000D02*
X59944000Y-81534000D01*
X59944000Y-112704000D02*
X59944000Y-104394000D01*
X63500000Y-93400000D02*
X60380000Y-93400000D01*
X59944000Y-39624000D02*
X58420000Y-38100000D01*
X60380000Y-104830000D02*
X59944000Y-104394000D01*
X63500000Y-81970000D02*
X60380000Y-81970000D01*
X63500000Y-59110000D02*
X60380000Y-59110000D01*
X59944000Y-47625000D02*
X59944000Y-39624000D01*
%TO.N,Net-(DISP1-Pad14)*%
X78740000Y-59110000D02*
X74985000Y-59110000D01*
X74731000Y-104830000D02*
X74549000Y-104648000D01*
X74549000Y-47625000D02*
X74604000Y-47680000D01*
X74549000Y-58674000D02*
X74549000Y-47879000D01*
X72390000Y-36830000D02*
X74549000Y-38989000D01*
X74549000Y-104648000D02*
X74549000Y-93218000D01*
X74549000Y-47879000D02*
X74549000Y-47625000D01*
X78740000Y-104830000D02*
X74731000Y-104830000D01*
D29*
X91440000Y-27342000D02*
X91440000Y-27940000D01*
X74295000Y-38735000D02*
X74549000Y-38989000D01*
D30*
X74549000Y-81788000D02*
X74549000Y-70358000D01*
D29*
X91440000Y-27940000D02*
X90170000Y-29210000D01*
D30*
X74549000Y-47879000D02*
X74549000Y-38989000D01*
X74604000Y-47680000D02*
X78740000Y-47680000D01*
X45720000Y-36830000D02*
X72390000Y-36830000D01*
X44450000Y-33020000D02*
X44450000Y-35560000D01*
X78740000Y-70540000D02*
X74731000Y-70540000D01*
X74549000Y-112069000D02*
X74549000Y-104648000D01*
X78740000Y-116260000D02*
X74549000Y-112069000D01*
D29*
X90170000Y-29210000D02*
X90170000Y-31750000D01*
D30*
X74985000Y-59110000D02*
X74549000Y-58674000D01*
X74731000Y-81970000D02*
X74549000Y-81788000D01*
X78740000Y-81970000D02*
X74731000Y-81970000D01*
X78740000Y-93400000D02*
X74731000Y-93400000D01*
X74731000Y-93400000D02*
X74549000Y-93218000D01*
X74731000Y-70540000D02*
X74549000Y-70358000D01*
X44450000Y-35560000D02*
X45720000Y-36830000D01*
X74549000Y-70358000D02*
X74549000Y-58674000D01*
X74549000Y-93218000D02*
X74549000Y-81788000D01*
D29*
%TO.N,Net-(J2-Pad5)*%
X118745000Y-113030000D02*
X118745000Y-67364500D01*
X118745000Y-115570000D02*
X118745000Y-113030000D01*
X118745000Y-67364500D02*
X118690500Y-67310000D01*
D30*
%TO.N,Net-(SW10-Pad2)*%
X93980000Y-59110000D02*
X90987000Y-59110000D01*
X90623000Y-81970000D02*
X90496000Y-81843000D01*
X93980000Y-70540000D02*
X90496000Y-70540000D01*
X90496000Y-93019000D02*
X90496000Y-81843000D01*
X90496000Y-58619000D02*
X90496000Y-47680000D01*
X93980000Y-104830000D02*
X90750000Y-104830000D01*
X93980000Y-116260000D02*
X90496000Y-112776000D01*
X90496000Y-112776000D02*
X90496000Y-104576000D01*
X90987000Y-59110000D02*
X90496000Y-58619000D01*
X93980000Y-81970000D02*
X90623000Y-81970000D01*
X90496000Y-104576000D02*
X90496000Y-93019000D01*
X90496000Y-70540000D02*
X90496000Y-58619000D01*
X90877000Y-93400000D02*
X90496000Y-93019000D01*
X90750000Y-104830000D02*
X90496000Y-104576000D01*
X93980000Y-93400000D02*
X90877000Y-93400000D01*
X90496000Y-81843000D02*
X90496000Y-70540000D01*
X90496000Y-47680000D02*
X93980000Y-47680000D01*
D29*
%TO.N,Net-(J2-Pad3)*%
X113665000Y-101600000D02*
X113030000Y-100965000D01*
D30*
%TO.N,Net-(J2-Pad1)*%
X114325000Y-90170000D02*
X115580000Y-91425000D01*
X100480000Y-88900000D02*
X101750000Y-90170000D01*
D29*
X101750000Y-90170000D02*
X114325000Y-90170000D01*
%TO.N,Net-(SW21-Pad1)*%
X109220000Y-95250000D02*
X98425000Y-95250000D01*
X115580000Y-96505000D02*
X110475000Y-96505000D01*
X110475000Y-96505000D02*
X109220000Y-95250000D01*
X98425000Y-68095000D02*
X100480000Y-66040000D01*
X98425000Y-95250000D02*
X98425000Y-68095000D01*
%TO.N,Net-(SW26-Pad1)*%
X115580000Y-99045000D02*
X110475000Y-99045000D01*
X97790000Y-57300000D02*
X100480000Y-54610000D01*
X109220000Y-97790000D02*
X97790000Y-97790000D01*
X110475000Y-99045000D02*
X109220000Y-97790000D01*
X97790000Y-97790000D02*
X97790000Y-57300000D01*
%TO.N,Net-(SW31-Pad1)*%
X88900000Y-102870000D02*
X88900000Y-43180000D01*
X102870000Y-99060000D02*
X102870000Y-101600000D01*
X102885000Y-99045000D02*
X102870000Y-99060000D01*
X107960000Y-99045000D02*
X102885000Y-99045000D01*
%TO.N,Net-(J2-Pad4)*%
X102870000Y-92710000D02*
X114325000Y-92710000D01*
D30*
X114325000Y-92710000D02*
X115580000Y-93965000D01*
D29*
%TO.N,Net-(C6-Pad1)*%
X114300000Y-57150000D02*
X114300000Y-63500000D01*
X113030000Y-88900000D02*
X113015000Y-88885000D01*
D30*
X110490000Y-45920000D02*
X113030000Y-48460000D01*
D29*
X113030000Y-64770000D02*
X113030000Y-88900000D01*
X113015000Y-88885000D02*
X107960000Y-88885000D01*
D30*
X113030000Y-48460000D02*
X113030000Y-55880000D01*
D29*
X113030000Y-55880000D02*
X114300000Y-57150000D01*
X114300000Y-63500000D02*
X113030000Y-64770000D01*
%TD*%
M02*
