M48
; DRILL file {KiCad 6.0.11+dfsg-1} date Wed 26 Feb 2025 04:55:30 AM EST
; FORMAT={-:-/ absolute / metric / decimal}
; #@! TF.CreationDate,2025-02-26T04:55:30-05:00
; #@! TF.GenerationSoftware,Kicad,Pcbnew,6.0.11+dfsg-1
; #@! TF.FileFunction,Plated,1,2,PTH
FMAT,2
METRIC
; #@! TA.AperFunction,Plated,PTH,ViaDrill
T1C0.381
; #@! TA.AperFunction,Plated,PTH,ViaDrill
T2C0.400
; #@! TA.AperFunction,Plated,PTH,ComponentDrill
T3C0.650
; #@! TA.AperFunction,Plated,PTH,ComponentDrill
T4C0.750
; #@! TA.AperFunction,Plated,PTH,ComponentDrill
T5C0.800
; #@! TA.AperFunction,Plated,PTH,ComponentDrill
T6C1.000
; #@! TA.AperFunction,Plated,PTH,ComponentDrill
T7C1.100
; #@! TA.AperFunction,Plated,PTH,ComponentDrill
T8C1.300
; #@! TA.AperFunction,Plated,PTH,ComponentDrill
T9C2.200
%
G90
G05
T1
X74.295Y-38.735
X90.17Y-31.75
X91.44Y-27.305
X93.98Y-26.761
X102.87Y-101.6
X105.41Y-100.33
X109.855Y-22.86
X113.03Y-100.965
X118.691Y-67.31
X118.745Y-115.57
T2
X44.45Y-33.02
X49.53Y-26.67
X49.53Y-38.735
X57.15Y-30.48
X58.42Y-38.1
X70.0Y-73.81
X75.565Y-27.94
X82.55Y-26.67
X83.185Y-68.58
X83.825Y-34.295
X86.36Y-37.465
X88.9Y-43.18
X88.9Y-102.87
X100.33Y-85.09
X102.87Y-92.71
X103.505Y-39.37
X105.41Y-90.17
X107.315Y-33.02
X110.49Y-83.185
X111.76Y-39.37
T3
X88.9Y-24.257
X90.17Y-24.257
X91.44Y-24.257
X92.71Y-24.257
X93.98Y-24.257
X95.25Y-24.257
X96.52Y-24.257
X97.79Y-24.257
X99.06Y-24.257
X100.33Y-24.257
X101.6Y-24.257
X102.87Y-24.257
X104.14Y-24.257
X105.41Y-24.257
X106.68Y-24.257
X107.95Y-24.257
T4
X51.987Y-33.066
X53.257Y-33.066
X54.527Y-33.066
T5
X33.02Y-31.75
X33.02Y-34.25
X46.99Y-29.25
X46.99Y-34.25
X61.147Y-31.312
X61.147Y-33.812
X74.375Y-30.48
X79.375Y-30.48
X88.9Y-35.56
X99.06Y-35.56
X107.96Y-66.025
X107.96Y-68.565
X107.96Y-71.105
X107.96Y-73.645
X107.96Y-76.185
X107.96Y-78.725
X107.96Y-81.265
X107.96Y-83.805
X107.96Y-86.345
X107.96Y-88.885
X107.96Y-91.425
X107.96Y-93.965
X107.96Y-96.505
X107.96Y-99.045
X109.22Y-55.92
X109.22Y-60.92
X110.49Y-45.92
X110.49Y-50.8
X111.76Y-102.87
X111.76Y-107.87
X113.03Y-55.88
X113.03Y-60.88
X115.57Y-102.87
X115.57Y-107.87
X115.58Y-66.025
X115.58Y-68.565
X115.58Y-71.105
X115.58Y-73.645
X115.58Y-76.185
X115.58Y-78.725
X115.58Y-81.265
X115.58Y-83.805
X115.58Y-86.345
X115.58Y-88.885
X115.58Y-91.425
X115.58Y-93.965
X115.58Y-96.505
X115.58Y-99.045
T6
X35.56Y-25.4
X38.1Y-25.4
X44.45Y-24.511
X46.99Y-24.511
X49.53Y-24.511
X52.07Y-24.511
X54.61Y-24.511
X57.15Y-24.511
X59.69Y-24.511
X62.23Y-24.511
X64.77Y-24.511
X67.31Y-24.511
X69.85Y-24.511
X72.39Y-24.511
X74.93Y-24.511
X77.47Y-24.511
X83.825Y-30.353
X86.365Y-30.353
X88.905Y-30.353
X91.445Y-30.353
X93.985Y-30.353
X110.505Y-113.035
X110.505Y-115.575
X113.045Y-113.035
X113.045Y-115.575
X115.585Y-113.035
X115.585Y-115.575
T7
X33.02Y-43.18
X33.02Y-47.68
X33.02Y-54.61
X33.02Y-59.11
X33.02Y-66.04
X33.02Y-70.54
X33.02Y-77.47
X33.02Y-81.97
X33.02Y-88.9
X33.02Y-93.4
X33.02Y-100.33
X33.02Y-104.83
X33.02Y-111.76
X33.02Y-116.26
X39.52Y-43.18
X39.52Y-47.68
X39.52Y-54.61
X39.52Y-59.11
X39.52Y-66.04
X39.52Y-70.54
X39.52Y-77.47
X39.52Y-81.97
X39.52Y-88.9
X39.52Y-93.4
X39.52Y-100.33
X39.52Y-104.83
X39.52Y-111.76
X39.52Y-116.26
X48.26Y-43.18
X48.26Y-47.68
X48.26Y-54.61
X48.26Y-59.11
X48.26Y-66.04
X48.26Y-70.54
X48.26Y-77.47
X48.26Y-81.97
X48.26Y-88.9
X48.26Y-93.4
X48.26Y-100.33
X48.26Y-104.83
X48.26Y-111.76
X48.26Y-116.26
X54.76Y-43.18
X54.76Y-47.68
X54.76Y-54.61
X54.76Y-59.11
X54.76Y-66.04
X54.76Y-70.54
X54.76Y-77.47
X54.76Y-81.97
X54.76Y-88.9
X54.76Y-93.4
X54.76Y-100.33
X54.76Y-104.83
X54.76Y-111.76
X54.76Y-116.26
X63.5Y-43.18
X63.5Y-47.68
X63.5Y-54.61
X63.5Y-59.11
X63.5Y-66.04
X63.5Y-70.54
X63.5Y-77.47
X63.5Y-81.97
X63.5Y-88.9
X63.5Y-93.4
X63.5Y-100.33
X63.5Y-104.83
X63.5Y-111.76
X63.5Y-116.26
X70.0Y-43.18
X70.0Y-47.68
X70.0Y-54.61
X70.0Y-59.11
X70.0Y-66.04
X70.0Y-70.54
X70.0Y-77.47
X70.0Y-81.97
X70.0Y-88.9
X70.0Y-93.4
X70.0Y-100.33
X70.0Y-104.83
X70.0Y-111.76
X70.0Y-116.26
X78.74Y-43.18
X78.74Y-47.68
X78.74Y-54.61
X78.74Y-59.11
X78.74Y-66.04
X78.74Y-70.54
X78.74Y-77.47
X78.74Y-81.97
X78.74Y-88.9
X78.74Y-93.4
X78.74Y-100.33
X78.74Y-104.83
X78.74Y-111.76
X78.74Y-116.26
X85.24Y-43.18
X85.24Y-47.68
X85.24Y-54.61
X85.24Y-59.11
X85.24Y-66.04
X85.24Y-70.54
X85.24Y-77.47
X85.24Y-81.97
X85.24Y-88.9
X85.24Y-93.4
X85.24Y-100.33
X85.24Y-104.83
X85.24Y-111.76
X85.24Y-116.26
X93.98Y-43.18
X93.98Y-47.68
X93.98Y-54.61
X93.98Y-59.11
X93.98Y-66.04
X93.98Y-70.54
X93.98Y-77.47
X93.98Y-81.97
X93.98Y-88.9
X93.98Y-93.4
X93.98Y-100.33
X93.98Y-104.83
X93.98Y-111.76
X93.98Y-116.26
X100.48Y-43.18
X100.48Y-47.68
X100.48Y-54.61
X100.48Y-59.11
X100.48Y-66.04
X100.48Y-70.54
X100.48Y-77.47
X100.48Y-81.97
X100.48Y-88.9
X100.48Y-93.4
X100.48Y-100.33
X100.48Y-104.83
X100.48Y-111.76
X100.48Y-116.26
T8
X105.475Y-35.52
X107.975Y-30.52
X110.475Y-35.52
T9
X28.575Y-24.765
X28.575Y-117.475
X105.41Y-117.475
X117.475Y-24.765
T0
M30
