%TF.GenerationSoftware,KiCad,Pcbnew,6.0.11+dfsg-1*%
%TF.CreationDate,2025-02-26T04:55:11-05:00*%
%TF.ProjectId,Terminal_LCD_Keyboard,5465726d-696e-4616-9c5f-4c43445f4b65,rev?*%
%TF.SameCoordinates,Original*%
%TF.FileFunction,Legend,Bot*%
%TF.FilePolarity,Positive*%
%FSLAX46Y46*%
G04 Gerber Fmt 4.6, Leading zero omitted, Abs format (unit mm)*
G04 Created by KiCad (PCBNEW 6.0.11+dfsg-1) date 2025-02-26 04:55:11*
%MOMM*%
%LPD*%
G01*
G04 APERTURE LIST*
%ADD10C,0.304800*%
%ADD11C,0.150000*%
G04 APERTURE END LIST*
D10*
X28665714Y-39249047D02*
X28762476Y-39152285D01*
X28859238Y-38862000D01*
X28859238Y-38668476D01*
X28762476Y-38378190D01*
X28568952Y-38184666D01*
X28375428Y-38087904D01*
X27988380Y-37991142D01*
X27698095Y-37991142D01*
X27311047Y-38087904D01*
X27117523Y-38184666D01*
X26924000Y-38378190D01*
X26827238Y-38668476D01*
X26827238Y-38862000D01*
X26924000Y-39152285D01*
X27020761Y-39249047D01*
X28859238Y-40410190D02*
X28762476Y-40216666D01*
X28568952Y-40119904D01*
X26827238Y-40119904D01*
X28859238Y-42055142D02*
X27794857Y-42055142D01*
X27601333Y-41958380D01*
X27504571Y-41764857D01*
X27504571Y-41377809D01*
X27601333Y-41184285D01*
X28762476Y-42055142D02*
X28859238Y-41861619D01*
X28859238Y-41377809D01*
X28762476Y-41184285D01*
X28568952Y-41087523D01*
X28375428Y-41087523D01*
X28181904Y-41184285D01*
X28085142Y-41377809D01*
X28085142Y-41861619D01*
X27988380Y-42055142D01*
X27504571Y-42829238D02*
X28859238Y-43313047D01*
X27504571Y-43796857D02*
X28859238Y-43313047D01*
X29343047Y-43119523D01*
X29439809Y-43022761D01*
X29536571Y-42829238D01*
X27504571Y-44280666D02*
X27504571Y-45054761D01*
X26827238Y-44570952D02*
X28568952Y-44570952D01*
X28762476Y-44667714D01*
X28859238Y-44861238D01*
X28859238Y-45054761D01*
X28859238Y-46022380D02*
X28762476Y-45828857D01*
X28665714Y-45732095D01*
X28472190Y-45635333D01*
X27891619Y-45635333D01*
X27698095Y-45732095D01*
X27601333Y-45828857D01*
X27504571Y-46022380D01*
X27504571Y-46312666D01*
X27601333Y-46506190D01*
X27698095Y-46602952D01*
X27891619Y-46699714D01*
X28472190Y-46699714D01*
X28665714Y-46602952D01*
X28762476Y-46506190D01*
X28859238Y-46312666D01*
X28859238Y-46022380D01*
X27504571Y-47570571D02*
X28859238Y-47570571D01*
X27698095Y-47570571D02*
X27601333Y-47667333D01*
X27504571Y-47860857D01*
X27504571Y-48151142D01*
X27601333Y-48344666D01*
X27794857Y-48441428D01*
X28859238Y-48441428D01*
X28859238Y-51924857D02*
X28859238Y-50957238D01*
X26827238Y-50957238D01*
X28859238Y-53473047D02*
X27794857Y-53473047D01*
X27601333Y-53376285D01*
X27504571Y-53182761D01*
X27504571Y-52795714D01*
X27601333Y-52602190D01*
X28762476Y-53473047D02*
X28859238Y-53279523D01*
X28859238Y-52795714D01*
X28762476Y-52602190D01*
X28568952Y-52505428D01*
X28375428Y-52505428D01*
X28181904Y-52602190D01*
X28085142Y-52795714D01*
X28085142Y-53279523D01*
X27988380Y-53473047D01*
X27504571Y-54247142D02*
X28859238Y-54634190D01*
X27891619Y-55021238D01*
X28859238Y-55408285D01*
X27504571Y-55795333D01*
X28859238Y-56859714D02*
X28762476Y-56666190D01*
X28568952Y-56569428D01*
X26827238Y-56569428D01*
X28762476Y-58407904D02*
X28859238Y-58214380D01*
X28859238Y-57827333D01*
X28762476Y-57633809D01*
X28568952Y-57537047D01*
X27794857Y-57537047D01*
X27601333Y-57633809D01*
X27504571Y-57827333D01*
X27504571Y-58214380D01*
X27601333Y-58407904D01*
X27794857Y-58504666D01*
X27988380Y-58504666D01*
X28181904Y-57537047D01*
X28859238Y-59375523D02*
X27504571Y-59375523D01*
X27891619Y-59375523D02*
X27698095Y-59472285D01*
X27601333Y-59569047D01*
X27504571Y-59762571D01*
X27504571Y-59956095D01*
X26827238Y-60730190D02*
X27214285Y-60536666D01*
X28762476Y-61504285D02*
X28859238Y-61697809D01*
X28859238Y-62084857D01*
X28762476Y-62278380D01*
X28568952Y-62375142D01*
X28472190Y-62375142D01*
X28278666Y-62278380D01*
X28181904Y-62084857D01*
X28181904Y-61794571D01*
X28085142Y-61601047D01*
X27891619Y-61504285D01*
X27794857Y-61504285D01*
X27601333Y-61601047D01*
X27504571Y-61794571D01*
X27504571Y-62084857D01*
X27601333Y-62278380D01*
X28762476Y-65665047D02*
X28859238Y-65471523D01*
X28859238Y-65084476D01*
X28762476Y-64890952D01*
X28665714Y-64794190D01*
X28472190Y-64697428D01*
X27891619Y-64697428D01*
X27698095Y-64794190D01*
X27601333Y-64890952D01*
X27504571Y-65084476D01*
X27504571Y-65471523D01*
X27601333Y-65665047D01*
X27504571Y-67406761D02*
X28859238Y-67406761D01*
X27504571Y-66535904D02*
X28568952Y-66535904D01*
X28762476Y-66632666D01*
X28859238Y-66826190D01*
X28859238Y-67116476D01*
X28762476Y-67310000D01*
X28665714Y-67406761D01*
X28762476Y-68277619D02*
X28859238Y-68471142D01*
X28859238Y-68858190D01*
X28762476Y-69051714D01*
X28568952Y-69148476D01*
X28472190Y-69148476D01*
X28278666Y-69051714D01*
X28181904Y-68858190D01*
X28181904Y-68567904D01*
X28085142Y-68374380D01*
X27891619Y-68277619D01*
X27794857Y-68277619D01*
X27601333Y-68374380D01*
X27504571Y-68567904D01*
X27504571Y-68858190D01*
X27601333Y-69051714D01*
X27504571Y-69729047D02*
X27504571Y-70503142D01*
X26827238Y-70019333D02*
X28568952Y-70019333D01*
X28762476Y-70116095D01*
X28859238Y-70309619D01*
X28859238Y-70503142D01*
X28859238Y-71470761D02*
X28762476Y-71277238D01*
X28665714Y-71180476D01*
X28472190Y-71083714D01*
X27891619Y-71083714D01*
X27698095Y-71180476D01*
X27601333Y-71277238D01*
X27504571Y-71470761D01*
X27504571Y-71761047D01*
X27601333Y-71954571D01*
X27698095Y-72051333D01*
X27891619Y-72148095D01*
X28472190Y-72148095D01*
X28665714Y-72051333D01*
X28762476Y-71954571D01*
X28859238Y-71761047D01*
X28859238Y-71470761D01*
X28859238Y-73018952D02*
X27504571Y-73018952D01*
X27698095Y-73018952D02*
X27601333Y-73115714D01*
X27504571Y-73309238D01*
X27504571Y-73599523D01*
X27601333Y-73793047D01*
X27794857Y-73889809D01*
X28859238Y-73889809D01*
X27794857Y-73889809D02*
X27601333Y-73986571D01*
X27504571Y-74180095D01*
X27504571Y-74470380D01*
X27601333Y-74663904D01*
X27794857Y-74760666D01*
X28859238Y-74760666D01*
X28665714Y-78437619D02*
X28762476Y-78340857D01*
X28859238Y-78050571D01*
X28859238Y-77857047D01*
X28762476Y-77566761D01*
X28568952Y-77373238D01*
X28375428Y-77276476D01*
X27988380Y-77179714D01*
X27698095Y-77179714D01*
X27311047Y-77276476D01*
X27117523Y-77373238D01*
X26924000Y-77566761D01*
X26827238Y-77857047D01*
X26827238Y-78050571D01*
X26924000Y-78340857D01*
X27020761Y-78437619D01*
X28859238Y-80276095D02*
X28859238Y-79308476D01*
X26827238Y-79308476D01*
X28085142Y-80953428D02*
X28085142Y-82501619D01*
X26827238Y-83275714D02*
X26827238Y-84533619D01*
X27601333Y-83856285D01*
X27601333Y-84146571D01*
X27698095Y-84340095D01*
X27794857Y-84436857D01*
X27988380Y-84533619D01*
X28472190Y-84533619D01*
X28665714Y-84436857D01*
X28762476Y-84340095D01*
X28859238Y-84146571D01*
X28859238Y-83566000D01*
X28762476Y-83372476D01*
X28665714Y-83275714D01*
X26827238Y-86372095D02*
X26827238Y-85404476D01*
X27794857Y-85307714D01*
X27698095Y-85404476D01*
X27601333Y-85598000D01*
X27601333Y-86081809D01*
X27698095Y-86275333D01*
X27794857Y-86372095D01*
X27988380Y-86468857D01*
X28472190Y-86468857D01*
X28665714Y-86372095D01*
X28762476Y-86275333D01*
X28859238Y-86081809D01*
X28859238Y-85598000D01*
X28762476Y-85404476D01*
X28665714Y-85307714D01*
D11*
X118546666Y-84776904D02*
X118594285Y-84824523D01*
X118737142Y-84919761D01*
X118832380Y-84967380D01*
X118975238Y-85015000D01*
X119213333Y-85062619D01*
X119403809Y-85062619D01*
X119641904Y-85015000D01*
X119784761Y-84967380D01*
X119880000Y-84919761D01*
X120022857Y-84824523D01*
X120070476Y-84776904D01*
X118975238Y-83967380D02*
X118927619Y-84062619D01*
X118927619Y-84253095D01*
X118975238Y-84348333D01*
X119022857Y-84395952D01*
X119118095Y-84443571D01*
X119403809Y-84443571D01*
X119499047Y-84395952D01*
X119546666Y-84348333D01*
X119594285Y-84253095D01*
X119594285Y-84062619D01*
X119546666Y-83967380D01*
X118546666Y-83634047D02*
X118594285Y-83586428D01*
X118737142Y-83491190D01*
X118832380Y-83443571D01*
X118975238Y-83395952D01*
X119213333Y-83348333D01*
X119403809Y-83348333D01*
X119641904Y-83395952D01*
X119784761Y-83443571D01*
X119880000Y-83491190D01*
X120022857Y-83586428D01*
X120070476Y-83634047D01*
X119927619Y-82205476D02*
X118927619Y-81967380D01*
X119641904Y-81776904D01*
X118927619Y-81586428D01*
X119927619Y-81348333D01*
X118927619Y-80967380D02*
X119594285Y-80967380D01*
X119927619Y-80967380D02*
X119880000Y-81015000D01*
X119832380Y-80967380D01*
X119880000Y-80919761D01*
X119927619Y-80967380D01*
X119832380Y-80967380D01*
X118927619Y-80348333D02*
X118975238Y-80443571D01*
X119070476Y-80491190D01*
X119927619Y-80491190D01*
X118927619Y-79824523D02*
X118975238Y-79919761D01*
X119070476Y-79967380D01*
X119927619Y-79967380D01*
X118927619Y-79443571D02*
X119594285Y-79443571D01*
X119927619Y-79443571D02*
X119880000Y-79491190D01*
X119832380Y-79443571D01*
X119880000Y-79395952D01*
X119927619Y-79443571D01*
X119832380Y-79443571D01*
X118927619Y-78538809D02*
X119451428Y-78538809D01*
X119546666Y-78586428D01*
X119594285Y-78681666D01*
X119594285Y-78872142D01*
X119546666Y-78967380D01*
X118975238Y-78538809D02*
X118927619Y-78634047D01*
X118927619Y-78872142D01*
X118975238Y-78967380D01*
X119070476Y-79015000D01*
X119165714Y-79015000D01*
X119260952Y-78967380D01*
X119308571Y-78872142D01*
X119308571Y-78634047D01*
X119356190Y-78538809D01*
X118927619Y-78062619D02*
X119594285Y-78062619D01*
X119499047Y-78062619D02*
X119546666Y-78015000D01*
X119594285Y-77919761D01*
X119594285Y-77776904D01*
X119546666Y-77681666D01*
X119451428Y-77634047D01*
X118927619Y-77634047D01*
X119451428Y-77634047D02*
X119546666Y-77586428D01*
X119594285Y-77491190D01*
X119594285Y-77348333D01*
X119546666Y-77253095D01*
X119451428Y-77205476D01*
X118927619Y-77205476D01*
X118927619Y-75395952D02*
X119403809Y-75729285D01*
X118927619Y-75967380D02*
X119927619Y-75967380D01*
X119927619Y-75586428D01*
X119880000Y-75491190D01*
X119832380Y-75443571D01*
X119737142Y-75395952D01*
X119594285Y-75395952D01*
X119499047Y-75443571D01*
X119451428Y-75491190D01*
X119403809Y-75586428D01*
X119403809Y-75967380D01*
X119022857Y-73634047D02*
X118975238Y-73681666D01*
X118927619Y-73824523D01*
X118927619Y-73919761D01*
X118975238Y-74062619D01*
X119070476Y-74157857D01*
X119165714Y-74205476D01*
X119356190Y-74253095D01*
X119499047Y-74253095D01*
X119689523Y-74205476D01*
X119784761Y-74157857D01*
X119880000Y-74062619D01*
X119927619Y-73919761D01*
X119927619Y-73824523D01*
X119880000Y-73681666D01*
X119832380Y-73634047D01*
X118927619Y-73062619D02*
X118975238Y-73157857D01*
X119022857Y-73205476D01*
X119118095Y-73253095D01*
X119403809Y-73253095D01*
X119499047Y-73205476D01*
X119546666Y-73157857D01*
X119594285Y-73062619D01*
X119594285Y-72919761D01*
X119546666Y-72824523D01*
X119499047Y-72776904D01*
X119403809Y-72729285D01*
X119118095Y-72729285D01*
X119022857Y-72776904D01*
X118975238Y-72824523D01*
X118927619Y-72919761D01*
X118927619Y-73062619D01*
X118927619Y-72157857D02*
X118975238Y-72253095D01*
X119022857Y-72300714D01*
X119118095Y-72348333D01*
X119403809Y-72348333D01*
X119499047Y-72300714D01*
X119546666Y-72253095D01*
X119594285Y-72157857D01*
X119594285Y-72015000D01*
X119546666Y-71919761D01*
X119499047Y-71872142D01*
X119403809Y-71824523D01*
X119118095Y-71824523D01*
X119022857Y-71872142D01*
X118975238Y-71919761D01*
X118927619Y-72015000D01*
X118927619Y-72157857D01*
X118927619Y-71395952D02*
X119927619Y-71395952D01*
X119308571Y-71300714D02*
X118927619Y-71015000D01*
X119594285Y-71015000D02*
X119213333Y-71395952D01*
X118975238Y-70205476D02*
X118927619Y-70300714D01*
X118927619Y-70491190D01*
X118975238Y-70586428D01*
X119070476Y-70634047D01*
X119451428Y-70634047D01*
X119546666Y-70586428D01*
X119594285Y-70491190D01*
X119594285Y-70300714D01*
X119546666Y-70205476D01*
X119451428Y-70157857D01*
X119356190Y-70157857D01*
X119260952Y-70634047D01*
X118975238Y-69681666D02*
X118927619Y-69681666D01*
X118832380Y-69729285D01*
X118784761Y-69776904D01*
X118975238Y-68538809D02*
X118927619Y-68395952D01*
X118927619Y-68157857D01*
X118975238Y-68062619D01*
X119022857Y-68015000D01*
X119118095Y-67967380D01*
X119213333Y-67967380D01*
X119308571Y-68015000D01*
X119356190Y-68062619D01*
X119403809Y-68157857D01*
X119451428Y-68348333D01*
X119499047Y-68443571D01*
X119546666Y-68491190D01*
X119641904Y-68538809D01*
X119737142Y-68538809D01*
X119832380Y-68491190D01*
X119880000Y-68443571D01*
X119927619Y-68348333D01*
X119927619Y-68110238D01*
X119880000Y-67967380D01*
X118927619Y-67538809D02*
X119594285Y-67538809D01*
X119499047Y-67538809D02*
X119546666Y-67491190D01*
X119594285Y-67395952D01*
X119594285Y-67253095D01*
X119546666Y-67157857D01*
X119451428Y-67110238D01*
X118927619Y-67110238D01*
X119451428Y-67110238D02*
X119546666Y-67062619D01*
X119594285Y-66967380D01*
X119594285Y-66824523D01*
X119546666Y-66729285D01*
X119451428Y-66681666D01*
X118927619Y-66681666D01*
X118927619Y-65776904D02*
X119451428Y-65776904D01*
X119546666Y-65824523D01*
X119594285Y-65919761D01*
X119594285Y-66110238D01*
X119546666Y-66205476D01*
X118975238Y-65776904D02*
X118927619Y-65872142D01*
X118927619Y-66110238D01*
X118975238Y-66205476D01*
X119070476Y-66253095D01*
X119165714Y-66253095D01*
X119260952Y-66205476D01*
X119308571Y-66110238D01*
X119308571Y-65872142D01*
X119356190Y-65776904D01*
X118927619Y-65157857D02*
X118975238Y-65253095D01*
X119070476Y-65300714D01*
X119927619Y-65300714D01*
X118927619Y-64634047D02*
X118975238Y-64729285D01*
X119070476Y-64776904D01*
X119927619Y-64776904D01*
X119927619Y-63634047D02*
X119927619Y-63062619D01*
X118927619Y-63348333D02*
X119927619Y-63348333D01*
X118927619Y-62729285D02*
X119594285Y-62729285D01*
X119927619Y-62729285D02*
X119880000Y-62776904D01*
X119832380Y-62729285D01*
X119880000Y-62681666D01*
X119927619Y-62729285D01*
X119832380Y-62729285D01*
X118927619Y-62253095D02*
X119594285Y-62253095D01*
X119499047Y-62253095D02*
X119546666Y-62205476D01*
X119594285Y-62110238D01*
X119594285Y-61967380D01*
X119546666Y-61872142D01*
X119451428Y-61824523D01*
X118927619Y-61824523D01*
X119451428Y-61824523D02*
X119546666Y-61776904D01*
X119594285Y-61681666D01*
X119594285Y-61538809D01*
X119546666Y-61443571D01*
X119451428Y-61395952D01*
X118927619Y-61395952D01*
X118975238Y-60538809D02*
X118927619Y-60634047D01*
X118927619Y-60824523D01*
X118975238Y-60919761D01*
X119070476Y-60967380D01*
X119451428Y-60967380D01*
X119546666Y-60919761D01*
X119594285Y-60824523D01*
X119594285Y-60634047D01*
X119546666Y-60538809D01*
X119451428Y-60491190D01*
X119356190Y-60491190D01*
X119260952Y-60967380D01*
X119451428Y-59300714D02*
X119451428Y-58967380D01*
X118927619Y-58824523D02*
X118927619Y-59300714D01*
X119927619Y-59300714D01*
X119927619Y-58824523D01*
X118927619Y-58253095D02*
X118975238Y-58348333D01*
X119070476Y-58395952D01*
X119927619Y-58395952D01*
X118975238Y-57491190D02*
X118927619Y-57586428D01*
X118927619Y-57776904D01*
X118975238Y-57872142D01*
X119070476Y-57919761D01*
X119451428Y-57919761D01*
X119546666Y-57872142D01*
X119594285Y-57776904D01*
X119594285Y-57586428D01*
X119546666Y-57491190D01*
X119451428Y-57443571D01*
X119356190Y-57443571D01*
X119260952Y-57919761D01*
X118975238Y-56586428D02*
X118927619Y-56681666D01*
X118927619Y-56872142D01*
X118975238Y-56967380D01*
X119022857Y-57015000D01*
X119118095Y-57062619D01*
X119403809Y-57062619D01*
X119499047Y-57015000D01*
X119546666Y-56967380D01*
X119594285Y-56872142D01*
X119594285Y-56681666D01*
X119546666Y-56586428D01*
X119594285Y-56300714D02*
X119594285Y-55919761D01*
X119927619Y-56157857D02*
X119070476Y-56157857D01*
X118975238Y-56110238D01*
X118927619Y-56015000D01*
X118927619Y-55919761D01*
X118927619Y-55586428D02*
X119594285Y-55586428D01*
X119403809Y-55586428D02*
X119499047Y-55538809D01*
X119546666Y-55491190D01*
X119594285Y-55395952D01*
X119594285Y-55300714D01*
X118927619Y-54824523D02*
X118975238Y-54919761D01*
X119022857Y-54967380D01*
X119118095Y-55015000D01*
X119403809Y-55015000D01*
X119499047Y-54967380D01*
X119546666Y-54919761D01*
X119594285Y-54824523D01*
X119594285Y-54681666D01*
X119546666Y-54586428D01*
X119499047Y-54538809D01*
X119403809Y-54491190D01*
X119118095Y-54491190D01*
X119022857Y-54538809D01*
X118975238Y-54586428D01*
X118927619Y-54681666D01*
X118927619Y-54824523D01*
X119594285Y-54062619D02*
X118927619Y-54062619D01*
X119499047Y-54062619D02*
X119546666Y-54015000D01*
X119594285Y-53919761D01*
X119594285Y-53776904D01*
X119546666Y-53681666D01*
X119451428Y-53634047D01*
X118927619Y-53634047D01*
X118927619Y-53157857D02*
X119594285Y-53157857D01*
X119927619Y-53157857D02*
X119880000Y-53205476D01*
X119832380Y-53157857D01*
X119880000Y-53110238D01*
X119927619Y-53157857D01*
X119832380Y-53157857D01*
X118975238Y-52253095D02*
X118927619Y-52348333D01*
X118927619Y-52538809D01*
X118975238Y-52634047D01*
X119022857Y-52681666D01*
X119118095Y-52729285D01*
X119403809Y-52729285D01*
X119499047Y-52681666D01*
X119546666Y-52634047D01*
X119594285Y-52538809D01*
X119594285Y-52348333D01*
X119546666Y-52253095D01*
X118975238Y-51872142D02*
X118927619Y-51776904D01*
X118927619Y-51586428D01*
X118975238Y-51491190D01*
X119070476Y-51443571D01*
X119118095Y-51443571D01*
X119213333Y-51491190D01*
X119260952Y-51586428D01*
X119260952Y-51729285D01*
X119308571Y-51824523D01*
X119403809Y-51872142D01*
X119451428Y-51872142D01*
X119546666Y-51824523D01*
X119594285Y-51729285D01*
X119594285Y-51586428D01*
X119546666Y-51491190D01*
X119594285Y-50348333D02*
X118927619Y-50157857D01*
X119403809Y-49967380D01*
X118927619Y-49776904D01*
X119594285Y-49586428D01*
X119594285Y-49300714D02*
X118927619Y-49110238D01*
X119403809Y-48919761D01*
X118927619Y-48729285D01*
X119594285Y-48538809D01*
X119594285Y-48253095D02*
X118927619Y-48062619D01*
X119403809Y-47872142D01*
X118927619Y-47681666D01*
X119594285Y-47491190D01*
X119022857Y-47110238D02*
X118975238Y-47062619D01*
X118927619Y-47110238D01*
X118975238Y-47157857D01*
X119022857Y-47110238D01*
X118927619Y-47110238D01*
X118975238Y-46681666D02*
X118927619Y-46586428D01*
X118927619Y-46395952D01*
X118975238Y-46300714D01*
X119070476Y-46253095D01*
X119118095Y-46253095D01*
X119213333Y-46300714D01*
X119260952Y-46395952D01*
X119260952Y-46538809D01*
X119308571Y-46634047D01*
X119403809Y-46681666D01*
X119451428Y-46681666D01*
X119546666Y-46634047D01*
X119594285Y-46538809D01*
X119594285Y-46395952D01*
X119546666Y-46300714D01*
X118927619Y-45824523D02*
X119594285Y-45824523D01*
X119499047Y-45824523D02*
X119546666Y-45776904D01*
X119594285Y-45681666D01*
X119594285Y-45538809D01*
X119546666Y-45443571D01*
X119451428Y-45395952D01*
X118927619Y-45395952D01*
X119451428Y-45395952D02*
X119546666Y-45348333D01*
X119594285Y-45253095D01*
X119594285Y-45110238D01*
X119546666Y-45015000D01*
X119451428Y-44967380D01*
X118927619Y-44967380D01*
X118927619Y-44062619D02*
X119451428Y-44062619D01*
X119546666Y-44110238D01*
X119594285Y-44205476D01*
X119594285Y-44395952D01*
X119546666Y-44491190D01*
X118975238Y-44062619D02*
X118927619Y-44157857D01*
X118927619Y-44395952D01*
X118975238Y-44491190D01*
X119070476Y-44538809D01*
X119165714Y-44538809D01*
X119260952Y-44491190D01*
X119308571Y-44395952D01*
X119308571Y-44157857D01*
X119356190Y-44062619D01*
X118927619Y-43443571D02*
X118975238Y-43538809D01*
X119070476Y-43586428D01*
X119927619Y-43586428D01*
X118927619Y-42919761D02*
X118975238Y-43015000D01*
X119070476Y-43062619D01*
X119927619Y-43062619D01*
X119594285Y-42681666D02*
X119594285Y-42300714D01*
X119927619Y-42538809D02*
X119070476Y-42538809D01*
X118975238Y-42491190D01*
X118927619Y-42395952D01*
X118927619Y-42300714D01*
X118927619Y-41967380D02*
X119594285Y-41967380D01*
X119927619Y-41967380D02*
X119880000Y-42015000D01*
X119832380Y-41967380D01*
X119880000Y-41919761D01*
X119927619Y-41967380D01*
X119832380Y-41967380D01*
X118927619Y-41491190D02*
X119594285Y-41491190D01*
X119499047Y-41491190D02*
X119546666Y-41443571D01*
X119594285Y-41348333D01*
X119594285Y-41205476D01*
X119546666Y-41110238D01*
X119451428Y-41062619D01*
X118927619Y-41062619D01*
X119451428Y-41062619D02*
X119546666Y-41015000D01*
X119594285Y-40919761D01*
X119594285Y-40776904D01*
X119546666Y-40681666D01*
X119451428Y-40634047D01*
X118927619Y-40634047D01*
X118975238Y-39776904D02*
X118927619Y-39872142D01*
X118927619Y-40062619D01*
X118975238Y-40157857D01*
X119070476Y-40205476D01*
X119451428Y-40205476D01*
X119546666Y-40157857D01*
X119594285Y-40062619D01*
X119594285Y-39872142D01*
X119546666Y-39776904D01*
X119451428Y-39729285D01*
X119356190Y-39729285D01*
X119260952Y-40205476D01*
X118975238Y-38919761D02*
X118927619Y-39015000D01*
X118927619Y-39205476D01*
X118975238Y-39300714D01*
X119070476Y-39348333D01*
X119451428Y-39348333D01*
X119546666Y-39300714D01*
X119594285Y-39205476D01*
X119594285Y-39015000D01*
X119546666Y-38919761D01*
X119451428Y-38872142D01*
X119356190Y-38872142D01*
X119260952Y-39348333D01*
X118927619Y-38300714D02*
X118975238Y-38395952D01*
X119070476Y-38443571D01*
X119927619Y-38443571D01*
X118975238Y-37538809D02*
X118927619Y-37634047D01*
X118927619Y-37824523D01*
X118975238Y-37919761D01*
X119070476Y-37967380D01*
X119451428Y-37967380D01*
X119546666Y-37919761D01*
X119594285Y-37824523D01*
X119594285Y-37634047D01*
X119546666Y-37538809D01*
X119451428Y-37491190D01*
X119356190Y-37491190D01*
X119260952Y-37967380D01*
X118975238Y-36634047D02*
X118927619Y-36729285D01*
X118927619Y-36919761D01*
X118975238Y-37015000D01*
X119022857Y-37062619D01*
X119118095Y-37110238D01*
X119403809Y-37110238D01*
X119499047Y-37062619D01*
X119546666Y-37015000D01*
X119594285Y-36919761D01*
X119594285Y-36729285D01*
X119546666Y-36634047D01*
X119594285Y-36348333D02*
X119594285Y-35967380D01*
X119927619Y-36205476D02*
X119070476Y-36205476D01*
X118975238Y-36157857D01*
X118927619Y-36062619D01*
X118927619Y-35967380D01*
X118927619Y-35634047D02*
X119594285Y-35634047D01*
X119403809Y-35634047D02*
X119499047Y-35586428D01*
X119546666Y-35538809D01*
X119594285Y-35443571D01*
X119594285Y-35348333D01*
X118927619Y-34872142D02*
X118975238Y-34967380D01*
X119022857Y-35015000D01*
X119118095Y-35062619D01*
X119403809Y-35062619D01*
X119499047Y-35015000D01*
X119546666Y-34967380D01*
X119594285Y-34872142D01*
X119594285Y-34729285D01*
X119546666Y-34634047D01*
X119499047Y-34586428D01*
X119403809Y-34538809D01*
X119118095Y-34538809D01*
X119022857Y-34586428D01*
X118975238Y-34634047D01*
X118927619Y-34729285D01*
X118927619Y-34872142D01*
X119594285Y-34110238D02*
X118927619Y-34110238D01*
X119499047Y-34110238D02*
X119546666Y-34062619D01*
X119594285Y-33967380D01*
X119594285Y-33824523D01*
X119546666Y-33729285D01*
X119451428Y-33681666D01*
X118927619Y-33681666D01*
X118927619Y-33205476D02*
X119594285Y-33205476D01*
X119927619Y-33205476D02*
X119880000Y-33253095D01*
X119832380Y-33205476D01*
X119880000Y-33157857D01*
X119927619Y-33205476D01*
X119832380Y-33205476D01*
X118975238Y-32300714D02*
X118927619Y-32395952D01*
X118927619Y-32586428D01*
X118975238Y-32681666D01*
X119022857Y-32729285D01*
X119118095Y-32776904D01*
X119403809Y-32776904D01*
X119499047Y-32729285D01*
X119546666Y-32681666D01*
X119594285Y-32586428D01*
X119594285Y-32395952D01*
X119546666Y-32300714D01*
X118975238Y-31919761D02*
X118927619Y-31824523D01*
X118927619Y-31634047D01*
X118975238Y-31538809D01*
X119070476Y-31491190D01*
X119118095Y-31491190D01*
X119213333Y-31538809D01*
X119260952Y-31634047D01*
X119260952Y-31776904D01*
X119308571Y-31872142D01*
X119403809Y-31919761D01*
X119451428Y-31919761D01*
X119546666Y-31872142D01*
X119594285Y-31776904D01*
X119594285Y-31634047D01*
X119546666Y-31538809D01*
X119022857Y-31062619D02*
X118975238Y-31015000D01*
X118927619Y-31062619D01*
X118975238Y-31110238D01*
X119022857Y-31062619D01*
X118927619Y-31062619D01*
X118975238Y-30157857D02*
X118927619Y-30253095D01*
X118927619Y-30443571D01*
X118975238Y-30538809D01*
X119022857Y-30586428D01*
X119118095Y-30634047D01*
X119403809Y-30634047D01*
X119499047Y-30586428D01*
X119546666Y-30538809D01*
X119594285Y-30443571D01*
X119594285Y-30253095D01*
X119546666Y-30157857D01*
X118927619Y-29586428D02*
X118975238Y-29681666D01*
X119022857Y-29729285D01*
X119118095Y-29776904D01*
X119403809Y-29776904D01*
X119499047Y-29729285D01*
X119546666Y-29681666D01*
X119594285Y-29586428D01*
X119594285Y-29443571D01*
X119546666Y-29348333D01*
X119499047Y-29300714D01*
X119403809Y-29253095D01*
X119118095Y-29253095D01*
X119022857Y-29300714D01*
X118975238Y-29348333D01*
X118927619Y-29443571D01*
X118927619Y-29586428D01*
X118927619Y-28824523D02*
X119594285Y-28824523D01*
X119499047Y-28824523D02*
X119546666Y-28776904D01*
X119594285Y-28681666D01*
X119594285Y-28538809D01*
X119546666Y-28443571D01*
X119451428Y-28395952D01*
X118927619Y-28395952D01*
X119451428Y-28395952D02*
X119546666Y-28348333D01*
X119594285Y-28253095D01*
X119594285Y-28110238D01*
X119546666Y-28015000D01*
X119451428Y-27967380D01*
X118927619Y-27967380D01*
D10*
X44661666Y-38825714D02*
X44758428Y-38922476D01*
X45048714Y-39019238D01*
X45242238Y-39019238D01*
X45532523Y-38922476D01*
X45726047Y-38728952D01*
X45822809Y-38535428D01*
X45919571Y-38148380D01*
X45919571Y-37858095D01*
X45822809Y-37471047D01*
X45726047Y-37277523D01*
X45532523Y-37084000D01*
X45242238Y-36987238D01*
X45048714Y-36987238D01*
X44758428Y-37084000D01*
X44661666Y-37180761D01*
X42823190Y-39019238D02*
X43790809Y-39019238D01*
X43790809Y-36987238D01*
X42145857Y-38245142D02*
X40597666Y-38245142D01*
X39823571Y-36987238D02*
X38565666Y-36987238D01*
X39243000Y-37761333D01*
X38952714Y-37761333D01*
X38759190Y-37858095D01*
X38662428Y-37954857D01*
X38565666Y-38148380D01*
X38565666Y-38632190D01*
X38662428Y-38825714D01*
X38759190Y-38922476D01*
X38952714Y-39019238D01*
X39533285Y-39019238D01*
X39726809Y-38922476D01*
X39823571Y-38825714D01*
X36727190Y-36987238D02*
X37694809Y-36987238D01*
X37791571Y-37954857D01*
X37694809Y-37858095D01*
X37501285Y-37761333D01*
X37017476Y-37761333D01*
X36823952Y-37858095D01*
X36727190Y-37954857D01*
X36630428Y-38148380D01*
X36630428Y-38632190D01*
X36727190Y-38825714D01*
X36823952Y-38922476D01*
X37017476Y-39019238D01*
X37501285Y-39019238D01*
X37694809Y-38922476D01*
X37791571Y-38825714D01*
D11*
X112053095Y-41462142D02*
X112100714Y-41509761D01*
X112243571Y-41557380D01*
X112338809Y-41557380D01*
X112481666Y-41509761D01*
X112576904Y-41414523D01*
X112624523Y-41319285D01*
X112672142Y-41128809D01*
X112672142Y-40985952D01*
X112624523Y-40795476D01*
X112576904Y-40700238D01*
X112481666Y-40605000D01*
X112338809Y-40557380D01*
X112243571Y-40557380D01*
X112100714Y-40605000D01*
X112053095Y-40652619D01*
X111481666Y-41557380D02*
X111576904Y-41509761D01*
X111624523Y-41414523D01*
X111624523Y-40557380D01*
X110672142Y-41557380D02*
X110672142Y-41033571D01*
X110719761Y-40938333D01*
X110815000Y-40890714D01*
X111005476Y-40890714D01*
X111100714Y-40938333D01*
X110672142Y-41509761D02*
X110767380Y-41557380D01*
X111005476Y-41557380D01*
X111100714Y-41509761D01*
X111148333Y-41414523D01*
X111148333Y-41319285D01*
X111100714Y-41224047D01*
X111005476Y-41176428D01*
X110767380Y-41176428D01*
X110672142Y-41128809D01*
X110291190Y-40890714D02*
X110053095Y-41557380D01*
X109815000Y-40890714D02*
X110053095Y-41557380D01*
X110148333Y-41795476D01*
X110195952Y-41843095D01*
X110291190Y-41890714D01*
X109576904Y-40890714D02*
X109195952Y-40890714D01*
X109434047Y-40557380D02*
X109434047Y-41414523D01*
X109386428Y-41509761D01*
X109291190Y-41557380D01*
X109195952Y-41557380D01*
X108719761Y-41557380D02*
X108815000Y-41509761D01*
X108862619Y-41462142D01*
X108910238Y-41366904D01*
X108910238Y-41081190D01*
X108862619Y-40985952D01*
X108815000Y-40938333D01*
X108719761Y-40890714D01*
X108576904Y-40890714D01*
X108481666Y-40938333D01*
X108434047Y-40985952D01*
X108386428Y-41081190D01*
X108386428Y-41366904D01*
X108434047Y-41462142D01*
X108481666Y-41509761D01*
X108576904Y-41557380D01*
X108719761Y-41557380D01*
X107957857Y-40890714D02*
X107957857Y-41557380D01*
X107957857Y-40985952D02*
X107910238Y-40938333D01*
X107815000Y-40890714D01*
X107672142Y-40890714D01*
X107576904Y-40938333D01*
X107529285Y-41033571D01*
X107529285Y-41557380D01*
X105815000Y-41557380D02*
X106291190Y-41557380D01*
X106291190Y-40557380D01*
X105053095Y-41557380D02*
X105053095Y-41033571D01*
X105100714Y-40938333D01*
X105195952Y-40890714D01*
X105386428Y-40890714D01*
X105481666Y-40938333D01*
X105053095Y-41509761D02*
X105148333Y-41557380D01*
X105386428Y-41557380D01*
X105481666Y-41509761D01*
X105529285Y-41414523D01*
X105529285Y-41319285D01*
X105481666Y-41224047D01*
X105386428Y-41176428D01*
X105148333Y-41176428D01*
X105053095Y-41128809D01*
X104672142Y-40890714D02*
X104481666Y-41557380D01*
X104291190Y-41081190D01*
X104100714Y-41557380D01*
X103910238Y-40890714D01*
X103386428Y-41557380D02*
X103481666Y-41509761D01*
X103529285Y-41414523D01*
X103529285Y-40557380D01*
X102624523Y-41509761D02*
X102719761Y-41557380D01*
X102910238Y-41557380D01*
X103005476Y-41509761D01*
X103053095Y-41414523D01*
X103053095Y-41033571D01*
X103005476Y-40938333D01*
X102910238Y-40890714D01*
X102719761Y-40890714D01*
X102624523Y-40938333D01*
X102576904Y-41033571D01*
X102576904Y-41128809D01*
X103053095Y-41224047D01*
X102148333Y-41557380D02*
X102148333Y-40890714D01*
X102148333Y-41081190D02*
X102100714Y-40985952D01*
X102053095Y-40938333D01*
X101957857Y-40890714D01*
X101862619Y-40890714D01*
X107076904Y-43072142D02*
X107124523Y-43119761D01*
X107267380Y-43167380D01*
X107362619Y-43167380D01*
X107505476Y-43119761D01*
X107600714Y-43024523D01*
X107648333Y-42929285D01*
X107695952Y-42738809D01*
X107695952Y-42595952D01*
X107648333Y-42405476D01*
X107600714Y-42310238D01*
X107505476Y-42215000D01*
X107362619Y-42167380D01*
X107267380Y-42167380D01*
X107124523Y-42215000D01*
X107076904Y-42262619D01*
X106172142Y-43167380D02*
X106648333Y-43167380D01*
X106648333Y-42167380D01*
X105838809Y-42786428D02*
X105076904Y-42786428D01*
X104695952Y-42167380D02*
X104076904Y-42167380D01*
X104410238Y-42548333D01*
X104267380Y-42548333D01*
X104172142Y-42595952D01*
X104124523Y-42643571D01*
X104076904Y-42738809D01*
X104076904Y-42976904D01*
X104124523Y-43072142D01*
X104172142Y-43119761D01*
X104267380Y-43167380D01*
X104553095Y-43167380D01*
X104648333Y-43119761D01*
X104695952Y-43072142D01*
X103172142Y-42167380D02*
X103648333Y-42167380D01*
X103695952Y-42643571D01*
X103648333Y-42595952D01*
X103553095Y-42548333D01*
X103314999Y-42548333D01*
X103219761Y-42595952D01*
X103172142Y-42643571D01*
X103124523Y-42738809D01*
X103124523Y-42976904D01*
X103172142Y-43072142D01*
X103219761Y-43119761D01*
X103314999Y-43167380D01*
X103553095Y-43167380D01*
X103648333Y-43119761D01*
X103695952Y-43072142D01*
M02*
