%TF.GenerationSoftware,KiCad,Pcbnew,6.0.11+dfsg-1*%
%TF.CreationDate,2025-02-25T22:24:54-05:00*%
%TF.ProjectId,Terminal_LCD_Keyboard,5465726d-696e-4616-9c5f-4c43445f4b65,rev?*%
%TF.SameCoordinates,Original*%
%TF.FileFunction,Soldermask,Bot*%
%TF.FilePolarity,Negative*%
%FSLAX46Y46*%
G04 Gerber Fmt 4.6, Leading zero omitted, Abs format (unit mm)*
G04 Created by KiCad (PCBNEW 6.0.11+dfsg-1) date 2025-02-25 22:24:54*
%MOMM*%
%LPD*%
G01*
G04 APERTURE LIST*
%ADD10C,3.800000*%
%ADD11C,2.000000*%
%ADD12C,1.600000*%
%ADD13R,1.000000X1.000000*%
%ADD14O,1.000000X1.000000*%
%ADD15C,1.500000*%
%ADD16R,2.400000X1.600000*%
%ADD17O,2.400000X1.600000*%
%ADD18R,1.700000X1.700000*%
%ADD19O,1.700000X1.700000*%
%ADD20C,2.340000*%
%ADD21O,1.600000X1.600000*%
%ADD22R,1.600000X1.600000*%
%ADD23R,1.050000X1.500000*%
%ADD24O,1.050000X1.500000*%
G04 APERTURE END LIST*
D10*
%TO.C,H4*%
X105410000Y-117475000D03*
%TD*%
%TO.C,H3*%
X28575000Y-117475000D03*
%TD*%
%TO.C,H2*%
X117475000Y-24765000D03*
%TD*%
%TO.C,H1*%
X28575000Y-24765000D03*
%TD*%
D11*
%TO.C,SW3*%
X70000000Y-111760000D03*
X63500000Y-111760000D03*
X70000000Y-116260000D03*
X63500000Y-116260000D03*
%TD*%
D12*
%TO.C,C7*%
X74375000Y-30480000D03*
X79375000Y-30480000D03*
%TD*%
D11*
%TO.C,SW33*%
X63500000Y-43180000D03*
X70000000Y-43180000D03*
X63500000Y-47680000D03*
X70000000Y-47680000D03*
%TD*%
D13*
%TO.C,DISP2*%
X107950000Y-24257000D03*
D14*
X106680000Y-24257000D03*
X105410000Y-24257000D03*
X104140000Y-24257000D03*
X102870000Y-24257000D03*
X101600000Y-24257000D03*
X100330000Y-24257000D03*
X99060000Y-24257000D03*
X97790000Y-24257000D03*
X96520000Y-24257000D03*
X95250000Y-24257000D03*
X93980000Y-24257000D03*
X92710000Y-24257000D03*
X91440000Y-24257000D03*
X90170000Y-24257000D03*
X88900000Y-24257000D03*
%TD*%
D15*
%TO.C,Y1*%
X110490000Y-50800000D03*
X110490000Y-45920000D03*
%TD*%
D16*
%TO.C,U2*%
X107960000Y-66025000D03*
D17*
X107960000Y-68565000D03*
X107960000Y-71105000D03*
X107960000Y-73645000D03*
X107960000Y-76185000D03*
X107960000Y-78725000D03*
X107960000Y-81265000D03*
X107960000Y-83805000D03*
X107960000Y-86345000D03*
X107960000Y-88885000D03*
X107960000Y-91425000D03*
X107960000Y-93965000D03*
X107960000Y-96505000D03*
X107960000Y-99045000D03*
X115580000Y-99045000D03*
X115580000Y-96505000D03*
X115580000Y-93965000D03*
X115580000Y-91425000D03*
X115580000Y-88885000D03*
X115580000Y-86345000D03*
X115580000Y-83805000D03*
X115580000Y-81265000D03*
X115580000Y-78725000D03*
X115580000Y-76185000D03*
X115580000Y-73645000D03*
X115580000Y-71105000D03*
X115580000Y-68565000D03*
X115580000Y-66025000D03*
%TD*%
D11*
%TO.C,SW22*%
X48260000Y-66040000D03*
X54760000Y-66040000D03*
X54760000Y-70540000D03*
X48260000Y-70540000D03*
%TD*%
D18*
%TO.C,J2*%
X110505000Y-115575000D03*
D19*
X110505000Y-113035000D03*
X113045000Y-115575000D03*
X113045000Y-113035000D03*
X115585000Y-115575000D03*
X115585000Y-113035000D03*
%TD*%
D11*
%TO.C,SW30*%
X93980000Y-54610000D03*
X100480000Y-54610000D03*
X100480000Y-59110000D03*
X93980000Y-59110000D03*
%TD*%
D18*
%TO.C,DISP1*%
X77470000Y-24511000D03*
D19*
X74930000Y-24511000D03*
X72390000Y-24511000D03*
X69850000Y-24511000D03*
X67310000Y-24511000D03*
X64770000Y-24511000D03*
X62230000Y-24511000D03*
X59690000Y-24511000D03*
X57150000Y-24511000D03*
X54610000Y-24511000D03*
X52070000Y-24511000D03*
X49530000Y-24511000D03*
X46990000Y-24511000D03*
X44450000Y-24511000D03*
%TD*%
D11*
%TO.C,SW12*%
X48260000Y-88900000D03*
X54760000Y-88900000D03*
X54760000Y-93400000D03*
X48260000Y-93400000D03*
%TD*%
%TO.C,SW26*%
X33020000Y-54610000D03*
X39520000Y-54610000D03*
X39520000Y-59110000D03*
X33020000Y-59110000D03*
%TD*%
%TO.C,SW13*%
X70000000Y-88900000D03*
X63500000Y-88900000D03*
X70000000Y-93400000D03*
X63500000Y-93400000D03*
%TD*%
%TO.C,SW20*%
X93980000Y-77470000D03*
X100480000Y-77470000D03*
X93980000Y-81970000D03*
X100480000Y-81970000D03*
%TD*%
%TO.C,SW28*%
X70000000Y-54610000D03*
X63500000Y-54610000D03*
X63500000Y-59110000D03*
X70000000Y-59110000D03*
%TD*%
%TO.C,SW10*%
X93980000Y-100330000D03*
X100480000Y-100330000D03*
X100480000Y-104830000D03*
X93980000Y-104830000D03*
%TD*%
%TO.C,SW16*%
X39520000Y-77470000D03*
X33020000Y-77470000D03*
X33020000Y-81970000D03*
X39520000Y-81970000D03*
%TD*%
%TO.C,SW6*%
X33020000Y-100330000D03*
X39520000Y-100330000D03*
X33020000Y-104830000D03*
X39520000Y-104830000D03*
%TD*%
D12*
%TO.C,C6*%
X113030000Y-55880000D03*
X113030000Y-60880000D03*
%TD*%
D20*
%TO.C,RV1*%
X105475000Y-35520000D03*
X107975000Y-30520000D03*
X110475000Y-35520000D03*
%TD*%
D11*
%TO.C,SW1*%
X33020000Y-111760000D03*
X39520000Y-111760000D03*
X39520000Y-116260000D03*
X33020000Y-116260000D03*
%TD*%
%TO.C,SW19*%
X78740000Y-77470000D03*
X85240000Y-77470000D03*
X78740000Y-81970000D03*
X85240000Y-81970000D03*
%TD*%
%TO.C,SW31*%
X33020000Y-43180000D03*
X39520000Y-43180000D03*
X33020000Y-47680000D03*
X39520000Y-47680000D03*
%TD*%
%TO.C,SW35*%
X100480000Y-43180000D03*
X93980000Y-43180000D03*
X93980000Y-47680000D03*
X100480000Y-47680000D03*
%TD*%
D18*
%TO.C,CON2*%
X83825000Y-30353000D03*
D19*
X86365000Y-30353000D03*
X88905000Y-30353000D03*
X91445000Y-30353000D03*
X93985000Y-30353000D03*
%TD*%
D11*
%TO.C,SW2*%
X48260000Y-111760000D03*
X54760000Y-111760000D03*
X48260000Y-116260000D03*
X54760000Y-116260000D03*
%TD*%
%TO.C,SW27*%
X48260000Y-54610000D03*
X54760000Y-54610000D03*
X48260000Y-59110000D03*
X54760000Y-59110000D03*
%TD*%
D18*
%TO.C,J1*%
X35560000Y-25400000D03*
D19*
X38100000Y-25400000D03*
%TD*%
D11*
%TO.C,SW9*%
X78740000Y-100330000D03*
X85240000Y-100330000D03*
X78740000Y-104830000D03*
X85240000Y-104830000D03*
%TD*%
D12*
%TO.C,R1*%
X88900000Y-35560000D03*
D21*
X99060000Y-35560000D03*
%TD*%
D11*
%TO.C,SW7*%
X54760000Y-100330000D03*
X48260000Y-100330000D03*
X54760000Y-104830000D03*
X48260000Y-104830000D03*
%TD*%
%TO.C,SW23*%
X70000000Y-66040000D03*
X63500000Y-66040000D03*
X70000000Y-70540000D03*
X63500000Y-70540000D03*
%TD*%
%TO.C,SW25*%
X93980000Y-66040000D03*
X100480000Y-66040000D03*
X93980000Y-70540000D03*
X100480000Y-70540000D03*
%TD*%
%TO.C,SW4*%
X85240000Y-111760000D03*
X78740000Y-111760000D03*
X85240000Y-116260000D03*
X78740000Y-116260000D03*
%TD*%
D22*
%TO.C,C2*%
X61147000Y-31312056D03*
D12*
X61147000Y-33812056D03*
%TD*%
D11*
%TO.C,SW24*%
X78740000Y-66040000D03*
X85240000Y-66040000D03*
X85240000Y-70540000D03*
X78740000Y-70540000D03*
%TD*%
%TO.C,SW15*%
X100480000Y-88900000D03*
X93980000Y-88900000D03*
X100480000Y-93400000D03*
X93980000Y-93400000D03*
%TD*%
%TO.C,SW34*%
X85240000Y-43180000D03*
X78740000Y-43180000D03*
X78740000Y-47680000D03*
X85240000Y-47680000D03*
%TD*%
D12*
%TO.C,C5*%
X109220000Y-55920000D03*
X109220000Y-60920000D03*
%TD*%
%TO.C,C4*%
X115570000Y-102870000D03*
X115570000Y-107870000D03*
%TD*%
D11*
%TO.C,SW18*%
X70000000Y-77470000D03*
X63500000Y-77470000D03*
X70000000Y-81970000D03*
X63500000Y-81970000D03*
%TD*%
%TO.C,SW29*%
X78740000Y-54610000D03*
X85240000Y-54610000D03*
X78740000Y-59110000D03*
X85240000Y-59110000D03*
%TD*%
D23*
%TO.C,U1*%
X51987000Y-33066108D03*
D24*
X53257000Y-33066108D03*
X54527000Y-33066108D03*
%TD*%
D11*
%TO.C,SW5*%
X93980000Y-111760000D03*
X100480000Y-111760000D03*
X93980000Y-116260000D03*
X100480000Y-116260000D03*
%TD*%
%TO.C,SW8*%
X63500000Y-100330000D03*
X70000000Y-100330000D03*
X70000000Y-104830000D03*
X63500000Y-104830000D03*
%TD*%
%TO.C,SW17*%
X48260000Y-77470000D03*
X54760000Y-77470000D03*
X48260000Y-81970000D03*
X54760000Y-81970000D03*
%TD*%
%TO.C,SW21*%
X33020000Y-66040000D03*
X39520000Y-66040000D03*
X39520000Y-70540000D03*
X33020000Y-70540000D03*
%TD*%
%TO.C,SW32*%
X54760000Y-43180000D03*
X48260000Y-43180000D03*
X48260000Y-47680000D03*
X54760000Y-47680000D03*
%TD*%
%TO.C,SW11*%
X33020000Y-88900000D03*
X39520000Y-88900000D03*
X39520000Y-93400000D03*
X33020000Y-93400000D03*
%TD*%
%TO.C,SW14*%
X85240000Y-88900000D03*
X78740000Y-88900000D03*
X85240000Y-93400000D03*
X78740000Y-93400000D03*
%TD*%
D12*
%TO.C,C3*%
X111760000Y-102870000D03*
X111760000Y-107870000D03*
%TD*%
%TO.C,C1*%
X46990000Y-29250000D03*
X46990000Y-34250000D03*
%TD*%
D22*
%TO.C,C8*%
X33020000Y-31750000D03*
D12*
X33020000Y-34250000D03*
%TD*%
M02*
