%TF.GenerationSoftware,KiCad,Pcbnew,6.0.11+dfsg-1*%
%TF.CreationDate,2025-02-25T22:24:54-05:00*%
%TF.ProjectId,Terminal_LCD_Keyboard,5465726d-696e-4616-9c5f-4c43445f4b65,rev?*%
%TF.SameCoordinates,Original*%
%TF.FileFunction,Legend,Top*%
%TF.FilePolarity,Positive*%
%FSLAX46Y46*%
G04 Gerber Fmt 4.6, Leading zero omitted, Abs format (unit mm)*
G04 Created by KiCad (PCBNEW 6.0.11+dfsg-1) date 2025-02-25 22:24:54*
%MOMM*%
%LPD*%
G01*
G04 APERTURE LIST*
%ADD10C,0.150000*%
%ADD11C,0.010000*%
%ADD12C,0.120000*%
G04 APERTURE END LIST*
D10*
X35068095Y-28011428D02*
X35830000Y-28011428D01*
X35449047Y-28392380D02*
X35449047Y-27630476D01*
X37830000Y-28011428D02*
X38591904Y-28011428D01*
X38338333Y-34137142D02*
X38290714Y-34184761D01*
X38147857Y-34232380D01*
X38052619Y-34232380D01*
X37909761Y-34184761D01*
X37814523Y-34089523D01*
X37766904Y-33994285D01*
X37719285Y-33803809D01*
X37719285Y-33660952D01*
X37766904Y-33470476D01*
X37814523Y-33375238D01*
X37909761Y-33280000D01*
X38052619Y-33232380D01*
X38147857Y-33232380D01*
X38290714Y-33280000D01*
X38338333Y-33327619D01*
X39243095Y-34232380D02*
X38766904Y-34232380D01*
X38766904Y-33232380D01*
X39576428Y-33851428D02*
X40338333Y-33851428D01*
X40719285Y-33232380D02*
X41338333Y-33232380D01*
X41005000Y-33613333D01*
X41147857Y-33613333D01*
X41243095Y-33660952D01*
X41290714Y-33708571D01*
X41338333Y-33803809D01*
X41338333Y-34041904D01*
X41290714Y-34137142D01*
X41243095Y-34184761D01*
X41147857Y-34232380D01*
X40862142Y-34232380D01*
X40766904Y-34184761D01*
X40719285Y-34137142D01*
X42243095Y-33232380D02*
X41766904Y-33232380D01*
X41719285Y-33708571D01*
X41766904Y-33660952D01*
X41862142Y-33613333D01*
X42100238Y-33613333D01*
X42195476Y-33660952D01*
X42243095Y-33708571D01*
X42290714Y-33803809D01*
X42290714Y-34041904D01*
X42243095Y-34137142D01*
X42195476Y-34184761D01*
X42100238Y-34232380D01*
X41862142Y-34232380D01*
X41766904Y-34184761D01*
X41719285Y-34137142D01*
X38885952Y-35794761D02*
X39028809Y-35842380D01*
X39266904Y-35842380D01*
X39362142Y-35794761D01*
X39409761Y-35747142D01*
X39457380Y-35651904D01*
X39457380Y-35556666D01*
X39409761Y-35461428D01*
X39362142Y-35413809D01*
X39266904Y-35366190D01*
X39076428Y-35318571D01*
X38981190Y-35270952D01*
X38933571Y-35223333D01*
X38885952Y-35128095D01*
X38885952Y-35032857D01*
X38933571Y-34937619D01*
X38981190Y-34890000D01*
X39076428Y-34842380D01*
X39314523Y-34842380D01*
X39457380Y-34890000D01*
X39743095Y-34842380D02*
X40314523Y-34842380D01*
X40028809Y-35842380D02*
X40028809Y-34842380D01*
X40647857Y-35318571D02*
X40981190Y-35318571D01*
X41124047Y-35842380D02*
X40647857Y-35842380D01*
X40647857Y-34842380D01*
X41124047Y-34842380D01*
X38885952Y-36785714D02*
X39076428Y-37452380D01*
X39266904Y-36976190D01*
X39457380Y-37452380D01*
X39647857Y-36785714D01*
X40028809Y-37452380D02*
X40028809Y-36785714D01*
X40028809Y-36976190D02*
X40076428Y-36880952D01*
X40124047Y-36833333D01*
X40219285Y-36785714D01*
X40314523Y-36785714D01*
X41076428Y-37404761D02*
X40981190Y-37452380D01*
X40790714Y-37452380D01*
X40695476Y-37404761D01*
X40647857Y-37357142D01*
X40600238Y-37261904D01*
X40600238Y-36976190D01*
X40647857Y-36880952D01*
X40695476Y-36833333D01*
X40790714Y-36785714D01*
X40981190Y-36785714D01*
X41076428Y-36833333D01*
X37338333Y-38157619D02*
X37385952Y-38110000D01*
X37481190Y-38062380D01*
X37719285Y-38062380D01*
X37814523Y-38110000D01*
X37862142Y-38157619D01*
X37909761Y-38252857D01*
X37909761Y-38348095D01*
X37862142Y-38490952D01*
X37290714Y-39062380D01*
X37909761Y-39062380D01*
X38528809Y-38062380D02*
X38624047Y-38062380D01*
X38719285Y-38110000D01*
X38766904Y-38157619D01*
X38814523Y-38252857D01*
X38862142Y-38443333D01*
X38862142Y-38681428D01*
X38814523Y-38871904D01*
X38766904Y-38967142D01*
X38719285Y-39014761D01*
X38624047Y-39062380D01*
X38528809Y-39062380D01*
X38433571Y-39014761D01*
X38385952Y-38967142D01*
X38338333Y-38871904D01*
X38290714Y-38681428D01*
X38290714Y-38443333D01*
X38338333Y-38252857D01*
X38385952Y-38157619D01*
X38433571Y-38110000D01*
X38528809Y-38062380D01*
X39243095Y-38157619D02*
X39290714Y-38110000D01*
X39385952Y-38062380D01*
X39624047Y-38062380D01*
X39719285Y-38110000D01*
X39766904Y-38157619D01*
X39814523Y-38252857D01*
X39814523Y-38348095D01*
X39766904Y-38490952D01*
X39195476Y-39062380D01*
X39814523Y-39062380D01*
X40719285Y-38062380D02*
X40243095Y-38062380D01*
X40195476Y-38538571D01*
X40243095Y-38490952D01*
X40338333Y-38443333D01*
X40576428Y-38443333D01*
X40671666Y-38490952D01*
X40719285Y-38538571D01*
X40766904Y-38633809D01*
X40766904Y-38871904D01*
X40719285Y-38967142D01*
X40671666Y-39014761D01*
X40576428Y-39062380D01*
X40338333Y-39062380D01*
X40243095Y-39014761D01*
X40195476Y-38967142D01*
X41385952Y-38062380D02*
X41481190Y-38062380D01*
X41576428Y-38110000D01*
X41624047Y-38157619D01*
X41671666Y-38252857D01*
X41719285Y-38443333D01*
X41719285Y-38681428D01*
X41671666Y-38871904D01*
X41624047Y-38967142D01*
X41576428Y-39014761D01*
X41481190Y-39062380D01*
X41385952Y-39062380D01*
X41290714Y-39014761D01*
X41243095Y-38967142D01*
X41195476Y-38871904D01*
X41147857Y-38681428D01*
X41147857Y-38443333D01*
X41195476Y-38252857D01*
X41243095Y-38157619D01*
X41290714Y-38110000D01*
X41385952Y-38062380D01*
X42100238Y-38157619D02*
X42147857Y-38110000D01*
X42243095Y-38062380D01*
X42481190Y-38062380D01*
X42576428Y-38110000D01*
X42624047Y-38157619D01*
X42671666Y-38252857D01*
X42671666Y-38348095D01*
X42624047Y-38490952D01*
X42052619Y-39062380D01*
X42671666Y-39062380D01*
%TO.C,H4*%
X104648095Y-115027380D02*
X104648095Y-114027380D01*
X104648095Y-114503571D02*
X105219523Y-114503571D01*
X105219523Y-115027380D02*
X105219523Y-114027380D01*
X106124285Y-114360714D02*
X106124285Y-115027380D01*
X105886190Y-113979761D02*
X105648095Y-114694047D01*
X106267142Y-114694047D01*
%TO.C,H3*%
X27813095Y-115027380D02*
X27813095Y-114027380D01*
X27813095Y-114503571D02*
X28384523Y-114503571D01*
X28384523Y-115027380D02*
X28384523Y-114027380D01*
X28765476Y-114027380D02*
X29384523Y-114027380D01*
X29051190Y-114408333D01*
X29194047Y-114408333D01*
X29289285Y-114455952D01*
X29336904Y-114503571D01*
X29384523Y-114598809D01*
X29384523Y-114836904D01*
X29336904Y-114932142D01*
X29289285Y-114979761D01*
X29194047Y-115027380D01*
X28908333Y-115027380D01*
X28813095Y-114979761D01*
X28765476Y-114932142D01*
%TO.C,H2*%
X116713095Y-29027380D02*
X116713095Y-28027380D01*
X116713095Y-28503571D02*
X117284523Y-28503571D01*
X117284523Y-29027380D02*
X117284523Y-28027380D01*
X117713095Y-28122619D02*
X117760714Y-28075000D01*
X117855952Y-28027380D01*
X118094047Y-28027380D01*
X118189285Y-28075000D01*
X118236904Y-28122619D01*
X118284523Y-28217857D01*
X118284523Y-28313095D01*
X118236904Y-28455952D01*
X117665476Y-29027380D01*
X118284523Y-29027380D01*
%TO.C,H1*%
X27813095Y-29662380D02*
X27813095Y-28662380D01*
X27813095Y-29138571D02*
X28384523Y-29138571D01*
X28384523Y-29662380D02*
X28384523Y-28662380D01*
X29384523Y-29662380D02*
X28813095Y-29662380D01*
X29098809Y-29662380D02*
X29098809Y-28662380D01*
X29003571Y-28805238D01*
X28908333Y-28900476D01*
X28813095Y-28948095D01*
%TO.C,SW3*%
X65416666Y-110164761D02*
X65559523Y-110212380D01*
X65797619Y-110212380D01*
X65892857Y-110164761D01*
X65940476Y-110117142D01*
X65988095Y-110021904D01*
X65988095Y-109926666D01*
X65940476Y-109831428D01*
X65892857Y-109783809D01*
X65797619Y-109736190D01*
X65607142Y-109688571D01*
X65511904Y-109640952D01*
X65464285Y-109593333D01*
X65416666Y-109498095D01*
X65416666Y-109402857D01*
X65464285Y-109307619D01*
X65511904Y-109260000D01*
X65607142Y-109212380D01*
X65845238Y-109212380D01*
X65988095Y-109260000D01*
X66321428Y-109212380D02*
X66559523Y-110212380D01*
X66750000Y-109498095D01*
X66940476Y-110212380D01*
X67178571Y-109212380D01*
X67464285Y-109212380D02*
X68083333Y-109212380D01*
X67750000Y-109593333D01*
X67892857Y-109593333D01*
X67988095Y-109640952D01*
X68035714Y-109688571D01*
X68083333Y-109783809D01*
X68083333Y-110021904D01*
X68035714Y-110117142D01*
X67988095Y-110164761D01*
X67892857Y-110212380D01*
X67607142Y-110212380D01*
X67511904Y-110164761D01*
X67464285Y-110117142D01*
%TO.C,C7*%
X72192142Y-30646666D02*
X72239761Y-30694285D01*
X72287380Y-30837142D01*
X72287380Y-30932380D01*
X72239761Y-31075238D01*
X72144523Y-31170476D01*
X72049285Y-31218095D01*
X71858809Y-31265714D01*
X71715952Y-31265714D01*
X71525476Y-31218095D01*
X71430238Y-31170476D01*
X71335000Y-31075238D01*
X71287380Y-30932380D01*
X71287380Y-30837142D01*
X71335000Y-30694285D01*
X71382619Y-30646666D01*
X71287380Y-30313333D02*
X71287380Y-29646666D01*
X72287380Y-30075238D01*
%TO.C,SW33*%
X64940476Y-41584761D02*
X65083333Y-41632380D01*
X65321428Y-41632380D01*
X65416666Y-41584761D01*
X65464285Y-41537142D01*
X65511904Y-41441904D01*
X65511904Y-41346666D01*
X65464285Y-41251428D01*
X65416666Y-41203809D01*
X65321428Y-41156190D01*
X65130952Y-41108571D01*
X65035714Y-41060952D01*
X64988095Y-41013333D01*
X64940476Y-40918095D01*
X64940476Y-40822857D01*
X64988095Y-40727619D01*
X65035714Y-40680000D01*
X65130952Y-40632380D01*
X65369047Y-40632380D01*
X65511904Y-40680000D01*
X65845238Y-40632380D02*
X66083333Y-41632380D01*
X66273809Y-40918095D01*
X66464285Y-41632380D01*
X66702380Y-40632380D01*
X66988095Y-40632380D02*
X67607142Y-40632380D01*
X67273809Y-41013333D01*
X67416666Y-41013333D01*
X67511904Y-41060952D01*
X67559523Y-41108571D01*
X67607142Y-41203809D01*
X67607142Y-41441904D01*
X67559523Y-41537142D01*
X67511904Y-41584761D01*
X67416666Y-41632380D01*
X67130952Y-41632380D01*
X67035714Y-41584761D01*
X66988095Y-41537142D01*
X67940476Y-40632380D02*
X68559523Y-40632380D01*
X68226190Y-41013333D01*
X68369047Y-41013333D01*
X68464285Y-41060952D01*
X68511904Y-41108571D01*
X68559523Y-41203809D01*
X68559523Y-41441904D01*
X68511904Y-41537142D01*
X68464285Y-41584761D01*
X68369047Y-41632380D01*
X68083333Y-41632380D01*
X67988095Y-41584761D01*
X67940476Y-41537142D01*
%TO.C,DISP2*%
X100917619Y-27122380D02*
X100917619Y-26122380D01*
X101155714Y-26122380D01*
X101298571Y-26170000D01*
X101393809Y-26265238D01*
X101441428Y-26360476D01*
X101489047Y-26550952D01*
X101489047Y-26693809D01*
X101441428Y-26884285D01*
X101393809Y-26979523D01*
X101298571Y-27074761D01*
X101155714Y-27122380D01*
X100917619Y-27122380D01*
X101917619Y-27122380D02*
X101917619Y-26122380D01*
X102346190Y-27074761D02*
X102489047Y-27122380D01*
X102727142Y-27122380D01*
X102822380Y-27074761D01*
X102870000Y-27027142D01*
X102917619Y-26931904D01*
X102917619Y-26836666D01*
X102870000Y-26741428D01*
X102822380Y-26693809D01*
X102727142Y-26646190D01*
X102536666Y-26598571D01*
X102441428Y-26550952D01*
X102393809Y-26503333D01*
X102346190Y-26408095D01*
X102346190Y-26312857D01*
X102393809Y-26217619D01*
X102441428Y-26170000D01*
X102536666Y-26122380D01*
X102774761Y-26122380D01*
X102917619Y-26170000D01*
X103346190Y-27122380D02*
X103346190Y-26122380D01*
X103727142Y-26122380D01*
X103822380Y-26170000D01*
X103870000Y-26217619D01*
X103917619Y-26312857D01*
X103917619Y-26455714D01*
X103870000Y-26550952D01*
X103822380Y-26598571D01*
X103727142Y-26646190D01*
X103346190Y-26646190D01*
X104298571Y-26217619D02*
X104346190Y-26170000D01*
X104441428Y-26122380D01*
X104679523Y-26122380D01*
X104774761Y-26170000D01*
X104822380Y-26217619D01*
X104870000Y-26312857D01*
X104870000Y-26408095D01*
X104822380Y-26550952D01*
X104250952Y-27122380D01*
X104870000Y-27122380D01*
%TO.C,Y1*%
X106488809Y-48336190D02*
X106488809Y-48812380D01*
X106155476Y-47812380D02*
X106488809Y-48336190D01*
X106822142Y-47812380D01*
X107679285Y-48812380D02*
X107107857Y-48812380D01*
X107393571Y-48812380D02*
X107393571Y-47812380D01*
X107298333Y-47955238D01*
X107203095Y-48050476D01*
X107107857Y-48098095D01*
%TO.C,U2*%
X111008095Y-63147380D02*
X111008095Y-63956904D01*
X111055714Y-64052142D01*
X111103333Y-64099761D01*
X111198571Y-64147380D01*
X111389047Y-64147380D01*
X111484285Y-64099761D01*
X111531904Y-64052142D01*
X111579523Y-63956904D01*
X111579523Y-63147380D01*
X112008095Y-63242619D02*
X112055714Y-63195000D01*
X112150952Y-63147380D01*
X112389047Y-63147380D01*
X112484285Y-63195000D01*
X112531904Y-63242619D01*
X112579523Y-63337857D01*
X112579523Y-63433095D01*
X112531904Y-63575952D01*
X111960476Y-64147380D01*
X112579523Y-64147380D01*
%TO.C,D1*%
X115227380Y-38443095D02*
X114227380Y-38443095D01*
X114227380Y-38205000D01*
X114275000Y-38062142D01*
X114370238Y-37966904D01*
X114465476Y-37919285D01*
X114655952Y-37871666D01*
X114798809Y-37871666D01*
X114989285Y-37919285D01*
X115084523Y-37966904D01*
X115179761Y-38062142D01*
X115227380Y-38205000D01*
X115227380Y-38443095D01*
X115227380Y-36919285D02*
X115227380Y-37490714D01*
X115227380Y-37205000D02*
X114227380Y-37205000D01*
X114370238Y-37300238D01*
X114465476Y-37395476D01*
X114513095Y-37490714D01*
%TO.C,SW22*%
X49700476Y-64444761D02*
X49843333Y-64492380D01*
X50081428Y-64492380D01*
X50176666Y-64444761D01*
X50224285Y-64397142D01*
X50271904Y-64301904D01*
X50271904Y-64206666D01*
X50224285Y-64111428D01*
X50176666Y-64063809D01*
X50081428Y-64016190D01*
X49890952Y-63968571D01*
X49795714Y-63920952D01*
X49748095Y-63873333D01*
X49700476Y-63778095D01*
X49700476Y-63682857D01*
X49748095Y-63587619D01*
X49795714Y-63540000D01*
X49890952Y-63492380D01*
X50129047Y-63492380D01*
X50271904Y-63540000D01*
X50605238Y-63492380D02*
X50843333Y-64492380D01*
X51033809Y-63778095D01*
X51224285Y-64492380D01*
X51462380Y-63492380D01*
X51795714Y-63587619D02*
X51843333Y-63540000D01*
X51938571Y-63492380D01*
X52176666Y-63492380D01*
X52271904Y-63540000D01*
X52319523Y-63587619D01*
X52367142Y-63682857D01*
X52367142Y-63778095D01*
X52319523Y-63920952D01*
X51748095Y-64492380D01*
X52367142Y-64492380D01*
X52748095Y-63587619D02*
X52795714Y-63540000D01*
X52890952Y-63492380D01*
X53129047Y-63492380D01*
X53224285Y-63540000D01*
X53271904Y-63587619D01*
X53319523Y-63682857D01*
X53319523Y-63778095D01*
X53271904Y-63920952D01*
X52700476Y-64492380D01*
X53319523Y-64492380D01*
%TO.C,J2*%
X107841666Y-113757380D02*
X107841666Y-114471666D01*
X107794047Y-114614523D01*
X107698809Y-114709761D01*
X107555952Y-114757380D01*
X107460714Y-114757380D01*
X108270238Y-113852619D02*
X108317857Y-113805000D01*
X108413095Y-113757380D01*
X108651190Y-113757380D01*
X108746428Y-113805000D01*
X108794047Y-113852619D01*
X108841666Y-113947857D01*
X108841666Y-114043095D01*
X108794047Y-114185952D01*
X108222619Y-114757380D01*
X108841666Y-114757380D01*
%TO.C,SW30*%
X95420476Y-53014761D02*
X95563333Y-53062380D01*
X95801428Y-53062380D01*
X95896666Y-53014761D01*
X95944285Y-52967142D01*
X95991904Y-52871904D01*
X95991904Y-52776666D01*
X95944285Y-52681428D01*
X95896666Y-52633809D01*
X95801428Y-52586190D01*
X95610952Y-52538571D01*
X95515714Y-52490952D01*
X95468095Y-52443333D01*
X95420476Y-52348095D01*
X95420476Y-52252857D01*
X95468095Y-52157619D01*
X95515714Y-52110000D01*
X95610952Y-52062380D01*
X95849047Y-52062380D01*
X95991904Y-52110000D01*
X96325238Y-52062380D02*
X96563333Y-53062380D01*
X96753809Y-52348095D01*
X96944285Y-53062380D01*
X97182380Y-52062380D01*
X97468095Y-52062380D02*
X98087142Y-52062380D01*
X97753809Y-52443333D01*
X97896666Y-52443333D01*
X97991904Y-52490952D01*
X98039523Y-52538571D01*
X98087142Y-52633809D01*
X98087142Y-52871904D01*
X98039523Y-52967142D01*
X97991904Y-53014761D01*
X97896666Y-53062380D01*
X97610952Y-53062380D01*
X97515714Y-53014761D01*
X97468095Y-52967142D01*
X98706190Y-52062380D02*
X98801428Y-52062380D01*
X98896666Y-52110000D01*
X98944285Y-52157619D01*
X98991904Y-52252857D01*
X99039523Y-52443333D01*
X99039523Y-52681428D01*
X98991904Y-52871904D01*
X98944285Y-52967142D01*
X98896666Y-53014761D01*
X98801428Y-53062380D01*
X98706190Y-53062380D01*
X98610952Y-53014761D01*
X98563333Y-52967142D01*
X98515714Y-52871904D01*
X98468095Y-52681428D01*
X98468095Y-52443333D01*
X98515714Y-52252857D01*
X98563333Y-52157619D01*
X98610952Y-52110000D01*
X98706190Y-52062380D01*
%TO.C,DISP1*%
X67262619Y-27757380D02*
X67262619Y-26757380D01*
X67500714Y-26757380D01*
X67643571Y-26805000D01*
X67738809Y-26900238D01*
X67786428Y-26995476D01*
X67834047Y-27185952D01*
X67834047Y-27328809D01*
X67786428Y-27519285D01*
X67738809Y-27614523D01*
X67643571Y-27709761D01*
X67500714Y-27757380D01*
X67262619Y-27757380D01*
X68262619Y-27757380D02*
X68262619Y-26757380D01*
X68691190Y-27709761D02*
X68834047Y-27757380D01*
X69072142Y-27757380D01*
X69167380Y-27709761D01*
X69215000Y-27662142D01*
X69262619Y-27566904D01*
X69262619Y-27471666D01*
X69215000Y-27376428D01*
X69167380Y-27328809D01*
X69072142Y-27281190D01*
X68881666Y-27233571D01*
X68786428Y-27185952D01*
X68738809Y-27138333D01*
X68691190Y-27043095D01*
X68691190Y-26947857D01*
X68738809Y-26852619D01*
X68786428Y-26805000D01*
X68881666Y-26757380D01*
X69119761Y-26757380D01*
X69262619Y-26805000D01*
X69691190Y-27757380D02*
X69691190Y-26757380D01*
X70072142Y-26757380D01*
X70167380Y-26805000D01*
X70215000Y-26852619D01*
X70262619Y-26947857D01*
X70262619Y-27090714D01*
X70215000Y-27185952D01*
X70167380Y-27233571D01*
X70072142Y-27281190D01*
X69691190Y-27281190D01*
X71215000Y-27757380D02*
X70643571Y-27757380D01*
X70929285Y-27757380D02*
X70929285Y-26757380D01*
X70834047Y-26900238D01*
X70738809Y-26995476D01*
X70643571Y-27043095D01*
%TO.C,SW12*%
X49700476Y-87304761D02*
X49843333Y-87352380D01*
X50081428Y-87352380D01*
X50176666Y-87304761D01*
X50224285Y-87257142D01*
X50271904Y-87161904D01*
X50271904Y-87066666D01*
X50224285Y-86971428D01*
X50176666Y-86923809D01*
X50081428Y-86876190D01*
X49890952Y-86828571D01*
X49795714Y-86780952D01*
X49748095Y-86733333D01*
X49700476Y-86638095D01*
X49700476Y-86542857D01*
X49748095Y-86447619D01*
X49795714Y-86400000D01*
X49890952Y-86352380D01*
X50129047Y-86352380D01*
X50271904Y-86400000D01*
X50605238Y-86352380D02*
X50843333Y-87352380D01*
X51033809Y-86638095D01*
X51224285Y-87352380D01*
X51462380Y-86352380D01*
X52367142Y-87352380D02*
X51795714Y-87352380D01*
X52081428Y-87352380D02*
X52081428Y-86352380D01*
X51986190Y-86495238D01*
X51890952Y-86590476D01*
X51795714Y-86638095D01*
X52748095Y-86447619D02*
X52795714Y-86400000D01*
X52890952Y-86352380D01*
X53129047Y-86352380D01*
X53224285Y-86400000D01*
X53271904Y-86447619D01*
X53319523Y-86542857D01*
X53319523Y-86638095D01*
X53271904Y-86780952D01*
X52700476Y-87352380D01*
X53319523Y-87352380D01*
%TO.C,SW26*%
X34460476Y-53014761D02*
X34603333Y-53062380D01*
X34841428Y-53062380D01*
X34936666Y-53014761D01*
X34984285Y-52967142D01*
X35031904Y-52871904D01*
X35031904Y-52776666D01*
X34984285Y-52681428D01*
X34936666Y-52633809D01*
X34841428Y-52586190D01*
X34650952Y-52538571D01*
X34555714Y-52490952D01*
X34508095Y-52443333D01*
X34460476Y-52348095D01*
X34460476Y-52252857D01*
X34508095Y-52157619D01*
X34555714Y-52110000D01*
X34650952Y-52062380D01*
X34889047Y-52062380D01*
X35031904Y-52110000D01*
X35365238Y-52062380D02*
X35603333Y-53062380D01*
X35793809Y-52348095D01*
X35984285Y-53062380D01*
X36222380Y-52062380D01*
X36555714Y-52157619D02*
X36603333Y-52110000D01*
X36698571Y-52062380D01*
X36936666Y-52062380D01*
X37031904Y-52110000D01*
X37079523Y-52157619D01*
X37127142Y-52252857D01*
X37127142Y-52348095D01*
X37079523Y-52490952D01*
X36508095Y-53062380D01*
X37127142Y-53062380D01*
X37984285Y-52062380D02*
X37793809Y-52062380D01*
X37698571Y-52110000D01*
X37650952Y-52157619D01*
X37555714Y-52300476D01*
X37508095Y-52490952D01*
X37508095Y-52871904D01*
X37555714Y-52967142D01*
X37603333Y-53014761D01*
X37698571Y-53062380D01*
X37889047Y-53062380D01*
X37984285Y-53014761D01*
X38031904Y-52967142D01*
X38079523Y-52871904D01*
X38079523Y-52633809D01*
X38031904Y-52538571D01*
X37984285Y-52490952D01*
X37889047Y-52443333D01*
X37698571Y-52443333D01*
X37603333Y-52490952D01*
X37555714Y-52538571D01*
X37508095Y-52633809D01*
%TO.C,SW13*%
X64940476Y-87304761D02*
X65083333Y-87352380D01*
X65321428Y-87352380D01*
X65416666Y-87304761D01*
X65464285Y-87257142D01*
X65511904Y-87161904D01*
X65511904Y-87066666D01*
X65464285Y-86971428D01*
X65416666Y-86923809D01*
X65321428Y-86876190D01*
X65130952Y-86828571D01*
X65035714Y-86780952D01*
X64988095Y-86733333D01*
X64940476Y-86638095D01*
X64940476Y-86542857D01*
X64988095Y-86447619D01*
X65035714Y-86400000D01*
X65130952Y-86352380D01*
X65369047Y-86352380D01*
X65511904Y-86400000D01*
X65845238Y-86352380D02*
X66083333Y-87352380D01*
X66273809Y-86638095D01*
X66464285Y-87352380D01*
X66702380Y-86352380D01*
X67607142Y-87352380D02*
X67035714Y-87352380D01*
X67321428Y-87352380D02*
X67321428Y-86352380D01*
X67226190Y-86495238D01*
X67130952Y-86590476D01*
X67035714Y-86638095D01*
X67940476Y-86352380D02*
X68559523Y-86352380D01*
X68226190Y-86733333D01*
X68369047Y-86733333D01*
X68464285Y-86780952D01*
X68511904Y-86828571D01*
X68559523Y-86923809D01*
X68559523Y-87161904D01*
X68511904Y-87257142D01*
X68464285Y-87304761D01*
X68369047Y-87352380D01*
X68083333Y-87352380D01*
X67988095Y-87304761D01*
X67940476Y-87257142D01*
%TO.C,SW20*%
X95420476Y-75874761D02*
X95563333Y-75922380D01*
X95801428Y-75922380D01*
X95896666Y-75874761D01*
X95944285Y-75827142D01*
X95991904Y-75731904D01*
X95991904Y-75636666D01*
X95944285Y-75541428D01*
X95896666Y-75493809D01*
X95801428Y-75446190D01*
X95610952Y-75398571D01*
X95515714Y-75350952D01*
X95468095Y-75303333D01*
X95420476Y-75208095D01*
X95420476Y-75112857D01*
X95468095Y-75017619D01*
X95515714Y-74970000D01*
X95610952Y-74922380D01*
X95849047Y-74922380D01*
X95991904Y-74970000D01*
X96325238Y-74922380D02*
X96563333Y-75922380D01*
X96753809Y-75208095D01*
X96944285Y-75922380D01*
X97182380Y-74922380D01*
X97515714Y-75017619D02*
X97563333Y-74970000D01*
X97658571Y-74922380D01*
X97896666Y-74922380D01*
X97991904Y-74970000D01*
X98039523Y-75017619D01*
X98087142Y-75112857D01*
X98087142Y-75208095D01*
X98039523Y-75350952D01*
X97468095Y-75922380D01*
X98087142Y-75922380D01*
X98706190Y-74922380D02*
X98801428Y-74922380D01*
X98896666Y-74970000D01*
X98944285Y-75017619D01*
X98991904Y-75112857D01*
X99039523Y-75303333D01*
X99039523Y-75541428D01*
X98991904Y-75731904D01*
X98944285Y-75827142D01*
X98896666Y-75874761D01*
X98801428Y-75922380D01*
X98706190Y-75922380D01*
X98610952Y-75874761D01*
X98563333Y-75827142D01*
X98515714Y-75731904D01*
X98468095Y-75541428D01*
X98468095Y-75303333D01*
X98515714Y-75112857D01*
X98563333Y-75017619D01*
X98610952Y-74970000D01*
X98706190Y-74922380D01*
%TO.C,SW28*%
X64940476Y-53014761D02*
X65083333Y-53062380D01*
X65321428Y-53062380D01*
X65416666Y-53014761D01*
X65464285Y-52967142D01*
X65511904Y-52871904D01*
X65511904Y-52776666D01*
X65464285Y-52681428D01*
X65416666Y-52633809D01*
X65321428Y-52586190D01*
X65130952Y-52538571D01*
X65035714Y-52490952D01*
X64988095Y-52443333D01*
X64940476Y-52348095D01*
X64940476Y-52252857D01*
X64988095Y-52157619D01*
X65035714Y-52110000D01*
X65130952Y-52062380D01*
X65369047Y-52062380D01*
X65511904Y-52110000D01*
X65845238Y-52062380D02*
X66083333Y-53062380D01*
X66273809Y-52348095D01*
X66464285Y-53062380D01*
X66702380Y-52062380D01*
X67035714Y-52157619D02*
X67083333Y-52110000D01*
X67178571Y-52062380D01*
X67416666Y-52062380D01*
X67511904Y-52110000D01*
X67559523Y-52157619D01*
X67607142Y-52252857D01*
X67607142Y-52348095D01*
X67559523Y-52490952D01*
X66988095Y-53062380D01*
X67607142Y-53062380D01*
X68178571Y-52490952D02*
X68083333Y-52443333D01*
X68035714Y-52395714D01*
X67988095Y-52300476D01*
X67988095Y-52252857D01*
X68035714Y-52157619D01*
X68083333Y-52110000D01*
X68178571Y-52062380D01*
X68369047Y-52062380D01*
X68464285Y-52110000D01*
X68511904Y-52157619D01*
X68559523Y-52252857D01*
X68559523Y-52300476D01*
X68511904Y-52395714D01*
X68464285Y-52443333D01*
X68369047Y-52490952D01*
X68178571Y-52490952D01*
X68083333Y-52538571D01*
X68035714Y-52586190D01*
X67988095Y-52681428D01*
X67988095Y-52871904D01*
X68035714Y-52967142D01*
X68083333Y-53014761D01*
X68178571Y-53062380D01*
X68369047Y-53062380D01*
X68464285Y-53014761D01*
X68511904Y-52967142D01*
X68559523Y-52871904D01*
X68559523Y-52681428D01*
X68511904Y-52586190D01*
X68464285Y-52538571D01*
X68369047Y-52490952D01*
%TO.C,SW10*%
X95420476Y-98734761D02*
X95563333Y-98782380D01*
X95801428Y-98782380D01*
X95896666Y-98734761D01*
X95944285Y-98687142D01*
X95991904Y-98591904D01*
X95991904Y-98496666D01*
X95944285Y-98401428D01*
X95896666Y-98353809D01*
X95801428Y-98306190D01*
X95610952Y-98258571D01*
X95515714Y-98210952D01*
X95468095Y-98163333D01*
X95420476Y-98068095D01*
X95420476Y-97972857D01*
X95468095Y-97877619D01*
X95515714Y-97830000D01*
X95610952Y-97782380D01*
X95849047Y-97782380D01*
X95991904Y-97830000D01*
X96325238Y-97782380D02*
X96563333Y-98782380D01*
X96753809Y-98068095D01*
X96944285Y-98782380D01*
X97182380Y-97782380D01*
X98087142Y-98782380D02*
X97515714Y-98782380D01*
X97801428Y-98782380D02*
X97801428Y-97782380D01*
X97706190Y-97925238D01*
X97610952Y-98020476D01*
X97515714Y-98068095D01*
X98706190Y-97782380D02*
X98801428Y-97782380D01*
X98896666Y-97830000D01*
X98944285Y-97877619D01*
X98991904Y-97972857D01*
X99039523Y-98163333D01*
X99039523Y-98401428D01*
X98991904Y-98591904D01*
X98944285Y-98687142D01*
X98896666Y-98734761D01*
X98801428Y-98782380D01*
X98706190Y-98782380D01*
X98610952Y-98734761D01*
X98563333Y-98687142D01*
X98515714Y-98591904D01*
X98468095Y-98401428D01*
X98468095Y-98163333D01*
X98515714Y-97972857D01*
X98563333Y-97877619D01*
X98610952Y-97830000D01*
X98706190Y-97782380D01*
%TO.C,SW16*%
X34460476Y-75874761D02*
X34603333Y-75922380D01*
X34841428Y-75922380D01*
X34936666Y-75874761D01*
X34984285Y-75827142D01*
X35031904Y-75731904D01*
X35031904Y-75636666D01*
X34984285Y-75541428D01*
X34936666Y-75493809D01*
X34841428Y-75446190D01*
X34650952Y-75398571D01*
X34555714Y-75350952D01*
X34508095Y-75303333D01*
X34460476Y-75208095D01*
X34460476Y-75112857D01*
X34508095Y-75017619D01*
X34555714Y-74970000D01*
X34650952Y-74922380D01*
X34889047Y-74922380D01*
X35031904Y-74970000D01*
X35365238Y-74922380D02*
X35603333Y-75922380D01*
X35793809Y-75208095D01*
X35984285Y-75922380D01*
X36222380Y-74922380D01*
X37127142Y-75922380D02*
X36555714Y-75922380D01*
X36841428Y-75922380D02*
X36841428Y-74922380D01*
X36746190Y-75065238D01*
X36650952Y-75160476D01*
X36555714Y-75208095D01*
X37984285Y-74922380D02*
X37793809Y-74922380D01*
X37698571Y-74970000D01*
X37650952Y-75017619D01*
X37555714Y-75160476D01*
X37508095Y-75350952D01*
X37508095Y-75731904D01*
X37555714Y-75827142D01*
X37603333Y-75874761D01*
X37698571Y-75922380D01*
X37889047Y-75922380D01*
X37984285Y-75874761D01*
X38031904Y-75827142D01*
X38079523Y-75731904D01*
X38079523Y-75493809D01*
X38031904Y-75398571D01*
X37984285Y-75350952D01*
X37889047Y-75303333D01*
X37698571Y-75303333D01*
X37603333Y-75350952D01*
X37555714Y-75398571D01*
X37508095Y-75493809D01*
%TO.C,SW6*%
X34936666Y-98734761D02*
X35079523Y-98782380D01*
X35317619Y-98782380D01*
X35412857Y-98734761D01*
X35460476Y-98687142D01*
X35508095Y-98591904D01*
X35508095Y-98496666D01*
X35460476Y-98401428D01*
X35412857Y-98353809D01*
X35317619Y-98306190D01*
X35127142Y-98258571D01*
X35031904Y-98210952D01*
X34984285Y-98163333D01*
X34936666Y-98068095D01*
X34936666Y-97972857D01*
X34984285Y-97877619D01*
X35031904Y-97830000D01*
X35127142Y-97782380D01*
X35365238Y-97782380D01*
X35508095Y-97830000D01*
X35841428Y-97782380D02*
X36079523Y-98782380D01*
X36270000Y-98068095D01*
X36460476Y-98782380D01*
X36698571Y-97782380D01*
X37508095Y-97782380D02*
X37317619Y-97782380D01*
X37222380Y-97830000D01*
X37174761Y-97877619D01*
X37079523Y-98020476D01*
X37031904Y-98210952D01*
X37031904Y-98591904D01*
X37079523Y-98687142D01*
X37127142Y-98734761D01*
X37222380Y-98782380D01*
X37412857Y-98782380D01*
X37508095Y-98734761D01*
X37555714Y-98687142D01*
X37603333Y-98591904D01*
X37603333Y-98353809D01*
X37555714Y-98258571D01*
X37508095Y-98210952D01*
X37412857Y-98163333D01*
X37222380Y-98163333D01*
X37127142Y-98210952D01*
X37079523Y-98258571D01*
X37031904Y-98353809D01*
%TO.C,C6*%
X115363333Y-56237142D02*
X115315714Y-56284761D01*
X115172857Y-56332380D01*
X115077619Y-56332380D01*
X114934761Y-56284761D01*
X114839523Y-56189523D01*
X114791904Y-56094285D01*
X114744285Y-55903809D01*
X114744285Y-55760952D01*
X114791904Y-55570476D01*
X114839523Y-55475238D01*
X114934761Y-55380000D01*
X115077619Y-55332380D01*
X115172857Y-55332380D01*
X115315714Y-55380000D01*
X115363333Y-55427619D01*
X116220476Y-55332380D02*
X116030000Y-55332380D01*
X115934761Y-55380000D01*
X115887142Y-55427619D01*
X115791904Y-55570476D01*
X115744285Y-55760952D01*
X115744285Y-56141904D01*
X115791904Y-56237142D01*
X115839523Y-56284761D01*
X115934761Y-56332380D01*
X116125238Y-56332380D01*
X116220476Y-56284761D01*
X116268095Y-56237142D01*
X116315714Y-56141904D01*
X116315714Y-55903809D01*
X116268095Y-55808571D01*
X116220476Y-55760952D01*
X116125238Y-55713333D01*
X115934761Y-55713333D01*
X115839523Y-55760952D01*
X115791904Y-55808571D01*
X115744285Y-55903809D01*
%TO.C,RV1*%
X102277380Y-36115238D02*
X101801190Y-36448571D01*
X102277380Y-36686666D02*
X101277380Y-36686666D01*
X101277380Y-36305714D01*
X101325000Y-36210476D01*
X101372619Y-36162857D01*
X101467857Y-36115238D01*
X101610714Y-36115238D01*
X101705952Y-36162857D01*
X101753571Y-36210476D01*
X101801190Y-36305714D01*
X101801190Y-36686666D01*
X101277380Y-35829523D02*
X102277380Y-35496190D01*
X101277380Y-35162857D01*
X102277380Y-34305714D02*
X102277380Y-34877142D01*
X102277380Y-34591428D02*
X101277380Y-34591428D01*
X101420238Y-34686666D01*
X101515476Y-34781904D01*
X101563095Y-34877142D01*
%TO.C,SW1*%
X34936666Y-110164761D02*
X35079523Y-110212380D01*
X35317619Y-110212380D01*
X35412857Y-110164761D01*
X35460476Y-110117142D01*
X35508095Y-110021904D01*
X35508095Y-109926666D01*
X35460476Y-109831428D01*
X35412857Y-109783809D01*
X35317619Y-109736190D01*
X35127142Y-109688571D01*
X35031904Y-109640952D01*
X34984285Y-109593333D01*
X34936666Y-109498095D01*
X34936666Y-109402857D01*
X34984285Y-109307619D01*
X35031904Y-109260000D01*
X35127142Y-109212380D01*
X35365238Y-109212380D01*
X35508095Y-109260000D01*
X35841428Y-109212380D02*
X36079523Y-110212380D01*
X36270000Y-109498095D01*
X36460476Y-110212380D01*
X36698571Y-109212380D01*
X37603333Y-110212380D02*
X37031904Y-110212380D01*
X37317619Y-110212380D02*
X37317619Y-109212380D01*
X37222380Y-109355238D01*
X37127142Y-109450476D01*
X37031904Y-109498095D01*
%TO.C,SW19*%
X80180476Y-75874761D02*
X80323333Y-75922380D01*
X80561428Y-75922380D01*
X80656666Y-75874761D01*
X80704285Y-75827142D01*
X80751904Y-75731904D01*
X80751904Y-75636666D01*
X80704285Y-75541428D01*
X80656666Y-75493809D01*
X80561428Y-75446190D01*
X80370952Y-75398571D01*
X80275714Y-75350952D01*
X80228095Y-75303333D01*
X80180476Y-75208095D01*
X80180476Y-75112857D01*
X80228095Y-75017619D01*
X80275714Y-74970000D01*
X80370952Y-74922380D01*
X80609047Y-74922380D01*
X80751904Y-74970000D01*
X81085238Y-74922380D02*
X81323333Y-75922380D01*
X81513809Y-75208095D01*
X81704285Y-75922380D01*
X81942380Y-74922380D01*
X82847142Y-75922380D02*
X82275714Y-75922380D01*
X82561428Y-75922380D02*
X82561428Y-74922380D01*
X82466190Y-75065238D01*
X82370952Y-75160476D01*
X82275714Y-75208095D01*
X83323333Y-75922380D02*
X83513809Y-75922380D01*
X83609047Y-75874761D01*
X83656666Y-75827142D01*
X83751904Y-75684285D01*
X83799523Y-75493809D01*
X83799523Y-75112857D01*
X83751904Y-75017619D01*
X83704285Y-74970000D01*
X83609047Y-74922380D01*
X83418571Y-74922380D01*
X83323333Y-74970000D01*
X83275714Y-75017619D01*
X83228095Y-75112857D01*
X83228095Y-75350952D01*
X83275714Y-75446190D01*
X83323333Y-75493809D01*
X83418571Y-75541428D01*
X83609047Y-75541428D01*
X83704285Y-75493809D01*
X83751904Y-75446190D01*
X83799523Y-75350952D01*
%TO.C,SW31*%
X34460476Y-41584761D02*
X34603333Y-41632380D01*
X34841428Y-41632380D01*
X34936666Y-41584761D01*
X34984285Y-41537142D01*
X35031904Y-41441904D01*
X35031904Y-41346666D01*
X34984285Y-41251428D01*
X34936666Y-41203809D01*
X34841428Y-41156190D01*
X34650952Y-41108571D01*
X34555714Y-41060952D01*
X34508095Y-41013333D01*
X34460476Y-40918095D01*
X34460476Y-40822857D01*
X34508095Y-40727619D01*
X34555714Y-40680000D01*
X34650952Y-40632380D01*
X34889047Y-40632380D01*
X35031904Y-40680000D01*
X35365238Y-40632380D02*
X35603333Y-41632380D01*
X35793809Y-40918095D01*
X35984285Y-41632380D01*
X36222380Y-40632380D01*
X36508095Y-40632380D02*
X37127142Y-40632380D01*
X36793809Y-41013333D01*
X36936666Y-41013333D01*
X37031904Y-41060952D01*
X37079523Y-41108571D01*
X37127142Y-41203809D01*
X37127142Y-41441904D01*
X37079523Y-41537142D01*
X37031904Y-41584761D01*
X36936666Y-41632380D01*
X36650952Y-41632380D01*
X36555714Y-41584761D01*
X36508095Y-41537142D01*
X38079523Y-41632380D02*
X37508095Y-41632380D01*
X37793809Y-41632380D02*
X37793809Y-40632380D01*
X37698571Y-40775238D01*
X37603333Y-40870476D01*
X37508095Y-40918095D01*
%TO.C,SW35*%
X95420476Y-41584761D02*
X95563333Y-41632380D01*
X95801428Y-41632380D01*
X95896666Y-41584761D01*
X95944285Y-41537142D01*
X95991904Y-41441904D01*
X95991904Y-41346666D01*
X95944285Y-41251428D01*
X95896666Y-41203809D01*
X95801428Y-41156190D01*
X95610952Y-41108571D01*
X95515714Y-41060952D01*
X95468095Y-41013333D01*
X95420476Y-40918095D01*
X95420476Y-40822857D01*
X95468095Y-40727619D01*
X95515714Y-40680000D01*
X95610952Y-40632380D01*
X95849047Y-40632380D01*
X95991904Y-40680000D01*
X96325238Y-40632380D02*
X96563333Y-41632380D01*
X96753809Y-40918095D01*
X96944285Y-41632380D01*
X97182380Y-40632380D01*
X97468095Y-40632380D02*
X98087142Y-40632380D01*
X97753809Y-41013333D01*
X97896666Y-41013333D01*
X97991904Y-41060952D01*
X98039523Y-41108571D01*
X98087142Y-41203809D01*
X98087142Y-41441904D01*
X98039523Y-41537142D01*
X97991904Y-41584761D01*
X97896666Y-41632380D01*
X97610952Y-41632380D01*
X97515714Y-41584761D01*
X97468095Y-41537142D01*
X98991904Y-40632380D02*
X98515714Y-40632380D01*
X98468095Y-41108571D01*
X98515714Y-41060952D01*
X98610952Y-41013333D01*
X98849047Y-41013333D01*
X98944285Y-41060952D01*
X98991904Y-41108571D01*
X99039523Y-41203809D01*
X99039523Y-41441904D01*
X98991904Y-41537142D01*
X98944285Y-41584761D01*
X98849047Y-41632380D01*
X98610952Y-41632380D01*
X98515714Y-41584761D01*
X98468095Y-41537142D01*
%TO.C,CON2*%
X83880714Y-28297142D02*
X83833095Y-28344761D01*
X83690238Y-28392380D01*
X83595000Y-28392380D01*
X83452142Y-28344761D01*
X83356904Y-28249523D01*
X83309285Y-28154285D01*
X83261666Y-27963809D01*
X83261666Y-27820952D01*
X83309285Y-27630476D01*
X83356904Y-27535238D01*
X83452142Y-27440000D01*
X83595000Y-27392380D01*
X83690238Y-27392380D01*
X83833095Y-27440000D01*
X83880714Y-27487619D01*
X84499761Y-27392380D02*
X84690238Y-27392380D01*
X84785476Y-27440000D01*
X84880714Y-27535238D01*
X84928333Y-27725714D01*
X84928333Y-28059047D01*
X84880714Y-28249523D01*
X84785476Y-28344761D01*
X84690238Y-28392380D01*
X84499761Y-28392380D01*
X84404523Y-28344761D01*
X84309285Y-28249523D01*
X84261666Y-28059047D01*
X84261666Y-27725714D01*
X84309285Y-27535238D01*
X84404523Y-27440000D01*
X84499761Y-27392380D01*
X85356904Y-28392380D02*
X85356904Y-27392380D01*
X85928333Y-28392380D01*
X85928333Y-27392380D01*
X86356904Y-27487619D02*
X86404523Y-27440000D01*
X86499761Y-27392380D01*
X86737857Y-27392380D01*
X86833095Y-27440000D01*
X86880714Y-27487619D01*
X86928333Y-27582857D01*
X86928333Y-27678095D01*
X86880714Y-27820952D01*
X86309285Y-28392380D01*
X86928333Y-28392380D01*
%TO.C,SW2*%
X50176666Y-110164761D02*
X50319523Y-110212380D01*
X50557619Y-110212380D01*
X50652857Y-110164761D01*
X50700476Y-110117142D01*
X50748095Y-110021904D01*
X50748095Y-109926666D01*
X50700476Y-109831428D01*
X50652857Y-109783809D01*
X50557619Y-109736190D01*
X50367142Y-109688571D01*
X50271904Y-109640952D01*
X50224285Y-109593333D01*
X50176666Y-109498095D01*
X50176666Y-109402857D01*
X50224285Y-109307619D01*
X50271904Y-109260000D01*
X50367142Y-109212380D01*
X50605238Y-109212380D01*
X50748095Y-109260000D01*
X51081428Y-109212380D02*
X51319523Y-110212380D01*
X51510000Y-109498095D01*
X51700476Y-110212380D01*
X51938571Y-109212380D01*
X52271904Y-109307619D02*
X52319523Y-109260000D01*
X52414761Y-109212380D01*
X52652857Y-109212380D01*
X52748095Y-109260000D01*
X52795714Y-109307619D01*
X52843333Y-109402857D01*
X52843333Y-109498095D01*
X52795714Y-109640952D01*
X52224285Y-110212380D01*
X52843333Y-110212380D01*
%TO.C,SW27*%
X49700476Y-53014761D02*
X49843333Y-53062380D01*
X50081428Y-53062380D01*
X50176666Y-53014761D01*
X50224285Y-52967142D01*
X50271904Y-52871904D01*
X50271904Y-52776666D01*
X50224285Y-52681428D01*
X50176666Y-52633809D01*
X50081428Y-52586190D01*
X49890952Y-52538571D01*
X49795714Y-52490952D01*
X49748095Y-52443333D01*
X49700476Y-52348095D01*
X49700476Y-52252857D01*
X49748095Y-52157619D01*
X49795714Y-52110000D01*
X49890952Y-52062380D01*
X50129047Y-52062380D01*
X50271904Y-52110000D01*
X50605238Y-52062380D02*
X50843333Y-53062380D01*
X51033809Y-52348095D01*
X51224285Y-53062380D01*
X51462380Y-52062380D01*
X51795714Y-52157619D02*
X51843333Y-52110000D01*
X51938571Y-52062380D01*
X52176666Y-52062380D01*
X52271904Y-52110000D01*
X52319523Y-52157619D01*
X52367142Y-52252857D01*
X52367142Y-52348095D01*
X52319523Y-52490952D01*
X51748095Y-53062380D01*
X52367142Y-53062380D01*
X52700476Y-52062380D02*
X53367142Y-52062380D01*
X52938571Y-53062380D01*
%TO.C,J1*%
X32686666Y-24852380D02*
X32686666Y-25566666D01*
X32639047Y-25709523D01*
X32543809Y-25804761D01*
X32400952Y-25852380D01*
X32305714Y-25852380D01*
X33686666Y-25852380D02*
X33115238Y-25852380D01*
X33400952Y-25852380D02*
X33400952Y-24852380D01*
X33305714Y-24995238D01*
X33210476Y-25090476D01*
X33115238Y-25138095D01*
%TO.C,SW9*%
X80656666Y-98734761D02*
X80799523Y-98782380D01*
X81037619Y-98782380D01*
X81132857Y-98734761D01*
X81180476Y-98687142D01*
X81228095Y-98591904D01*
X81228095Y-98496666D01*
X81180476Y-98401428D01*
X81132857Y-98353809D01*
X81037619Y-98306190D01*
X80847142Y-98258571D01*
X80751904Y-98210952D01*
X80704285Y-98163333D01*
X80656666Y-98068095D01*
X80656666Y-97972857D01*
X80704285Y-97877619D01*
X80751904Y-97830000D01*
X80847142Y-97782380D01*
X81085238Y-97782380D01*
X81228095Y-97830000D01*
X81561428Y-97782380D02*
X81799523Y-98782380D01*
X81990000Y-98068095D01*
X82180476Y-98782380D01*
X82418571Y-97782380D01*
X82847142Y-98782380D02*
X83037619Y-98782380D01*
X83132857Y-98734761D01*
X83180476Y-98687142D01*
X83275714Y-98544285D01*
X83323333Y-98353809D01*
X83323333Y-97972857D01*
X83275714Y-97877619D01*
X83228095Y-97830000D01*
X83132857Y-97782380D01*
X82942380Y-97782380D01*
X82847142Y-97830000D01*
X82799523Y-97877619D01*
X82751904Y-97972857D01*
X82751904Y-98210952D01*
X82799523Y-98306190D01*
X82847142Y-98353809D01*
X82942380Y-98401428D01*
X83132857Y-98401428D01*
X83228095Y-98353809D01*
X83275714Y-98306190D01*
X83323333Y-98210952D01*
%TO.C,R1*%
X93813333Y-33642380D02*
X93480000Y-33166190D01*
X93241904Y-33642380D02*
X93241904Y-32642380D01*
X93622857Y-32642380D01*
X93718095Y-32690000D01*
X93765714Y-32737619D01*
X93813333Y-32832857D01*
X93813333Y-32975714D01*
X93765714Y-33070952D01*
X93718095Y-33118571D01*
X93622857Y-33166190D01*
X93241904Y-33166190D01*
X94765714Y-33642380D02*
X94194285Y-33642380D01*
X94480000Y-33642380D02*
X94480000Y-32642380D01*
X94384761Y-32785238D01*
X94289523Y-32880476D01*
X94194285Y-32928095D01*
%TO.C,SW7*%
X50176666Y-98734761D02*
X50319523Y-98782380D01*
X50557619Y-98782380D01*
X50652857Y-98734761D01*
X50700476Y-98687142D01*
X50748095Y-98591904D01*
X50748095Y-98496666D01*
X50700476Y-98401428D01*
X50652857Y-98353809D01*
X50557619Y-98306190D01*
X50367142Y-98258571D01*
X50271904Y-98210952D01*
X50224285Y-98163333D01*
X50176666Y-98068095D01*
X50176666Y-97972857D01*
X50224285Y-97877619D01*
X50271904Y-97830000D01*
X50367142Y-97782380D01*
X50605238Y-97782380D01*
X50748095Y-97830000D01*
X51081428Y-97782380D02*
X51319523Y-98782380D01*
X51510000Y-98068095D01*
X51700476Y-98782380D01*
X51938571Y-97782380D01*
X52224285Y-97782380D02*
X52890952Y-97782380D01*
X52462380Y-98782380D01*
%TO.C,SW23*%
X64940476Y-64444761D02*
X65083333Y-64492380D01*
X65321428Y-64492380D01*
X65416666Y-64444761D01*
X65464285Y-64397142D01*
X65511904Y-64301904D01*
X65511904Y-64206666D01*
X65464285Y-64111428D01*
X65416666Y-64063809D01*
X65321428Y-64016190D01*
X65130952Y-63968571D01*
X65035714Y-63920952D01*
X64988095Y-63873333D01*
X64940476Y-63778095D01*
X64940476Y-63682857D01*
X64988095Y-63587619D01*
X65035714Y-63540000D01*
X65130952Y-63492380D01*
X65369047Y-63492380D01*
X65511904Y-63540000D01*
X65845238Y-63492380D02*
X66083333Y-64492380D01*
X66273809Y-63778095D01*
X66464285Y-64492380D01*
X66702380Y-63492380D01*
X67035714Y-63587619D02*
X67083333Y-63540000D01*
X67178571Y-63492380D01*
X67416666Y-63492380D01*
X67511904Y-63540000D01*
X67559523Y-63587619D01*
X67607142Y-63682857D01*
X67607142Y-63778095D01*
X67559523Y-63920952D01*
X66988095Y-64492380D01*
X67607142Y-64492380D01*
X67940476Y-63492380D02*
X68559523Y-63492380D01*
X68226190Y-63873333D01*
X68369047Y-63873333D01*
X68464285Y-63920952D01*
X68511904Y-63968571D01*
X68559523Y-64063809D01*
X68559523Y-64301904D01*
X68511904Y-64397142D01*
X68464285Y-64444761D01*
X68369047Y-64492380D01*
X68083333Y-64492380D01*
X67988095Y-64444761D01*
X67940476Y-64397142D01*
%TO.C,SW25*%
X95420476Y-64444761D02*
X95563333Y-64492380D01*
X95801428Y-64492380D01*
X95896666Y-64444761D01*
X95944285Y-64397142D01*
X95991904Y-64301904D01*
X95991904Y-64206666D01*
X95944285Y-64111428D01*
X95896666Y-64063809D01*
X95801428Y-64016190D01*
X95610952Y-63968571D01*
X95515714Y-63920952D01*
X95468095Y-63873333D01*
X95420476Y-63778095D01*
X95420476Y-63682857D01*
X95468095Y-63587619D01*
X95515714Y-63540000D01*
X95610952Y-63492380D01*
X95849047Y-63492380D01*
X95991904Y-63540000D01*
X96325238Y-63492380D02*
X96563333Y-64492380D01*
X96753809Y-63778095D01*
X96944285Y-64492380D01*
X97182380Y-63492380D01*
X97515714Y-63587619D02*
X97563333Y-63540000D01*
X97658571Y-63492380D01*
X97896666Y-63492380D01*
X97991904Y-63540000D01*
X98039523Y-63587619D01*
X98087142Y-63682857D01*
X98087142Y-63778095D01*
X98039523Y-63920952D01*
X97468095Y-64492380D01*
X98087142Y-64492380D01*
X98991904Y-63492380D02*
X98515714Y-63492380D01*
X98468095Y-63968571D01*
X98515714Y-63920952D01*
X98610952Y-63873333D01*
X98849047Y-63873333D01*
X98944285Y-63920952D01*
X98991904Y-63968571D01*
X99039523Y-64063809D01*
X99039523Y-64301904D01*
X98991904Y-64397142D01*
X98944285Y-64444761D01*
X98849047Y-64492380D01*
X98610952Y-64492380D01*
X98515714Y-64444761D01*
X98468095Y-64397142D01*
%TO.C,SW4*%
X80656666Y-110164761D02*
X80799523Y-110212380D01*
X81037619Y-110212380D01*
X81132857Y-110164761D01*
X81180476Y-110117142D01*
X81228095Y-110021904D01*
X81228095Y-109926666D01*
X81180476Y-109831428D01*
X81132857Y-109783809D01*
X81037619Y-109736190D01*
X80847142Y-109688571D01*
X80751904Y-109640952D01*
X80704285Y-109593333D01*
X80656666Y-109498095D01*
X80656666Y-109402857D01*
X80704285Y-109307619D01*
X80751904Y-109260000D01*
X80847142Y-109212380D01*
X81085238Y-109212380D01*
X81228095Y-109260000D01*
X81561428Y-109212380D02*
X81799523Y-110212380D01*
X81990000Y-109498095D01*
X82180476Y-110212380D01*
X82418571Y-109212380D01*
X83228095Y-109545714D02*
X83228095Y-110212380D01*
X82990000Y-109164761D02*
X82751904Y-109879047D01*
X83370952Y-109879047D01*
%TO.C,C2*%
X65380333Y-32919198D02*
X65332714Y-32966817D01*
X65189857Y-33014436D01*
X65094619Y-33014436D01*
X64951761Y-32966817D01*
X64856523Y-32871579D01*
X64808904Y-32776341D01*
X64761285Y-32585865D01*
X64761285Y-32443008D01*
X64808904Y-32252532D01*
X64856523Y-32157294D01*
X64951761Y-32062056D01*
X65094619Y-32014436D01*
X65189857Y-32014436D01*
X65332714Y-32062056D01*
X65380333Y-32109675D01*
X65761285Y-32109675D02*
X65808904Y-32062056D01*
X65904142Y-32014436D01*
X66142238Y-32014436D01*
X66237476Y-32062056D01*
X66285095Y-32109675D01*
X66332714Y-32204913D01*
X66332714Y-32300151D01*
X66285095Y-32443008D01*
X65713666Y-33014436D01*
X66332714Y-33014436D01*
%TO.C,SW24*%
X80180476Y-64444761D02*
X80323333Y-64492380D01*
X80561428Y-64492380D01*
X80656666Y-64444761D01*
X80704285Y-64397142D01*
X80751904Y-64301904D01*
X80751904Y-64206666D01*
X80704285Y-64111428D01*
X80656666Y-64063809D01*
X80561428Y-64016190D01*
X80370952Y-63968571D01*
X80275714Y-63920952D01*
X80228095Y-63873333D01*
X80180476Y-63778095D01*
X80180476Y-63682857D01*
X80228095Y-63587619D01*
X80275714Y-63540000D01*
X80370952Y-63492380D01*
X80609047Y-63492380D01*
X80751904Y-63540000D01*
X81085238Y-63492380D02*
X81323333Y-64492380D01*
X81513809Y-63778095D01*
X81704285Y-64492380D01*
X81942380Y-63492380D01*
X82275714Y-63587619D02*
X82323333Y-63540000D01*
X82418571Y-63492380D01*
X82656666Y-63492380D01*
X82751904Y-63540000D01*
X82799523Y-63587619D01*
X82847142Y-63682857D01*
X82847142Y-63778095D01*
X82799523Y-63920952D01*
X82228095Y-64492380D01*
X82847142Y-64492380D01*
X83704285Y-63825714D02*
X83704285Y-64492380D01*
X83466190Y-63444761D02*
X83228095Y-64159047D01*
X83847142Y-64159047D01*
%TO.C,SW15*%
X95420476Y-87304761D02*
X95563333Y-87352380D01*
X95801428Y-87352380D01*
X95896666Y-87304761D01*
X95944285Y-87257142D01*
X95991904Y-87161904D01*
X95991904Y-87066666D01*
X95944285Y-86971428D01*
X95896666Y-86923809D01*
X95801428Y-86876190D01*
X95610952Y-86828571D01*
X95515714Y-86780952D01*
X95468095Y-86733333D01*
X95420476Y-86638095D01*
X95420476Y-86542857D01*
X95468095Y-86447619D01*
X95515714Y-86400000D01*
X95610952Y-86352380D01*
X95849047Y-86352380D01*
X95991904Y-86400000D01*
X96325238Y-86352380D02*
X96563333Y-87352380D01*
X96753809Y-86638095D01*
X96944285Y-87352380D01*
X97182380Y-86352380D01*
X98087142Y-87352380D02*
X97515714Y-87352380D01*
X97801428Y-87352380D02*
X97801428Y-86352380D01*
X97706190Y-86495238D01*
X97610952Y-86590476D01*
X97515714Y-86638095D01*
X98991904Y-86352380D02*
X98515714Y-86352380D01*
X98468095Y-86828571D01*
X98515714Y-86780952D01*
X98610952Y-86733333D01*
X98849047Y-86733333D01*
X98944285Y-86780952D01*
X98991904Y-86828571D01*
X99039523Y-86923809D01*
X99039523Y-87161904D01*
X98991904Y-87257142D01*
X98944285Y-87304761D01*
X98849047Y-87352380D01*
X98610952Y-87352380D01*
X98515714Y-87304761D01*
X98468095Y-87257142D01*
%TO.C,SW34*%
X80180476Y-41584761D02*
X80323333Y-41632380D01*
X80561428Y-41632380D01*
X80656666Y-41584761D01*
X80704285Y-41537142D01*
X80751904Y-41441904D01*
X80751904Y-41346666D01*
X80704285Y-41251428D01*
X80656666Y-41203809D01*
X80561428Y-41156190D01*
X80370952Y-41108571D01*
X80275714Y-41060952D01*
X80228095Y-41013333D01*
X80180476Y-40918095D01*
X80180476Y-40822857D01*
X80228095Y-40727619D01*
X80275714Y-40680000D01*
X80370952Y-40632380D01*
X80609047Y-40632380D01*
X80751904Y-40680000D01*
X81085238Y-40632380D02*
X81323333Y-41632380D01*
X81513809Y-40918095D01*
X81704285Y-41632380D01*
X81942380Y-40632380D01*
X82228095Y-40632380D02*
X82847142Y-40632380D01*
X82513809Y-41013333D01*
X82656666Y-41013333D01*
X82751904Y-41060952D01*
X82799523Y-41108571D01*
X82847142Y-41203809D01*
X82847142Y-41441904D01*
X82799523Y-41537142D01*
X82751904Y-41584761D01*
X82656666Y-41632380D01*
X82370952Y-41632380D01*
X82275714Y-41584761D01*
X82228095Y-41537142D01*
X83704285Y-40965714D02*
X83704285Y-41632380D01*
X83466190Y-40584761D02*
X83228095Y-41299047D01*
X83847142Y-41299047D01*
%TO.C,C5*%
X106513333Y-56237142D02*
X106465714Y-56284761D01*
X106322857Y-56332380D01*
X106227619Y-56332380D01*
X106084761Y-56284761D01*
X105989523Y-56189523D01*
X105941904Y-56094285D01*
X105894285Y-55903809D01*
X105894285Y-55760952D01*
X105941904Y-55570476D01*
X105989523Y-55475238D01*
X106084761Y-55380000D01*
X106227619Y-55332380D01*
X106322857Y-55332380D01*
X106465714Y-55380000D01*
X106513333Y-55427619D01*
X107418095Y-55332380D02*
X106941904Y-55332380D01*
X106894285Y-55808571D01*
X106941904Y-55760952D01*
X107037142Y-55713333D01*
X107275238Y-55713333D01*
X107370476Y-55760952D01*
X107418095Y-55808571D01*
X107465714Y-55903809D01*
X107465714Y-56141904D01*
X107418095Y-56237142D01*
X107370476Y-56284761D01*
X107275238Y-56332380D01*
X107037142Y-56332380D01*
X106941904Y-56284761D01*
X106894285Y-56237142D01*
%TO.C,C4*%
X115403333Y-101957142D02*
X115355714Y-102004761D01*
X115212857Y-102052380D01*
X115117619Y-102052380D01*
X114974761Y-102004761D01*
X114879523Y-101909523D01*
X114831904Y-101814285D01*
X114784285Y-101623809D01*
X114784285Y-101480952D01*
X114831904Y-101290476D01*
X114879523Y-101195238D01*
X114974761Y-101100000D01*
X115117619Y-101052380D01*
X115212857Y-101052380D01*
X115355714Y-101100000D01*
X115403333Y-101147619D01*
X116260476Y-101385714D02*
X116260476Y-102052380D01*
X116022380Y-101004761D02*
X115784285Y-101719047D01*
X116403333Y-101719047D01*
%TO.C,SW18*%
X64940476Y-75874761D02*
X65083333Y-75922380D01*
X65321428Y-75922380D01*
X65416666Y-75874761D01*
X65464285Y-75827142D01*
X65511904Y-75731904D01*
X65511904Y-75636666D01*
X65464285Y-75541428D01*
X65416666Y-75493809D01*
X65321428Y-75446190D01*
X65130952Y-75398571D01*
X65035714Y-75350952D01*
X64988095Y-75303333D01*
X64940476Y-75208095D01*
X64940476Y-75112857D01*
X64988095Y-75017619D01*
X65035714Y-74970000D01*
X65130952Y-74922380D01*
X65369047Y-74922380D01*
X65511904Y-74970000D01*
X65845238Y-74922380D02*
X66083333Y-75922380D01*
X66273809Y-75208095D01*
X66464285Y-75922380D01*
X66702380Y-74922380D01*
X67607142Y-75922380D02*
X67035714Y-75922380D01*
X67321428Y-75922380D02*
X67321428Y-74922380D01*
X67226190Y-75065238D01*
X67130952Y-75160476D01*
X67035714Y-75208095D01*
X68178571Y-75350952D02*
X68083333Y-75303333D01*
X68035714Y-75255714D01*
X67988095Y-75160476D01*
X67988095Y-75112857D01*
X68035714Y-75017619D01*
X68083333Y-74970000D01*
X68178571Y-74922380D01*
X68369047Y-74922380D01*
X68464285Y-74970000D01*
X68511904Y-75017619D01*
X68559523Y-75112857D01*
X68559523Y-75160476D01*
X68511904Y-75255714D01*
X68464285Y-75303333D01*
X68369047Y-75350952D01*
X68178571Y-75350952D01*
X68083333Y-75398571D01*
X68035714Y-75446190D01*
X67988095Y-75541428D01*
X67988095Y-75731904D01*
X68035714Y-75827142D01*
X68083333Y-75874761D01*
X68178571Y-75922380D01*
X68369047Y-75922380D01*
X68464285Y-75874761D01*
X68511904Y-75827142D01*
X68559523Y-75731904D01*
X68559523Y-75541428D01*
X68511904Y-75446190D01*
X68464285Y-75398571D01*
X68369047Y-75350952D01*
%TO.C,SW29*%
X80180476Y-53014761D02*
X80323333Y-53062380D01*
X80561428Y-53062380D01*
X80656666Y-53014761D01*
X80704285Y-52967142D01*
X80751904Y-52871904D01*
X80751904Y-52776666D01*
X80704285Y-52681428D01*
X80656666Y-52633809D01*
X80561428Y-52586190D01*
X80370952Y-52538571D01*
X80275714Y-52490952D01*
X80228095Y-52443333D01*
X80180476Y-52348095D01*
X80180476Y-52252857D01*
X80228095Y-52157619D01*
X80275714Y-52110000D01*
X80370952Y-52062380D01*
X80609047Y-52062380D01*
X80751904Y-52110000D01*
X81085238Y-52062380D02*
X81323333Y-53062380D01*
X81513809Y-52348095D01*
X81704285Y-53062380D01*
X81942380Y-52062380D01*
X82275714Y-52157619D02*
X82323333Y-52110000D01*
X82418571Y-52062380D01*
X82656666Y-52062380D01*
X82751904Y-52110000D01*
X82799523Y-52157619D01*
X82847142Y-52252857D01*
X82847142Y-52348095D01*
X82799523Y-52490952D01*
X82228095Y-53062380D01*
X82847142Y-53062380D01*
X83323333Y-53062380D02*
X83513809Y-53062380D01*
X83609047Y-53014761D01*
X83656666Y-52967142D01*
X83751904Y-52824285D01*
X83799523Y-52633809D01*
X83799523Y-52252857D01*
X83751904Y-52157619D01*
X83704285Y-52110000D01*
X83609047Y-52062380D01*
X83418571Y-52062380D01*
X83323333Y-52110000D01*
X83275714Y-52157619D01*
X83228095Y-52252857D01*
X83228095Y-52490952D01*
X83275714Y-52586190D01*
X83323333Y-52633809D01*
X83418571Y-52681428D01*
X83609047Y-52681428D01*
X83704285Y-52633809D01*
X83751904Y-52586190D01*
X83799523Y-52490952D01*
%TO.C,U1*%
X52495095Y-28958488D02*
X52495095Y-29768012D01*
X52542714Y-29863250D01*
X52590333Y-29910869D01*
X52685571Y-29958488D01*
X52876047Y-29958488D01*
X52971285Y-29910869D01*
X53018904Y-29863250D01*
X53066523Y-29768012D01*
X53066523Y-28958488D01*
X54066523Y-29958488D02*
X53495095Y-29958488D01*
X53780809Y-29958488D02*
X53780809Y-28958488D01*
X53685571Y-29101346D01*
X53590333Y-29196584D01*
X53495095Y-29244203D01*
%TO.C,R2*%
X118097380Y-42606666D02*
X117621190Y-42940000D01*
X118097380Y-43178095D02*
X117097380Y-43178095D01*
X117097380Y-42797142D01*
X117145000Y-42701904D01*
X117192619Y-42654285D01*
X117287857Y-42606666D01*
X117430714Y-42606666D01*
X117525952Y-42654285D01*
X117573571Y-42701904D01*
X117621190Y-42797142D01*
X117621190Y-43178095D01*
X117192619Y-42225714D02*
X117145000Y-42178095D01*
X117097380Y-42082857D01*
X117097380Y-41844761D01*
X117145000Y-41749523D01*
X117192619Y-41701904D01*
X117287857Y-41654285D01*
X117383095Y-41654285D01*
X117525952Y-41701904D01*
X118097380Y-42273333D01*
X118097380Y-41654285D01*
%TO.C,SW5*%
X95896666Y-110164761D02*
X96039523Y-110212380D01*
X96277619Y-110212380D01*
X96372857Y-110164761D01*
X96420476Y-110117142D01*
X96468095Y-110021904D01*
X96468095Y-109926666D01*
X96420476Y-109831428D01*
X96372857Y-109783809D01*
X96277619Y-109736190D01*
X96087142Y-109688571D01*
X95991904Y-109640952D01*
X95944285Y-109593333D01*
X95896666Y-109498095D01*
X95896666Y-109402857D01*
X95944285Y-109307619D01*
X95991904Y-109260000D01*
X96087142Y-109212380D01*
X96325238Y-109212380D01*
X96468095Y-109260000D01*
X96801428Y-109212380D02*
X97039523Y-110212380D01*
X97230000Y-109498095D01*
X97420476Y-110212380D01*
X97658571Y-109212380D01*
X98515714Y-109212380D02*
X98039523Y-109212380D01*
X97991904Y-109688571D01*
X98039523Y-109640952D01*
X98134761Y-109593333D01*
X98372857Y-109593333D01*
X98468095Y-109640952D01*
X98515714Y-109688571D01*
X98563333Y-109783809D01*
X98563333Y-110021904D01*
X98515714Y-110117142D01*
X98468095Y-110164761D01*
X98372857Y-110212380D01*
X98134761Y-110212380D01*
X98039523Y-110164761D01*
X97991904Y-110117142D01*
%TO.C,SW8*%
X65416666Y-98734761D02*
X65559523Y-98782380D01*
X65797619Y-98782380D01*
X65892857Y-98734761D01*
X65940476Y-98687142D01*
X65988095Y-98591904D01*
X65988095Y-98496666D01*
X65940476Y-98401428D01*
X65892857Y-98353809D01*
X65797619Y-98306190D01*
X65607142Y-98258571D01*
X65511904Y-98210952D01*
X65464285Y-98163333D01*
X65416666Y-98068095D01*
X65416666Y-97972857D01*
X65464285Y-97877619D01*
X65511904Y-97830000D01*
X65607142Y-97782380D01*
X65845238Y-97782380D01*
X65988095Y-97830000D01*
X66321428Y-97782380D02*
X66559523Y-98782380D01*
X66750000Y-98068095D01*
X66940476Y-98782380D01*
X67178571Y-97782380D01*
X67702380Y-98210952D02*
X67607142Y-98163333D01*
X67559523Y-98115714D01*
X67511904Y-98020476D01*
X67511904Y-97972857D01*
X67559523Y-97877619D01*
X67607142Y-97830000D01*
X67702380Y-97782380D01*
X67892857Y-97782380D01*
X67988095Y-97830000D01*
X68035714Y-97877619D01*
X68083333Y-97972857D01*
X68083333Y-98020476D01*
X68035714Y-98115714D01*
X67988095Y-98163333D01*
X67892857Y-98210952D01*
X67702380Y-98210952D01*
X67607142Y-98258571D01*
X67559523Y-98306190D01*
X67511904Y-98401428D01*
X67511904Y-98591904D01*
X67559523Y-98687142D01*
X67607142Y-98734761D01*
X67702380Y-98782380D01*
X67892857Y-98782380D01*
X67988095Y-98734761D01*
X68035714Y-98687142D01*
X68083333Y-98591904D01*
X68083333Y-98401428D01*
X68035714Y-98306190D01*
X67988095Y-98258571D01*
X67892857Y-98210952D01*
%TO.C,SW17*%
X49700476Y-75874761D02*
X49843333Y-75922380D01*
X50081428Y-75922380D01*
X50176666Y-75874761D01*
X50224285Y-75827142D01*
X50271904Y-75731904D01*
X50271904Y-75636666D01*
X50224285Y-75541428D01*
X50176666Y-75493809D01*
X50081428Y-75446190D01*
X49890952Y-75398571D01*
X49795714Y-75350952D01*
X49748095Y-75303333D01*
X49700476Y-75208095D01*
X49700476Y-75112857D01*
X49748095Y-75017619D01*
X49795714Y-74970000D01*
X49890952Y-74922380D01*
X50129047Y-74922380D01*
X50271904Y-74970000D01*
X50605238Y-74922380D02*
X50843333Y-75922380D01*
X51033809Y-75208095D01*
X51224285Y-75922380D01*
X51462380Y-74922380D01*
X52367142Y-75922380D02*
X51795714Y-75922380D01*
X52081428Y-75922380D02*
X52081428Y-74922380D01*
X51986190Y-75065238D01*
X51890952Y-75160476D01*
X51795714Y-75208095D01*
X52700476Y-74922380D02*
X53367142Y-74922380D01*
X52938571Y-75922380D01*
%TO.C,SW21*%
X34460476Y-64444761D02*
X34603333Y-64492380D01*
X34841428Y-64492380D01*
X34936666Y-64444761D01*
X34984285Y-64397142D01*
X35031904Y-64301904D01*
X35031904Y-64206666D01*
X34984285Y-64111428D01*
X34936666Y-64063809D01*
X34841428Y-64016190D01*
X34650952Y-63968571D01*
X34555714Y-63920952D01*
X34508095Y-63873333D01*
X34460476Y-63778095D01*
X34460476Y-63682857D01*
X34508095Y-63587619D01*
X34555714Y-63540000D01*
X34650952Y-63492380D01*
X34889047Y-63492380D01*
X35031904Y-63540000D01*
X35365238Y-63492380D02*
X35603333Y-64492380D01*
X35793809Y-63778095D01*
X35984285Y-64492380D01*
X36222380Y-63492380D01*
X36555714Y-63587619D02*
X36603333Y-63540000D01*
X36698571Y-63492380D01*
X36936666Y-63492380D01*
X37031904Y-63540000D01*
X37079523Y-63587619D01*
X37127142Y-63682857D01*
X37127142Y-63778095D01*
X37079523Y-63920952D01*
X36508095Y-64492380D01*
X37127142Y-64492380D01*
X38079523Y-64492380D02*
X37508095Y-64492380D01*
X37793809Y-64492380D02*
X37793809Y-63492380D01*
X37698571Y-63635238D01*
X37603333Y-63730476D01*
X37508095Y-63778095D01*
%TO.C,SW32*%
X49700476Y-41584761D02*
X49843333Y-41632380D01*
X50081428Y-41632380D01*
X50176666Y-41584761D01*
X50224285Y-41537142D01*
X50271904Y-41441904D01*
X50271904Y-41346666D01*
X50224285Y-41251428D01*
X50176666Y-41203809D01*
X50081428Y-41156190D01*
X49890952Y-41108571D01*
X49795714Y-41060952D01*
X49748095Y-41013333D01*
X49700476Y-40918095D01*
X49700476Y-40822857D01*
X49748095Y-40727619D01*
X49795714Y-40680000D01*
X49890952Y-40632380D01*
X50129047Y-40632380D01*
X50271904Y-40680000D01*
X50605238Y-40632380D02*
X50843333Y-41632380D01*
X51033809Y-40918095D01*
X51224285Y-41632380D01*
X51462380Y-40632380D01*
X51748095Y-40632380D02*
X52367142Y-40632380D01*
X52033809Y-41013333D01*
X52176666Y-41013333D01*
X52271904Y-41060952D01*
X52319523Y-41108571D01*
X52367142Y-41203809D01*
X52367142Y-41441904D01*
X52319523Y-41537142D01*
X52271904Y-41584761D01*
X52176666Y-41632380D01*
X51890952Y-41632380D01*
X51795714Y-41584761D01*
X51748095Y-41537142D01*
X52748095Y-40727619D02*
X52795714Y-40680000D01*
X52890952Y-40632380D01*
X53129047Y-40632380D01*
X53224285Y-40680000D01*
X53271904Y-40727619D01*
X53319523Y-40822857D01*
X53319523Y-40918095D01*
X53271904Y-41060952D01*
X52700476Y-41632380D01*
X53319523Y-41632380D01*
%TO.C,SW11*%
X34460476Y-87304761D02*
X34603333Y-87352380D01*
X34841428Y-87352380D01*
X34936666Y-87304761D01*
X34984285Y-87257142D01*
X35031904Y-87161904D01*
X35031904Y-87066666D01*
X34984285Y-86971428D01*
X34936666Y-86923809D01*
X34841428Y-86876190D01*
X34650952Y-86828571D01*
X34555714Y-86780952D01*
X34508095Y-86733333D01*
X34460476Y-86638095D01*
X34460476Y-86542857D01*
X34508095Y-86447619D01*
X34555714Y-86400000D01*
X34650952Y-86352380D01*
X34889047Y-86352380D01*
X35031904Y-86400000D01*
X35365238Y-86352380D02*
X35603333Y-87352380D01*
X35793809Y-86638095D01*
X35984285Y-87352380D01*
X36222380Y-86352380D01*
X37127142Y-87352380D02*
X36555714Y-87352380D01*
X36841428Y-87352380D02*
X36841428Y-86352380D01*
X36746190Y-86495238D01*
X36650952Y-86590476D01*
X36555714Y-86638095D01*
X38079523Y-87352380D02*
X37508095Y-87352380D01*
X37793809Y-87352380D02*
X37793809Y-86352380D01*
X37698571Y-86495238D01*
X37603333Y-86590476D01*
X37508095Y-86638095D01*
%TO.C,SW14*%
X80180476Y-87304761D02*
X80323333Y-87352380D01*
X80561428Y-87352380D01*
X80656666Y-87304761D01*
X80704285Y-87257142D01*
X80751904Y-87161904D01*
X80751904Y-87066666D01*
X80704285Y-86971428D01*
X80656666Y-86923809D01*
X80561428Y-86876190D01*
X80370952Y-86828571D01*
X80275714Y-86780952D01*
X80228095Y-86733333D01*
X80180476Y-86638095D01*
X80180476Y-86542857D01*
X80228095Y-86447619D01*
X80275714Y-86400000D01*
X80370952Y-86352380D01*
X80609047Y-86352380D01*
X80751904Y-86400000D01*
X81085238Y-86352380D02*
X81323333Y-87352380D01*
X81513809Y-86638095D01*
X81704285Y-87352380D01*
X81942380Y-86352380D01*
X82847142Y-87352380D02*
X82275714Y-87352380D01*
X82561428Y-87352380D02*
X82561428Y-86352380D01*
X82466190Y-86495238D01*
X82370952Y-86590476D01*
X82275714Y-86638095D01*
X83704285Y-86685714D02*
X83704285Y-87352380D01*
X83466190Y-86304761D02*
X83228095Y-87019047D01*
X83847142Y-87019047D01*
%TO.C,C3*%
X111603333Y-101957142D02*
X111555714Y-102004761D01*
X111412857Y-102052380D01*
X111317619Y-102052380D01*
X111174761Y-102004761D01*
X111079523Y-101909523D01*
X111031904Y-101814285D01*
X110984285Y-101623809D01*
X110984285Y-101480952D01*
X111031904Y-101290476D01*
X111079523Y-101195238D01*
X111174761Y-101100000D01*
X111317619Y-101052380D01*
X111412857Y-101052380D01*
X111555714Y-101100000D01*
X111603333Y-101147619D01*
X111936666Y-101052380D02*
X112555714Y-101052380D01*
X112222380Y-101433333D01*
X112365238Y-101433333D01*
X112460476Y-101480952D01*
X112508095Y-101528571D01*
X112555714Y-101623809D01*
X112555714Y-101861904D01*
X112508095Y-101957142D01*
X112460476Y-102004761D01*
X112365238Y-102052380D01*
X112079523Y-102052380D01*
X111984285Y-102004761D01*
X111936666Y-101957142D01*
%TO.C,C1*%
X46823333Y-36552142D02*
X46775714Y-36599761D01*
X46632857Y-36647380D01*
X46537619Y-36647380D01*
X46394761Y-36599761D01*
X46299523Y-36504523D01*
X46251904Y-36409285D01*
X46204285Y-36218809D01*
X46204285Y-36075952D01*
X46251904Y-35885476D01*
X46299523Y-35790238D01*
X46394761Y-35695000D01*
X46537619Y-35647380D01*
X46632857Y-35647380D01*
X46775714Y-35695000D01*
X46823333Y-35742619D01*
X47775714Y-36647380D02*
X47204285Y-36647380D01*
X47490000Y-36647380D02*
X47490000Y-35647380D01*
X47394761Y-35790238D01*
X47299523Y-35885476D01*
X47204285Y-35933095D01*
%TO.C,C8*%
X32853333Y-37822142D02*
X32805714Y-37869761D01*
X32662857Y-37917380D01*
X32567619Y-37917380D01*
X32424761Y-37869761D01*
X32329523Y-37774523D01*
X32281904Y-37679285D01*
X32234285Y-37488809D01*
X32234285Y-37345952D01*
X32281904Y-37155476D01*
X32329523Y-37060238D01*
X32424761Y-36965000D01*
X32567619Y-36917380D01*
X32662857Y-36917380D01*
X32805714Y-36965000D01*
X32853333Y-37012619D01*
X33424761Y-37345952D02*
X33329523Y-37298333D01*
X33281904Y-37250714D01*
X33234285Y-37155476D01*
X33234285Y-37107857D01*
X33281904Y-37012619D01*
X33329523Y-36965000D01*
X33424761Y-36917380D01*
X33615238Y-36917380D01*
X33710476Y-36965000D01*
X33758095Y-37012619D01*
X33805714Y-37107857D01*
X33805714Y-37155476D01*
X33758095Y-37250714D01*
X33710476Y-37298333D01*
X33615238Y-37345952D01*
X33424761Y-37345952D01*
X33329523Y-37393571D01*
X33281904Y-37441190D01*
X33234285Y-37536428D01*
X33234285Y-37726904D01*
X33281904Y-37822142D01*
X33329523Y-37869761D01*
X33424761Y-37917380D01*
X33615238Y-37917380D01*
X33710476Y-37869761D01*
X33758095Y-37822142D01*
X33805714Y-37726904D01*
X33805714Y-37536428D01*
X33758095Y-37441190D01*
X33710476Y-37393571D01*
X33615238Y-37345952D01*
%TO.C,G\u002A\u002A\u002A*%
G36*
X65805650Y-32351285D02*
G01*
X66154717Y-32351285D01*
X66183672Y-32478715D01*
X66235631Y-32590493D01*
X66264796Y-32545197D01*
X66277816Y-32484206D01*
X66280775Y-32329629D01*
X66259151Y-32279595D01*
X66181284Y-32257172D01*
X66154717Y-32351285D01*
X65805650Y-32351285D01*
X65827082Y-32088666D01*
X66124667Y-32088666D01*
X66155645Y-32158356D01*
X66181111Y-32145111D01*
X66191244Y-32044631D01*
X66181111Y-32032222D01*
X66130777Y-32043844D01*
X66124667Y-32088666D01*
X65827082Y-32088666D01*
X65837166Y-31965103D01*
X65910059Y-31735154D01*
X66332641Y-31735154D01*
X66335124Y-31937901D01*
X66364422Y-32179856D01*
X66414149Y-32398300D01*
X66450598Y-32490975D01*
X66524154Y-32704338D01*
X66590119Y-33020976D01*
X66636576Y-33374887D01*
X66650854Y-33600004D01*
X66673476Y-33783904D01*
X66717995Y-33866340D01*
X66721111Y-33866666D01*
X66801234Y-33928921D01*
X66947601Y-34091123D01*
X67105946Y-34289110D01*
X67313963Y-34529918D01*
X67456401Y-34617287D01*
X67537808Y-34551908D01*
X67562703Y-34358339D01*
X67523265Y-34192664D01*
X67424678Y-33971696D01*
X67404441Y-33935006D01*
X67304234Y-33675060D01*
X67232977Y-33288029D01*
X67191746Y-32839184D01*
X67158594Y-32451030D01*
X67139790Y-32300333D01*
X67241839Y-32300333D01*
X67250990Y-32444929D01*
X67277495Y-32457659D01*
X67280869Y-32450111D01*
X67297618Y-32282032D01*
X67284006Y-32196111D01*
X67257056Y-32161584D01*
X67242397Y-32274040D01*
X67241839Y-32300333D01*
X67139790Y-32300333D01*
X67114508Y-32097721D01*
X67089955Y-31961666D01*
X67225333Y-31961666D01*
X67267667Y-32004000D01*
X67310000Y-31961666D01*
X67267667Y-31919333D01*
X67225333Y-31961666D01*
X67089955Y-31961666D01*
X67066834Y-31833555D01*
X67045100Y-31755125D01*
X67003324Y-31661958D01*
X67521688Y-31661958D01*
X67582419Y-31790282D01*
X67657725Y-31834666D01*
X67725583Y-31766309D01*
X67733333Y-31712663D01*
X67687489Y-31576028D01*
X67590702Y-31524108D01*
X67539309Y-31548912D01*
X67521688Y-31661958D01*
X67003324Y-31661958D01*
X66964384Y-31575119D01*
X66855833Y-31520301D01*
X66686295Y-31543730D01*
X66484203Y-31593177D01*
X66364605Y-31633623D01*
X66363361Y-31634330D01*
X66332641Y-31735154D01*
X65910059Y-31735154D01*
X65983343Y-31503975D01*
X66236785Y-31104438D01*
X66316225Y-31012481D01*
X66426218Y-30862835D01*
X66433116Y-30719060D01*
X66377052Y-30560770D01*
X66267732Y-30342585D01*
X66157241Y-30186012D01*
X66155988Y-30184749D01*
X66110134Y-30102478D01*
X66181151Y-30028750D01*
X66359746Y-29948282D01*
X66648431Y-29847290D01*
X66929982Y-29768451D01*
X66952919Y-29763323D01*
X67230837Y-29703336D01*
X67030530Y-29919472D01*
X66881897Y-30125137D01*
X66834577Y-30292705D01*
X66894754Y-30386475D01*
X66948108Y-30395333D01*
X67022977Y-30442238D01*
X67011126Y-30484111D01*
X66919952Y-30525959D01*
X66815157Y-30449121D01*
X66736175Y-30295717D01*
X66717333Y-30170320D01*
X66698227Y-30028509D01*
X66613323Y-30024443D01*
X66554663Y-30053100D01*
X66452574Y-30133735D01*
X66434341Y-30257995D01*
X66477003Y-30448045D01*
X66523158Y-30694757D01*
X66524639Y-30895026D01*
X66520600Y-30914298D01*
X66528426Y-31037578D01*
X66665150Y-31072644D01*
X66671111Y-31072666D01*
X66858098Y-31119156D01*
X67097387Y-31235742D01*
X67182109Y-31289194D01*
X67374808Y-31408618D01*
X67454193Y-31424194D01*
X67447924Y-31366936D01*
X67401058Y-31159309D01*
X67394667Y-31065741D01*
X67344961Y-30940370D01*
X67173017Y-30903342D01*
X67168889Y-30903333D01*
X67005755Y-30891253D01*
X66986064Y-30862548D01*
X67086243Y-30828521D01*
X67282720Y-30800476D01*
X67399682Y-30792663D01*
X67612609Y-30759240D01*
X67761441Y-30696188D01*
X67820329Y-30627370D01*
X67763425Y-30576647D01*
X67646664Y-30564666D01*
X67512773Y-30531376D01*
X67512608Y-30430741D01*
X67557436Y-30295774D01*
X67564000Y-30261408D01*
X67635238Y-30232590D01*
X67733333Y-30226000D01*
X67863750Y-30178964D01*
X67908605Y-30012575D01*
X67909351Y-29993166D01*
X67916035Y-29760333D01*
X68005705Y-30007063D01*
X68051915Y-30250863D01*
X67999021Y-30408081D01*
X67919044Y-30589907D01*
X67902667Y-30683462D01*
X67831408Y-30796474D01*
X67669833Y-30889593D01*
X67538774Y-30951305D01*
X67569629Y-30980091D01*
X67587262Y-30981315D01*
X67699246Y-31023445D01*
X67789974Y-31153479D01*
X67867429Y-31393606D01*
X67939595Y-31766014D01*
X67988320Y-32095876D01*
X68056356Y-32492116D01*
X68146622Y-32885962D01*
X68240842Y-33198804D01*
X68250971Y-33225688D01*
X68436404Y-33896570D01*
X68465988Y-34571503D01*
X68340204Y-35279418D01*
X68288223Y-35453469D01*
X68179993Y-35807682D01*
X68122694Y-36060243D01*
X68110342Y-36268978D01*
X68136952Y-36491717D01*
X68165544Y-36638802D01*
X68205586Y-36890103D01*
X68221486Y-37166084D01*
X68212752Y-37506097D01*
X68178887Y-37949494D01*
X68144735Y-38296666D01*
X68105155Y-38722569D01*
X68080107Y-39084914D01*
X68071113Y-39352167D01*
X68079696Y-39492794D01*
X68086364Y-39505877D01*
X68118342Y-39606322D01*
X68105994Y-39657533D01*
X68145184Y-39757301D01*
X68334456Y-39824657D01*
X68560752Y-39891165D01*
X68720097Y-39973536D01*
X68808696Y-40122603D01*
X68829488Y-40315022D01*
X68781309Y-40472653D01*
X68728167Y-40515100D01*
X68562368Y-40553736D01*
X68337525Y-40581139D01*
X68113415Y-40593571D01*
X67949817Y-40587295D01*
X67902667Y-40566708D01*
X67827553Y-40539389D01*
X67638280Y-40534931D01*
X67538029Y-40540780D01*
X67260270Y-40537109D01*
X67090618Y-40462357D01*
X67051196Y-40421788D01*
X66981651Y-40288978D01*
X67022995Y-40242121D01*
X67067383Y-40165484D01*
X67053510Y-39969975D01*
X67003151Y-39726723D01*
X66940402Y-39366748D01*
X66898489Y-38948020D01*
X66887989Y-38673326D01*
X66869621Y-38339425D01*
X66809580Y-37982242D01*
X66698115Y-37555675D01*
X66556607Y-37106993D01*
X66221610Y-35848289D01*
X66087726Y-35052000D01*
X66021173Y-34544456D01*
X65949904Y-34000668D01*
X65883620Y-33494666D01*
X65842665Y-33181834D01*
X65814428Y-32808333D01*
X66294000Y-32808333D01*
X66336333Y-32850666D01*
X66378667Y-32808333D01*
X66336333Y-32766000D01*
X66294000Y-32808333D01*
X65814428Y-32808333D01*
X65792270Y-32515247D01*
X65805650Y-32351285D01*
G37*
D11*
X65805650Y-32351285D02*
X66154717Y-32351285D01*
X66183672Y-32478715D01*
X66235631Y-32590493D01*
X66264796Y-32545197D01*
X66277816Y-32484206D01*
X66280775Y-32329629D01*
X66259151Y-32279595D01*
X66181284Y-32257172D01*
X66154717Y-32351285D01*
X65805650Y-32351285D01*
X65827082Y-32088666D01*
X66124667Y-32088666D01*
X66155645Y-32158356D01*
X66181111Y-32145111D01*
X66191244Y-32044631D01*
X66181111Y-32032222D01*
X66130777Y-32043844D01*
X66124667Y-32088666D01*
X65827082Y-32088666D01*
X65837166Y-31965103D01*
X65910059Y-31735154D01*
X66332641Y-31735154D01*
X66335124Y-31937901D01*
X66364422Y-32179856D01*
X66414149Y-32398300D01*
X66450598Y-32490975D01*
X66524154Y-32704338D01*
X66590119Y-33020976D01*
X66636576Y-33374887D01*
X66650854Y-33600004D01*
X66673476Y-33783904D01*
X66717995Y-33866340D01*
X66721111Y-33866666D01*
X66801234Y-33928921D01*
X66947601Y-34091123D01*
X67105946Y-34289110D01*
X67313963Y-34529918D01*
X67456401Y-34617287D01*
X67537808Y-34551908D01*
X67562703Y-34358339D01*
X67523265Y-34192664D01*
X67424678Y-33971696D01*
X67404441Y-33935006D01*
X67304234Y-33675060D01*
X67232977Y-33288029D01*
X67191746Y-32839184D01*
X67158594Y-32451030D01*
X67139790Y-32300333D01*
X67241839Y-32300333D01*
X67250990Y-32444929D01*
X67277495Y-32457659D01*
X67280869Y-32450111D01*
X67297618Y-32282032D01*
X67284006Y-32196111D01*
X67257056Y-32161584D01*
X67242397Y-32274040D01*
X67241839Y-32300333D01*
X67139790Y-32300333D01*
X67114508Y-32097721D01*
X67089955Y-31961666D01*
X67225333Y-31961666D01*
X67267667Y-32004000D01*
X67310000Y-31961666D01*
X67267667Y-31919333D01*
X67225333Y-31961666D01*
X67089955Y-31961666D01*
X67066834Y-31833555D01*
X67045100Y-31755125D01*
X67003324Y-31661958D01*
X67521688Y-31661958D01*
X67582419Y-31790282D01*
X67657725Y-31834666D01*
X67725583Y-31766309D01*
X67733333Y-31712663D01*
X67687489Y-31576028D01*
X67590702Y-31524108D01*
X67539309Y-31548912D01*
X67521688Y-31661958D01*
X67003324Y-31661958D01*
X66964384Y-31575119D01*
X66855833Y-31520301D01*
X66686295Y-31543730D01*
X66484203Y-31593177D01*
X66364605Y-31633623D01*
X66363361Y-31634330D01*
X66332641Y-31735154D01*
X65910059Y-31735154D01*
X65983343Y-31503975D01*
X66236785Y-31104438D01*
X66316225Y-31012481D01*
X66426218Y-30862835D01*
X66433116Y-30719060D01*
X66377052Y-30560770D01*
X66267732Y-30342585D01*
X66157241Y-30186012D01*
X66155988Y-30184749D01*
X66110134Y-30102478D01*
X66181151Y-30028750D01*
X66359746Y-29948282D01*
X66648431Y-29847290D01*
X66929982Y-29768451D01*
X66952919Y-29763323D01*
X67230837Y-29703336D01*
X67030530Y-29919472D01*
X66881897Y-30125137D01*
X66834577Y-30292705D01*
X66894754Y-30386475D01*
X66948108Y-30395333D01*
X67022977Y-30442238D01*
X67011126Y-30484111D01*
X66919952Y-30525959D01*
X66815157Y-30449121D01*
X66736175Y-30295717D01*
X66717333Y-30170320D01*
X66698227Y-30028509D01*
X66613323Y-30024443D01*
X66554663Y-30053100D01*
X66452574Y-30133735D01*
X66434341Y-30257995D01*
X66477003Y-30448045D01*
X66523158Y-30694757D01*
X66524639Y-30895026D01*
X66520600Y-30914298D01*
X66528426Y-31037578D01*
X66665150Y-31072644D01*
X66671111Y-31072666D01*
X66858098Y-31119156D01*
X67097387Y-31235742D01*
X67182109Y-31289194D01*
X67374808Y-31408618D01*
X67454193Y-31424194D01*
X67447924Y-31366936D01*
X67401058Y-31159309D01*
X67394667Y-31065741D01*
X67344961Y-30940370D01*
X67173017Y-30903342D01*
X67168889Y-30903333D01*
X67005755Y-30891253D01*
X66986064Y-30862548D01*
X67086243Y-30828521D01*
X67282720Y-30800476D01*
X67399682Y-30792663D01*
X67612609Y-30759240D01*
X67761441Y-30696188D01*
X67820329Y-30627370D01*
X67763425Y-30576647D01*
X67646664Y-30564666D01*
X67512773Y-30531376D01*
X67512608Y-30430741D01*
X67557436Y-30295774D01*
X67564000Y-30261408D01*
X67635238Y-30232590D01*
X67733333Y-30226000D01*
X67863750Y-30178964D01*
X67908605Y-30012575D01*
X67909351Y-29993166D01*
X67916035Y-29760333D01*
X68005705Y-30007063D01*
X68051915Y-30250863D01*
X67999021Y-30408081D01*
X67919044Y-30589907D01*
X67902667Y-30683462D01*
X67831408Y-30796474D01*
X67669833Y-30889593D01*
X67538774Y-30951305D01*
X67569629Y-30980091D01*
X67587262Y-30981315D01*
X67699246Y-31023445D01*
X67789974Y-31153479D01*
X67867429Y-31393606D01*
X67939595Y-31766014D01*
X67988320Y-32095876D01*
X68056356Y-32492116D01*
X68146622Y-32885962D01*
X68240842Y-33198804D01*
X68250971Y-33225688D01*
X68436404Y-33896570D01*
X68465988Y-34571503D01*
X68340204Y-35279418D01*
X68288223Y-35453469D01*
X68179993Y-35807682D01*
X68122694Y-36060243D01*
X68110342Y-36268978D01*
X68136952Y-36491717D01*
X68165544Y-36638802D01*
X68205586Y-36890103D01*
X68221486Y-37166084D01*
X68212752Y-37506097D01*
X68178887Y-37949494D01*
X68144735Y-38296666D01*
X68105155Y-38722569D01*
X68080107Y-39084914D01*
X68071113Y-39352167D01*
X68079696Y-39492794D01*
X68086364Y-39505877D01*
X68118342Y-39606322D01*
X68105994Y-39657533D01*
X68145184Y-39757301D01*
X68334456Y-39824657D01*
X68560752Y-39891165D01*
X68720097Y-39973536D01*
X68808696Y-40122603D01*
X68829488Y-40315022D01*
X68781309Y-40472653D01*
X68728167Y-40515100D01*
X68562368Y-40553736D01*
X68337525Y-40581139D01*
X68113415Y-40593571D01*
X67949817Y-40587295D01*
X67902667Y-40566708D01*
X67827553Y-40539389D01*
X67638280Y-40534931D01*
X67538029Y-40540780D01*
X67260270Y-40537109D01*
X67090618Y-40462357D01*
X67051196Y-40421788D01*
X66981651Y-40288978D01*
X67022995Y-40242121D01*
X67067383Y-40165484D01*
X67053510Y-39969975D01*
X67003151Y-39726723D01*
X66940402Y-39366748D01*
X66898489Y-38948020D01*
X66887989Y-38673326D01*
X66869621Y-38339425D01*
X66809580Y-37982242D01*
X66698115Y-37555675D01*
X66556607Y-37106993D01*
X66221610Y-35848289D01*
X66087726Y-35052000D01*
X66021173Y-34544456D01*
X65949904Y-34000668D01*
X65883620Y-33494666D01*
X65842665Y-33181834D01*
X65814428Y-32808333D01*
X66294000Y-32808333D01*
X66336333Y-32850666D01*
X66378667Y-32808333D01*
X66336333Y-32766000D01*
X66294000Y-32808333D01*
X65814428Y-32808333D01*
X65792270Y-32515247D01*
X65805650Y-32351285D01*
G36*
X71997559Y-37723821D02*
G01*
X72109673Y-37723821D01*
X72149158Y-37820495D01*
X72268689Y-37845363D01*
X72324262Y-37846000D01*
X72475218Y-37830683D01*
X72542330Y-37752575D01*
X72559080Y-37563438D01*
X72559333Y-37507333D01*
X72547356Y-37288721D01*
X72492573Y-37191589D01*
X72366706Y-37168709D01*
X72356560Y-37168666D01*
X72222430Y-37192586D01*
X72154325Y-37295330D01*
X72121489Y-37507333D01*
X72109673Y-37723821D01*
X71997559Y-37723821D01*
X72000939Y-37686016D01*
X72032764Y-37407324D01*
X72050204Y-37169086D01*
X72051333Y-37119839D01*
X72068688Y-36994615D01*
X72152930Y-36953557D01*
X72352323Y-36974162D01*
X72360830Y-36975537D01*
X72563221Y-36994294D01*
X72621854Y-36957472D01*
X72609833Y-36927880D01*
X72488918Y-36857185D01*
X72300336Y-36830000D01*
X72124157Y-36805644D01*
X72051333Y-36747450D01*
X72123082Y-36703560D01*
X72300544Y-36714755D01*
X72305333Y-36715700D01*
X72499352Y-36727141D01*
X72559333Y-36671250D01*
X72486946Y-36599675D01*
X72347667Y-36576000D01*
X72179788Y-36561108D01*
X72150203Y-36489720D01*
X72162746Y-36466162D01*
X72273530Y-36466162D01*
X72390000Y-36477964D01*
X72510195Y-36464659D01*
X72495833Y-36435260D01*
X72322491Y-36424077D01*
X72284167Y-36435260D01*
X72273530Y-36466162D01*
X72162746Y-36466162D01*
X72234844Y-36330761D01*
X72314198Y-36225781D01*
X72393463Y-36236141D01*
X72510011Y-36336949D01*
X72592895Y-36431978D01*
X72643731Y-36554338D01*
X72668949Y-36742703D01*
X72674981Y-37035748D01*
X72671522Y-37308182D01*
X72654455Y-37740438D01*
X72619272Y-38031279D01*
X72561795Y-38208050D01*
X72526294Y-38259063D01*
X72462993Y-38377776D01*
X72418004Y-38588413D01*
X72387652Y-38916974D01*
X72368703Y-39373419D01*
X72341529Y-40343666D01*
X72323431Y-39404121D01*
X72311464Y-38978988D01*
X72290836Y-38686915D01*
X72255347Y-38491649D01*
X72198794Y-38356934D01*
X72127939Y-38261121D01*
X72014334Y-38088090D01*
X72006614Y-38038032D01*
X72060307Y-38038032D01*
X72152933Y-38167733D01*
X72278243Y-38244242D01*
X72411353Y-38272054D01*
X72474645Y-38235198D01*
X72474667Y-38233924D01*
X72501005Y-38134400D01*
X72526058Y-38064591D01*
X72525550Y-37969535D01*
X72402402Y-37933218D01*
X72314392Y-37930666D01*
X72108385Y-37956554D01*
X72060307Y-38038032D01*
X72006614Y-38038032D01*
X71983099Y-37885560D01*
X71997559Y-37723821D01*
G37*
X71997559Y-37723821D02*
X72109673Y-37723821D01*
X72149158Y-37820495D01*
X72268689Y-37845363D01*
X72324262Y-37846000D01*
X72475218Y-37830683D01*
X72542330Y-37752575D01*
X72559080Y-37563438D01*
X72559333Y-37507333D01*
X72547356Y-37288721D01*
X72492573Y-37191589D01*
X72366706Y-37168709D01*
X72356560Y-37168666D01*
X72222430Y-37192586D01*
X72154325Y-37295330D01*
X72121489Y-37507333D01*
X72109673Y-37723821D01*
X71997559Y-37723821D01*
X72000939Y-37686016D01*
X72032764Y-37407324D01*
X72050204Y-37169086D01*
X72051333Y-37119839D01*
X72068688Y-36994615D01*
X72152930Y-36953557D01*
X72352323Y-36974162D01*
X72360830Y-36975537D01*
X72563221Y-36994294D01*
X72621854Y-36957472D01*
X72609833Y-36927880D01*
X72488918Y-36857185D01*
X72300336Y-36830000D01*
X72124157Y-36805644D01*
X72051333Y-36747450D01*
X72123082Y-36703560D01*
X72300544Y-36714755D01*
X72305333Y-36715700D01*
X72499352Y-36727141D01*
X72559333Y-36671250D01*
X72486946Y-36599675D01*
X72347667Y-36576000D01*
X72179788Y-36561108D01*
X72150203Y-36489720D01*
X72162746Y-36466162D01*
X72273530Y-36466162D01*
X72390000Y-36477964D01*
X72510195Y-36464659D01*
X72495833Y-36435260D01*
X72322491Y-36424077D01*
X72284167Y-36435260D01*
X72273530Y-36466162D01*
X72162746Y-36466162D01*
X72234844Y-36330761D01*
X72314198Y-36225781D01*
X72393463Y-36236141D01*
X72510011Y-36336949D01*
X72592895Y-36431978D01*
X72643731Y-36554338D01*
X72668949Y-36742703D01*
X72674981Y-37035748D01*
X72671522Y-37308182D01*
X72654455Y-37740438D01*
X72619272Y-38031279D01*
X72561795Y-38208050D01*
X72526294Y-38259063D01*
X72462993Y-38377776D01*
X72418004Y-38588413D01*
X72387652Y-38916974D01*
X72368703Y-39373419D01*
X72341529Y-40343666D01*
X72323431Y-39404121D01*
X72311464Y-38978988D01*
X72290836Y-38686915D01*
X72255347Y-38491649D01*
X72198794Y-38356934D01*
X72127939Y-38261121D01*
X72014334Y-38088090D01*
X72006614Y-38038032D01*
X72060307Y-38038032D01*
X72152933Y-38167733D01*
X72278243Y-38244242D01*
X72411353Y-38272054D01*
X72474645Y-38235198D01*
X72474667Y-38233924D01*
X72501005Y-38134400D01*
X72526058Y-38064591D01*
X72525550Y-37969535D01*
X72402402Y-37933218D01*
X72314392Y-37930666D01*
X72108385Y-37956554D01*
X72060307Y-38038032D01*
X72006614Y-38038032D01*
X71983099Y-37885560D01*
X71997559Y-37723821D01*
G36*
X73382298Y-37844507D02*
G01*
X73517981Y-37844507D01*
X73581196Y-37919123D01*
X73703361Y-37930666D01*
X73835715Y-37913655D01*
X73896837Y-37831767D01*
X73913594Y-37638720D01*
X73914000Y-37567809D01*
X73901729Y-37336706D01*
X73851326Y-37230317D01*
X73744667Y-37204952D01*
X73602531Y-37242072D01*
X73565869Y-37292642D01*
X73550118Y-37432888D01*
X73525235Y-37649690D01*
X73524563Y-37655500D01*
X73517981Y-37844507D01*
X73382298Y-37844507D01*
X73390206Y-37558877D01*
X73427423Y-37194877D01*
X73457347Y-37035969D01*
X73584306Y-37035969D01*
X73633581Y-37076087D01*
X73749663Y-37084000D01*
X73867709Y-37052741D01*
X73873952Y-37003031D01*
X73763810Y-36956906D01*
X73699622Y-36969756D01*
X73584306Y-37035969D01*
X73457347Y-37035969D01*
X73487809Y-36874214D01*
X73512211Y-36804829D01*
X73712864Y-36804829D01*
X73829333Y-36816631D01*
X73949529Y-36803326D01*
X73935167Y-36773926D01*
X73761824Y-36762744D01*
X73723500Y-36773926D01*
X73712864Y-36804829D01*
X73512211Y-36804829D01*
X73567164Y-36648578D01*
X73605880Y-36593833D01*
X73750202Y-36500790D01*
X73894422Y-36546347D01*
X73980109Y-36688682D01*
X74028602Y-36949857D01*
X74041698Y-37283924D01*
X74021192Y-37644940D01*
X73968878Y-37986958D01*
X73886553Y-38264034D01*
X73822731Y-38381037D01*
X73692142Y-38634148D01*
X73685008Y-38918837D01*
X73687291Y-38934714D01*
X73701324Y-39193696D01*
X73688153Y-39529123D01*
X73665406Y-39751000D01*
X73634824Y-39970409D01*
X73614574Y-40071848D01*
X73601905Y-40043438D01*
X73594067Y-39873300D01*
X73588308Y-39549557D01*
X73586434Y-39410005D01*
X73565955Y-38902156D01*
X73520078Y-38558370D01*
X73459580Y-38394005D01*
X73402084Y-38210130D01*
X73398997Y-38168122D01*
X73401626Y-38168122D01*
X73467718Y-38274963D01*
X73511833Y-38297555D01*
X73701619Y-38314400D01*
X73806704Y-38188196D01*
X73814375Y-38156483D01*
X73785550Y-38047393D01*
X73623875Y-38015333D01*
X73461102Y-38062880D01*
X73401626Y-38168122D01*
X73398997Y-38168122D01*
X73380360Y-37914524D01*
X73382298Y-37844507D01*
G37*
X73382298Y-37844507D02*
X73517981Y-37844507D01*
X73581196Y-37919123D01*
X73703361Y-37930666D01*
X73835715Y-37913655D01*
X73896837Y-37831767D01*
X73913594Y-37638720D01*
X73914000Y-37567809D01*
X73901729Y-37336706D01*
X73851326Y-37230317D01*
X73744667Y-37204952D01*
X73602531Y-37242072D01*
X73565869Y-37292642D01*
X73550118Y-37432888D01*
X73525235Y-37649690D01*
X73524563Y-37655500D01*
X73517981Y-37844507D01*
X73382298Y-37844507D01*
X73390206Y-37558877D01*
X73427423Y-37194877D01*
X73457347Y-37035969D01*
X73584306Y-37035969D01*
X73633581Y-37076087D01*
X73749663Y-37084000D01*
X73867709Y-37052741D01*
X73873952Y-37003031D01*
X73763810Y-36956906D01*
X73699622Y-36969756D01*
X73584306Y-37035969D01*
X73457347Y-37035969D01*
X73487809Y-36874214D01*
X73512211Y-36804829D01*
X73712864Y-36804829D01*
X73829333Y-36816631D01*
X73949529Y-36803326D01*
X73935167Y-36773926D01*
X73761824Y-36762744D01*
X73723500Y-36773926D01*
X73712864Y-36804829D01*
X73512211Y-36804829D01*
X73567164Y-36648578D01*
X73605880Y-36593833D01*
X73750202Y-36500790D01*
X73894422Y-36546347D01*
X73980109Y-36688682D01*
X74028602Y-36949857D01*
X74041698Y-37283924D01*
X74021192Y-37644940D01*
X73968878Y-37986958D01*
X73886553Y-38264034D01*
X73822731Y-38381037D01*
X73692142Y-38634148D01*
X73685008Y-38918837D01*
X73687291Y-38934714D01*
X73701324Y-39193696D01*
X73688153Y-39529123D01*
X73665406Y-39751000D01*
X73634824Y-39970409D01*
X73614574Y-40071848D01*
X73601905Y-40043438D01*
X73594067Y-39873300D01*
X73588308Y-39549557D01*
X73586434Y-39410005D01*
X73565955Y-38902156D01*
X73520078Y-38558370D01*
X73459580Y-38394005D01*
X73402084Y-38210130D01*
X73398997Y-38168122D01*
X73401626Y-38168122D01*
X73467718Y-38274963D01*
X73511833Y-38297555D01*
X73701619Y-38314400D01*
X73806704Y-38188196D01*
X73814375Y-38156483D01*
X73785550Y-38047393D01*
X73623875Y-38015333D01*
X73461102Y-38062880D01*
X73401626Y-38168122D01*
X73398997Y-38168122D01*
X73380360Y-37914524D01*
X73382298Y-37844507D01*
G36*
X72982724Y-34144604D02*
G01*
X72980377Y-34025760D01*
X72978977Y-33961664D01*
X73356218Y-33961664D01*
X73364862Y-34128012D01*
X73420048Y-34204931D01*
X73424509Y-34205163D01*
X73443762Y-34130182D01*
X73461605Y-33944512D01*
X73464972Y-33887663D01*
X73471079Y-33695535D01*
X73454596Y-33656983D01*
X73406411Y-33756785D01*
X73398414Y-33776472D01*
X73356218Y-33961664D01*
X72978977Y-33961664D01*
X72973201Y-33697333D01*
X73236667Y-33697333D01*
X73267645Y-33767023D01*
X73293111Y-33753777D01*
X73303244Y-33653298D01*
X73293111Y-33640888D01*
X73242777Y-33652511D01*
X73236667Y-33697333D01*
X72973201Y-33697333D01*
X72968136Y-33465590D01*
X72967990Y-33401000D01*
X73236667Y-33401000D01*
X73279000Y-33443333D01*
X73406000Y-33443333D01*
X73436978Y-33513023D01*
X73462444Y-33499777D01*
X73472577Y-33399298D01*
X73462444Y-33386888D01*
X73412110Y-33398511D01*
X73406000Y-33443333D01*
X73279000Y-33443333D01*
X73321333Y-33401000D01*
X73279000Y-33358666D01*
X73236667Y-33401000D01*
X72967990Y-33401000D01*
X72967202Y-33052921D01*
X72984616Y-32765979D01*
X73014317Y-32639000D01*
X73152000Y-32639000D01*
X73194333Y-32681333D01*
X73236667Y-32639000D01*
X73194333Y-32596666D01*
X73152000Y-32639000D01*
X73014317Y-32639000D01*
X73027420Y-32582984D01*
X73048799Y-32554333D01*
X73660000Y-32554333D01*
X73702333Y-32596666D01*
X73744667Y-32554333D01*
X73702333Y-32512000D01*
X73660000Y-32554333D01*
X73048799Y-32554333D01*
X73102655Y-32482161D01*
X73217363Y-32441731D01*
X73378585Y-32439919D01*
X73490667Y-32447569D01*
X73699888Y-32487174D01*
X73774699Y-32575768D01*
X73775745Y-32614806D01*
X73738483Y-33014209D01*
X73694953Y-33355126D01*
X73650887Y-33597962D01*
X73619377Y-33694565D01*
X73628476Y-33774326D01*
X73664061Y-33782000D01*
X73727339Y-33842463D01*
X73718091Y-33898465D01*
X73722325Y-34051957D01*
X73792398Y-34244301D01*
X73852360Y-34425149D01*
X73900444Y-34682586D01*
X73930600Y-34958371D01*
X73936777Y-35194262D01*
X73912927Y-35332017D01*
X73906285Y-35340714D01*
X73805095Y-35376551D01*
X73660000Y-35403554D01*
X73471492Y-35473570D01*
X73368651Y-35638612D01*
X73333717Y-35930190D01*
X73333235Y-35983333D01*
X73340106Y-36161527D01*
X73366627Y-36186196D01*
X73406000Y-36110333D01*
X73453286Y-36030844D01*
X73476947Y-36091277D01*
X73484716Y-36258500D01*
X73473673Y-36459674D01*
X73438835Y-36562324D01*
X73427167Y-36565973D01*
X73201780Y-36548884D01*
X73067445Y-36606247D01*
X72998051Y-36768562D01*
X72967487Y-37066328D01*
X72965540Y-37105166D01*
X72953541Y-37295531D01*
X72939815Y-37361735D01*
X72922190Y-37293321D01*
X72898494Y-37079826D01*
X72866556Y-36710792D01*
X72855667Y-36576000D01*
X72812755Y-35998252D01*
X72789683Y-35567170D01*
X72786964Y-35261192D01*
X72805108Y-35058756D01*
X72844627Y-34938302D01*
X72895823Y-34884012D01*
X72949686Y-34778884D01*
X72978197Y-34537048D01*
X72979581Y-34417000D01*
X73660000Y-34417000D01*
X73702333Y-34459333D01*
X73744667Y-34417000D01*
X73702333Y-34374666D01*
X73660000Y-34417000D01*
X72979581Y-34417000D01*
X72982511Y-34163000D01*
X73152000Y-34163000D01*
X73194333Y-34205333D01*
X73236667Y-34163000D01*
X73194333Y-34120666D01*
X73152000Y-34163000D01*
X72982511Y-34163000D01*
X72982724Y-34144604D01*
G37*
X72982724Y-34144604D02*
X72980377Y-34025760D01*
X72978977Y-33961664D01*
X73356218Y-33961664D01*
X73364862Y-34128012D01*
X73420048Y-34204931D01*
X73424509Y-34205163D01*
X73443762Y-34130182D01*
X73461605Y-33944512D01*
X73464972Y-33887663D01*
X73471079Y-33695535D01*
X73454596Y-33656983D01*
X73406411Y-33756785D01*
X73398414Y-33776472D01*
X73356218Y-33961664D01*
X72978977Y-33961664D01*
X72973201Y-33697333D01*
X73236667Y-33697333D01*
X73267645Y-33767023D01*
X73293111Y-33753777D01*
X73303244Y-33653298D01*
X73293111Y-33640888D01*
X73242777Y-33652511D01*
X73236667Y-33697333D01*
X72973201Y-33697333D01*
X72968136Y-33465590D01*
X72967990Y-33401000D01*
X73236667Y-33401000D01*
X73279000Y-33443333D01*
X73406000Y-33443333D01*
X73436978Y-33513023D01*
X73462444Y-33499777D01*
X73472577Y-33399298D01*
X73462444Y-33386888D01*
X73412110Y-33398511D01*
X73406000Y-33443333D01*
X73279000Y-33443333D01*
X73321333Y-33401000D01*
X73279000Y-33358666D01*
X73236667Y-33401000D01*
X72967990Y-33401000D01*
X72967202Y-33052921D01*
X72984616Y-32765979D01*
X73014317Y-32639000D01*
X73152000Y-32639000D01*
X73194333Y-32681333D01*
X73236667Y-32639000D01*
X73194333Y-32596666D01*
X73152000Y-32639000D01*
X73014317Y-32639000D01*
X73027420Y-32582984D01*
X73048799Y-32554333D01*
X73660000Y-32554333D01*
X73702333Y-32596666D01*
X73744667Y-32554333D01*
X73702333Y-32512000D01*
X73660000Y-32554333D01*
X73048799Y-32554333D01*
X73102655Y-32482161D01*
X73217363Y-32441731D01*
X73378585Y-32439919D01*
X73490667Y-32447569D01*
X73699888Y-32487174D01*
X73774699Y-32575768D01*
X73775745Y-32614806D01*
X73738483Y-33014209D01*
X73694953Y-33355126D01*
X73650887Y-33597962D01*
X73619377Y-33694565D01*
X73628476Y-33774326D01*
X73664061Y-33782000D01*
X73727339Y-33842463D01*
X73718091Y-33898465D01*
X73722325Y-34051957D01*
X73792398Y-34244301D01*
X73852360Y-34425149D01*
X73900444Y-34682586D01*
X73930600Y-34958371D01*
X73936777Y-35194262D01*
X73912927Y-35332017D01*
X73906285Y-35340714D01*
X73805095Y-35376551D01*
X73660000Y-35403554D01*
X73471492Y-35473570D01*
X73368651Y-35638612D01*
X73333717Y-35930190D01*
X73333235Y-35983333D01*
X73340106Y-36161527D01*
X73366627Y-36186196D01*
X73406000Y-36110333D01*
X73453286Y-36030844D01*
X73476947Y-36091277D01*
X73484716Y-36258500D01*
X73473673Y-36459674D01*
X73438835Y-36562324D01*
X73427167Y-36565973D01*
X73201780Y-36548884D01*
X73067445Y-36606247D01*
X72998051Y-36768562D01*
X72967487Y-37066328D01*
X72965540Y-37105166D01*
X72953541Y-37295531D01*
X72939815Y-37361735D01*
X72922190Y-37293321D01*
X72898494Y-37079826D01*
X72866556Y-36710792D01*
X72855667Y-36576000D01*
X72812755Y-35998252D01*
X72789683Y-35567170D01*
X72786964Y-35261192D01*
X72805108Y-35058756D01*
X72844627Y-34938302D01*
X72895823Y-34884012D01*
X72949686Y-34778884D01*
X72978197Y-34537048D01*
X72979581Y-34417000D01*
X73660000Y-34417000D01*
X73702333Y-34459333D01*
X73744667Y-34417000D01*
X73702333Y-34374666D01*
X73660000Y-34417000D01*
X72979581Y-34417000D01*
X72982511Y-34163000D01*
X73152000Y-34163000D01*
X73194333Y-34205333D01*
X73236667Y-34163000D01*
X73194333Y-34120666D01*
X73152000Y-34163000D01*
X72982511Y-34163000D01*
X72982724Y-34144604D01*
G36*
X73547111Y-35588222D02*
G01*
X73557244Y-35688701D01*
X73547111Y-35701111D01*
X73496777Y-35689488D01*
X73490667Y-35644666D01*
X73521645Y-35574976D01*
X73547111Y-35588222D01*
G37*
X73547111Y-35588222D02*
X73557244Y-35688701D01*
X73547111Y-35701111D01*
X73496777Y-35689488D01*
X73490667Y-35644666D01*
X73521645Y-35574976D01*
X73547111Y-35588222D01*
G36*
X73406000Y-32046333D02*
G01*
X73363667Y-32088666D01*
X73321333Y-32046333D01*
X73363667Y-32004000D01*
X73406000Y-32046333D01*
G37*
X73406000Y-32046333D02*
X73363667Y-32088666D01*
X73321333Y-32046333D01*
X73363667Y-32004000D01*
X73406000Y-32046333D01*
G36*
X69105287Y-30421513D02*
G01*
X69153392Y-30495487D01*
X69153264Y-30495875D01*
X69052459Y-30611576D01*
X68881901Y-30575605D01*
X68796651Y-30519467D01*
X68698853Y-30435356D01*
X68728705Y-30401567D01*
X68906915Y-30395333D01*
X68909540Y-30395333D01*
X69105287Y-30421513D01*
G37*
X69105287Y-30421513D02*
X69153392Y-30495487D01*
X69153264Y-30495875D01*
X69052459Y-30611576D01*
X68881901Y-30575605D01*
X68796651Y-30519467D01*
X68698853Y-30435356D01*
X68728705Y-30401567D01*
X68906915Y-30395333D01*
X68909540Y-30395333D01*
X69105287Y-30421513D01*
G36*
X68551778Y-30338888D02*
G01*
X68540155Y-30389223D01*
X68495333Y-30395333D01*
X68425643Y-30364355D01*
X68438889Y-30338888D01*
X68539368Y-30328755D01*
X68551778Y-30338888D01*
G37*
X68551778Y-30338888D02*
X68540155Y-30389223D01*
X68495333Y-30395333D01*
X68425643Y-30364355D01*
X68438889Y-30338888D01*
X68539368Y-30328755D01*
X68551778Y-30338888D01*
G36*
X65821841Y-29592074D02*
G01*
X65828205Y-29583642D01*
X65965286Y-29370118D01*
X66041630Y-29186099D01*
X66046684Y-29152149D01*
X66069060Y-29091213D01*
X66124653Y-29194674D01*
X66138406Y-29231166D01*
X66256819Y-29400564D01*
X66417321Y-29468262D01*
X66562226Y-29415349D01*
X66590333Y-29379333D01*
X66711431Y-29304617D01*
X66783733Y-29294666D01*
X66941747Y-29264908D01*
X67182930Y-29188109D01*
X67461491Y-29082978D01*
X67731634Y-28968227D01*
X67947567Y-28862568D01*
X68063495Y-28784710D01*
X68072000Y-28768293D01*
X68017819Y-28733539D01*
X67974251Y-28752418D01*
X67916582Y-28762712D01*
X67939456Y-28710970D01*
X68022131Y-28652722D01*
X68128647Y-28713879D01*
X68300994Y-28790593D01*
X68523276Y-28823824D01*
X68709215Y-28847138D01*
X68769642Y-28926981D01*
X68765705Y-28998333D01*
X68685096Y-29172441D01*
X68531436Y-29345039D01*
X68366219Y-29453024D01*
X68311899Y-29464000D01*
X68315220Y-29416253D01*
X68421941Y-29297319D01*
X68469445Y-29253731D01*
X68707000Y-29043462D01*
X68309311Y-29159431D01*
X68070340Y-29218329D01*
X67905548Y-29238907D01*
X67866857Y-29230634D01*
X67772858Y-29235354D01*
X67714213Y-29271567D01*
X67533284Y-29366833D01*
X67246709Y-29468192D01*
X66916103Y-29555334D01*
X66759848Y-29586151D01*
X66546003Y-29658238D01*
X66411847Y-29758532D01*
X66306484Y-29864394D01*
X66238343Y-29879498D01*
X66252613Y-29796954D01*
X66261223Y-29781500D01*
X66253305Y-29753090D01*
X66150291Y-29827339D01*
X66139220Y-29836955D01*
X66004968Y-29988083D01*
X65955333Y-30103063D01*
X65888010Y-30210850D01*
X65744831Y-30296351D01*
X65670542Y-30310666D01*
X65652040Y-30237743D01*
X65635005Y-30085993D01*
X65637324Y-30073600D01*
X65701333Y-30073600D01*
X65743490Y-30141301D01*
X65842837Y-30088461D01*
X65935684Y-29972000D01*
X65991904Y-29843731D01*
X65972984Y-29802666D01*
X65850217Y-29863617D01*
X65733815Y-29990329D01*
X65701333Y-30073600D01*
X65637324Y-30073600D01*
X65678980Y-29851069D01*
X65821841Y-29592074D01*
G37*
X65821841Y-29592074D02*
X65828205Y-29583642D01*
X65965286Y-29370118D01*
X66041630Y-29186099D01*
X66046684Y-29152149D01*
X66069060Y-29091213D01*
X66124653Y-29194674D01*
X66138406Y-29231166D01*
X66256819Y-29400564D01*
X66417321Y-29468262D01*
X66562226Y-29415349D01*
X66590333Y-29379333D01*
X66711431Y-29304617D01*
X66783733Y-29294666D01*
X66941747Y-29264908D01*
X67182930Y-29188109D01*
X67461491Y-29082978D01*
X67731634Y-28968227D01*
X67947567Y-28862568D01*
X68063495Y-28784710D01*
X68072000Y-28768293D01*
X68017819Y-28733539D01*
X67974251Y-28752418D01*
X67916582Y-28762712D01*
X67939456Y-28710970D01*
X68022131Y-28652722D01*
X68128647Y-28713879D01*
X68300994Y-28790593D01*
X68523276Y-28823824D01*
X68709215Y-28847138D01*
X68769642Y-28926981D01*
X68765705Y-28998333D01*
X68685096Y-29172441D01*
X68531436Y-29345039D01*
X68366219Y-29453024D01*
X68311899Y-29464000D01*
X68315220Y-29416253D01*
X68421941Y-29297319D01*
X68469445Y-29253731D01*
X68707000Y-29043462D01*
X68309311Y-29159431D01*
X68070340Y-29218329D01*
X67905548Y-29238907D01*
X67866857Y-29230634D01*
X67772858Y-29235354D01*
X67714213Y-29271567D01*
X67533284Y-29366833D01*
X67246709Y-29468192D01*
X66916103Y-29555334D01*
X66759848Y-29586151D01*
X66546003Y-29658238D01*
X66411847Y-29758532D01*
X66306484Y-29864394D01*
X66238343Y-29879498D01*
X66252613Y-29796954D01*
X66261223Y-29781500D01*
X66253305Y-29753090D01*
X66150291Y-29827339D01*
X66139220Y-29836955D01*
X66004968Y-29988083D01*
X65955333Y-30103063D01*
X65888010Y-30210850D01*
X65744831Y-30296351D01*
X65670542Y-30310666D01*
X65652040Y-30237743D01*
X65635005Y-30085993D01*
X65637324Y-30073600D01*
X65701333Y-30073600D01*
X65743490Y-30141301D01*
X65842837Y-30088461D01*
X65935684Y-29972000D01*
X65991904Y-29843731D01*
X65972984Y-29802666D01*
X65850217Y-29863617D01*
X65733815Y-29990329D01*
X65701333Y-30073600D01*
X65637324Y-30073600D01*
X65678980Y-29851069D01*
X65821841Y-29592074D01*
G36*
X67852982Y-29669078D02*
G01*
X67839125Y-29758226D01*
X67765604Y-29918467D01*
X67672071Y-29972000D01*
X67584594Y-29915657D01*
X67592963Y-29849311D01*
X67590073Y-29764115D01*
X67496188Y-29777106D01*
X67405743Y-29791325D01*
X67437000Y-29739977D01*
X67584326Y-29644499D01*
X67700828Y-29598409D01*
X67827570Y-29581360D01*
X67852982Y-29669078D01*
G37*
X67852982Y-29669078D02*
X67839125Y-29758226D01*
X67765604Y-29918467D01*
X67672071Y-29972000D01*
X67584594Y-29915657D01*
X67592963Y-29849311D01*
X67590073Y-29764115D01*
X67496188Y-29777106D01*
X67405743Y-29791325D01*
X67437000Y-29739977D01*
X67584326Y-29644499D01*
X67700828Y-29598409D01*
X67827570Y-29581360D01*
X67852982Y-29669078D01*
G36*
X68072000Y-29421666D02*
G01*
X68152770Y-29497748D01*
X68156667Y-29511330D01*
X68091161Y-29547695D01*
X68072000Y-29548666D01*
X67990587Y-29483578D01*
X67987333Y-29459003D01*
X68039203Y-29408437D01*
X68072000Y-29421666D01*
G37*
X68072000Y-29421666D02*
X68152770Y-29497748D01*
X68156667Y-29511330D01*
X68091161Y-29547695D01*
X68072000Y-29548666D01*
X67990587Y-29483578D01*
X67987333Y-29459003D01*
X68039203Y-29408437D01*
X68072000Y-29421666D01*
G36*
X67655416Y-28261318D02*
G01*
X67830949Y-28331829D01*
X67939100Y-28434396D01*
X67939838Y-28539639D01*
X67897033Y-28578481D01*
X67777178Y-28571080D01*
X67721849Y-28509137D01*
X67642179Y-28428998D01*
X67500772Y-28424505D01*
X67330831Y-28464258D01*
X67043858Y-28559572D01*
X66778565Y-28672497D01*
X66764613Y-28679569D01*
X66490102Y-28803323D01*
X66250907Y-28880724D01*
X66087977Y-28901162D01*
X66040000Y-28867374D01*
X66111336Y-28756747D01*
X66284847Y-28635385D01*
X66499784Y-28538709D01*
X66665558Y-28502625D01*
X66802739Y-28467461D01*
X66822969Y-28413496D01*
X66851218Y-28371331D01*
X66954034Y-28383341D01*
X67105281Y-28393692D01*
X67157774Y-28361982D01*
X67250393Y-28303325D01*
X67440333Y-28254196D01*
X67452532Y-28252244D01*
X67655416Y-28261318D01*
G37*
X67655416Y-28261318D02*
X67830949Y-28331829D01*
X67939100Y-28434396D01*
X67939838Y-28539639D01*
X67897033Y-28578481D01*
X67777178Y-28571080D01*
X67721849Y-28509137D01*
X67642179Y-28428998D01*
X67500772Y-28424505D01*
X67330831Y-28464258D01*
X67043858Y-28559572D01*
X66778565Y-28672497D01*
X66764613Y-28679569D01*
X66490102Y-28803323D01*
X66250907Y-28880724D01*
X66087977Y-28901162D01*
X66040000Y-28867374D01*
X66111336Y-28756747D01*
X66284847Y-28635385D01*
X66499784Y-28538709D01*
X66665558Y-28502625D01*
X66802739Y-28467461D01*
X66822969Y-28413496D01*
X66851218Y-28371331D01*
X66954034Y-28383341D01*
X67105281Y-28393692D01*
X67157774Y-28361982D01*
X67250393Y-28303325D01*
X67440333Y-28254196D01*
X67452532Y-28252244D01*
X67655416Y-28261318D01*
G36*
X66357500Y-27951920D02*
G01*
X66703233Y-27958337D01*
X66891412Y-27965973D01*
X66933802Y-27978090D01*
X66842168Y-27997952D01*
X66632667Y-28028214D01*
X66139373Y-28084950D01*
X65808746Y-28096244D01*
X65640327Y-28062096D01*
X65616667Y-28024666D01*
X65696824Y-27984210D01*
X65920184Y-27958787D01*
X66261079Y-27950918D01*
X66357500Y-27951920D01*
G37*
X66357500Y-27951920D02*
X66703233Y-27958337D01*
X66891412Y-27965973D01*
X66933802Y-27978090D01*
X66842168Y-27997952D01*
X66632667Y-28028214D01*
X66139373Y-28084950D01*
X65808746Y-28096244D01*
X65640327Y-28062096D01*
X65616667Y-28024666D01*
X65696824Y-27984210D01*
X65920184Y-27958787D01*
X66261079Y-27950918D01*
X66357500Y-27951920D01*
G36*
X67310000Y-27982333D02*
G01*
X67267667Y-28024666D01*
X67225333Y-27982333D01*
X67267667Y-27940000D01*
X67310000Y-27982333D01*
G37*
X67310000Y-27982333D02*
X67267667Y-28024666D01*
X67225333Y-27982333D01*
X67267667Y-27940000D01*
X67310000Y-27982333D01*
D12*
%TO.C,SW3*%
X69000000Y-110760000D02*
X64500000Y-110760000D01*
X63250000Y-113260000D02*
X63250000Y-114760000D01*
X70250000Y-114760000D02*
X70250000Y-113260000D01*
X64500000Y-117260000D02*
X69000000Y-117260000D01*
%TO.C,C7*%
X73755000Y-29110000D02*
X73755000Y-29555000D01*
X73755000Y-29110000D02*
X79995000Y-29110000D01*
X79995000Y-29110000D02*
X79995000Y-29555000D01*
X79995000Y-31405000D02*
X79995000Y-31850000D01*
X73755000Y-31850000D02*
X79995000Y-31850000D01*
X73755000Y-31405000D02*
X73755000Y-31850000D01*
%TO.C,SW33*%
X69000000Y-42180000D02*
X64500000Y-42180000D01*
X64500000Y-48680000D02*
X69000000Y-48680000D01*
X70250000Y-46180000D02*
X70250000Y-44680000D01*
X63250000Y-44680000D02*
X63250000Y-46180000D01*
%TO.C,DISP2*%
X88205000Y-24564530D02*
X88205000Y-25367000D01*
X107190000Y-23147000D02*
X88205000Y-23147000D01*
X107950000Y-23147000D02*
X108710000Y-23147000D01*
X107190000Y-23147000D02*
X107190000Y-23693529D01*
X108710000Y-23147000D02*
X108710000Y-24257000D01*
X107190000Y-24820471D02*
X107190000Y-25367000D01*
X88205000Y-23147000D02*
X88205000Y-23949470D01*
X107190000Y-25367000D02*
X88205000Y-25367000D01*
%TO.C,Y1*%
X113015000Y-51485000D02*
X113015000Y-45235000D01*
X107965000Y-51485000D02*
X107965000Y-45235000D01*
X113015000Y-45235000D02*
G75*
G03*
X107965000Y-45235000I-2525000J0D01*
G01*
X107965000Y-51485000D02*
G75*
G03*
X113015000Y-51485000I2525000J0D01*
G01*
%TO.C,U2*%
X114020000Y-64695000D02*
X112770000Y-64695000D01*
X109520000Y-100375000D02*
X114020000Y-100375000D01*
X106520000Y-64635000D02*
X106520000Y-100435000D01*
X110770000Y-64695000D02*
X109520000Y-64695000D01*
X109520000Y-64695000D02*
X109520000Y-100375000D01*
X114020000Y-100375000D02*
X114020000Y-64695000D01*
X106520000Y-100435000D02*
X117020000Y-100435000D01*
X117020000Y-100435000D02*
X117020000Y-64635000D01*
X117020000Y-64635000D02*
X106520000Y-64635000D01*
X110770000Y-64695000D02*
G75*
G03*
X112770000Y-64695000I1000000J0D01*
G01*
%TO.C,D1*%
X116940000Y-39365000D02*
X116940000Y-36905000D01*
X115470000Y-36905000D02*
X115470000Y-39365000D01*
X115470000Y-39365000D02*
X116940000Y-39365000D01*
%TO.C,SW22*%
X53760000Y-65040000D02*
X49260000Y-65040000D01*
X48010000Y-67540000D02*
X48010000Y-69040000D01*
X55010000Y-69040000D02*
X55010000Y-67540000D01*
X49260000Y-71540000D02*
X53760000Y-71540000D01*
%TO.C,J2*%
X111775000Y-114305000D02*
X109175000Y-114305000D01*
X109175000Y-114305000D02*
X109175000Y-111705000D01*
X109175000Y-111705000D02*
X116915000Y-111705000D01*
X110505000Y-116905000D02*
X109175000Y-116905000D01*
X109175000Y-116905000D02*
X109175000Y-115575000D01*
X116915000Y-116905000D02*
X116915000Y-111705000D01*
X111775000Y-116905000D02*
X116915000Y-116905000D01*
X111775000Y-116905000D02*
X111775000Y-114305000D01*
%TO.C,SW30*%
X99480000Y-53610000D02*
X94980000Y-53610000D01*
X94980000Y-60110000D02*
X99480000Y-60110000D01*
X100730000Y-57610000D02*
X100730000Y-56110000D01*
X93730000Y-56110000D02*
X93730000Y-57610000D01*
%TO.C,DISP1*%
X76200000Y-23181000D02*
X43120000Y-23181000D01*
X77470000Y-23181000D02*
X78800000Y-23181000D01*
X43120000Y-23181000D02*
X43120000Y-25841000D01*
X76200000Y-23181000D02*
X76200000Y-25841000D01*
X78800000Y-23181000D02*
X78800000Y-24511000D01*
X76200000Y-25841000D02*
X43120000Y-25841000D01*
%TO.C,SW12*%
X55010000Y-91900000D02*
X55010000Y-90400000D01*
X53760000Y-87900000D02*
X49260000Y-87900000D01*
X48010000Y-90400000D02*
X48010000Y-91900000D01*
X49260000Y-94400000D02*
X53760000Y-94400000D01*
%TO.C,SW26*%
X32770000Y-56110000D02*
X32770000Y-57610000D01*
X38520000Y-53610000D02*
X34020000Y-53610000D01*
X34020000Y-60110000D02*
X38520000Y-60110000D01*
X39770000Y-57610000D02*
X39770000Y-56110000D01*
%TO.C,SW13*%
X63250000Y-90400000D02*
X63250000Y-91900000D01*
X69000000Y-87900000D02*
X64500000Y-87900000D01*
X64500000Y-94400000D02*
X69000000Y-94400000D01*
X70250000Y-91900000D02*
X70250000Y-90400000D01*
%TO.C,SW20*%
X99480000Y-76470000D02*
X94980000Y-76470000D01*
X100730000Y-80470000D02*
X100730000Y-78970000D01*
X93730000Y-78970000D02*
X93730000Y-80470000D01*
X94980000Y-82970000D02*
X99480000Y-82970000D01*
%TO.C,SW28*%
X64500000Y-60110000D02*
X69000000Y-60110000D01*
X63250000Y-56110000D02*
X63250000Y-57610000D01*
X69000000Y-53610000D02*
X64500000Y-53610000D01*
X70250000Y-57610000D02*
X70250000Y-56110000D01*
%TO.C,SW10*%
X93730000Y-101830000D02*
X93730000Y-103330000D01*
X99480000Y-99330000D02*
X94980000Y-99330000D01*
X100730000Y-103330000D02*
X100730000Y-101830000D01*
X94980000Y-105830000D02*
X99480000Y-105830000D01*
%TO.C,SW16*%
X32770000Y-78970000D02*
X32770000Y-80470000D01*
X39770000Y-80470000D02*
X39770000Y-78970000D01*
X34020000Y-82970000D02*
X38520000Y-82970000D01*
X38520000Y-76470000D02*
X34020000Y-76470000D01*
%TO.C,SW6*%
X32770000Y-101830000D02*
X32770000Y-103330000D01*
X39770000Y-103330000D02*
X39770000Y-101830000D01*
X38520000Y-99330000D02*
X34020000Y-99330000D01*
X34020000Y-105830000D02*
X38520000Y-105830000D01*
%TO.C,C6*%
X114400000Y-61500000D02*
X113955000Y-61500000D01*
X112105000Y-61500000D02*
X111660000Y-61500000D01*
X114400000Y-55260000D02*
X113955000Y-55260000D01*
X112105000Y-55260000D02*
X111660000Y-55260000D01*
X114400000Y-55260000D02*
X114400000Y-61500000D01*
X111660000Y-55260000D02*
X111660000Y-61500000D01*
%TO.C,RV1*%
X106355000Y-30600000D02*
X106550000Y-30600000D01*
X109595000Y-34283000D02*
X109595000Y-30600000D01*
X109400000Y-30600000D02*
X109595000Y-30600000D01*
X111900000Y-35641000D02*
X112995000Y-35641000D01*
X102954000Y-35641000D02*
X104049000Y-35641000D01*
X102954000Y-30600000D02*
X106550000Y-30600000D01*
X106355000Y-34283000D02*
X106355000Y-30600000D01*
X106901000Y-35641000D02*
X109050000Y-35641000D01*
X106901000Y-35641000D02*
X109050000Y-35641000D01*
X112995000Y-35641000D02*
X112995000Y-30600000D01*
X102954000Y-35641000D02*
X102954000Y-30600000D01*
X109400000Y-30600000D02*
X112995000Y-30600000D01*
%TO.C,SW1*%
X32770000Y-113260000D02*
X32770000Y-114760000D01*
X38520000Y-110760000D02*
X34020000Y-110760000D01*
X39770000Y-114760000D02*
X39770000Y-113260000D01*
X34020000Y-117260000D02*
X38520000Y-117260000D01*
%TO.C,SW19*%
X85490000Y-80470000D02*
X85490000Y-78970000D01*
X84240000Y-76470000D02*
X79740000Y-76470000D01*
X79740000Y-82970000D02*
X84240000Y-82970000D01*
X78490000Y-78970000D02*
X78490000Y-80470000D01*
%TO.C,SW31*%
X32770000Y-44680000D02*
X32770000Y-46180000D01*
X38520000Y-42180000D02*
X34020000Y-42180000D01*
X34020000Y-48680000D02*
X38520000Y-48680000D01*
X39770000Y-46180000D02*
X39770000Y-44680000D01*
%TO.C,SW35*%
X100730000Y-46180000D02*
X100730000Y-44680000D01*
X94980000Y-48680000D02*
X99480000Y-48680000D01*
X93730000Y-44680000D02*
X93730000Y-46180000D01*
X99480000Y-42180000D02*
X94980000Y-42180000D01*
%TO.C,CON2*%
X95315000Y-31683000D02*
X95315000Y-29023000D01*
X82495000Y-31683000D02*
X82495000Y-30353000D01*
X85095000Y-31683000D02*
X95315000Y-31683000D01*
X85095000Y-31683000D02*
X85095000Y-29023000D01*
X85095000Y-29023000D02*
X95315000Y-29023000D01*
X83825000Y-31683000D02*
X82495000Y-31683000D01*
%TO.C,SW2*%
X55010000Y-114760000D02*
X55010000Y-113260000D01*
X49260000Y-117260000D02*
X53760000Y-117260000D01*
X53760000Y-110760000D02*
X49260000Y-110760000D01*
X48010000Y-113260000D02*
X48010000Y-114760000D01*
%TO.C,SW27*%
X53760000Y-53610000D02*
X49260000Y-53610000D01*
X55010000Y-57610000D02*
X55010000Y-56110000D01*
X48010000Y-56110000D02*
X48010000Y-57610000D01*
X49260000Y-60110000D02*
X53760000Y-60110000D01*
%TO.C,J1*%
X36830000Y-24070000D02*
X39430000Y-24070000D01*
X36830000Y-26730000D02*
X39430000Y-26730000D01*
X36830000Y-26730000D02*
X36830000Y-24070000D01*
X35560000Y-26730000D02*
X34230000Y-26730000D01*
X34230000Y-26730000D02*
X34230000Y-25400000D01*
X39430000Y-26730000D02*
X39430000Y-24070000D01*
%TO.C,SW9*%
X79740000Y-105830000D02*
X84240000Y-105830000D01*
X85490000Y-103330000D02*
X85490000Y-101830000D01*
X84240000Y-99330000D02*
X79740000Y-99330000D01*
X78490000Y-101830000D02*
X78490000Y-103330000D01*
%TO.C,R1*%
X90710000Y-36930000D02*
X97250000Y-36930000D01*
X90710000Y-34190000D02*
X90710000Y-36930000D01*
X97250000Y-36930000D02*
X97250000Y-34190000D01*
X89940000Y-35560000D02*
X90710000Y-35560000D01*
X98020000Y-35560000D02*
X97250000Y-35560000D01*
X97250000Y-34190000D02*
X90710000Y-34190000D01*
%TO.C,SW7*%
X48010000Y-101830000D02*
X48010000Y-103330000D01*
X55010000Y-103330000D02*
X55010000Y-101830000D01*
X53760000Y-99330000D02*
X49260000Y-99330000D01*
X49260000Y-105830000D02*
X53760000Y-105830000D01*
%TO.C,SW23*%
X63250000Y-67540000D02*
X63250000Y-69040000D01*
X70250000Y-69040000D02*
X70250000Y-67540000D01*
X64500000Y-71540000D02*
X69000000Y-71540000D01*
X69000000Y-65040000D02*
X64500000Y-65040000D01*
%TO.C,SW25*%
X93730000Y-67540000D02*
X93730000Y-69040000D01*
X94980000Y-71540000D02*
X99480000Y-71540000D01*
X99480000Y-65040000D02*
X94980000Y-65040000D01*
X100730000Y-69040000D02*
X100730000Y-67540000D01*
%TO.C,SW4*%
X79740000Y-117260000D02*
X84240000Y-117260000D01*
X84240000Y-110760000D02*
X79740000Y-110760000D01*
X78490000Y-113260000D02*
X78490000Y-114760000D01*
X85490000Y-114760000D02*
X85490000Y-113260000D01*
%TO.C,C2*%
X63412000Y-34883056D02*
X58882000Y-34883056D01*
X60107000Y-33563056D02*
X58073000Y-33563056D01*
X60107000Y-32802056D02*
X57925000Y-32802056D01*
X64133000Y-33803056D02*
X62187000Y-33803056D01*
X60107000Y-34803056D02*
X58804000Y-34803056D01*
X63913000Y-34243056D02*
X62187000Y-34243056D01*
X60107000Y-34203056D02*
X58357000Y-34203056D01*
X60107000Y-34403056D02*
X58483000Y-34403056D01*
X60107000Y-34843056D02*
X58842000Y-34843056D01*
X63563000Y-34723056D02*
X62187000Y-34723056D01*
X62312000Y-35603056D02*
X59982000Y-35603056D01*
X60107000Y-33242056D02*
X57988000Y-33242056D01*
X61949000Y-35723056D02*
X60345000Y-35723056D01*
X64377000Y-32562056D02*
X57917000Y-32562056D01*
X62728000Y-35403056D02*
X59566000Y-35403056D01*
X64081000Y-33923056D02*
X62187000Y-33923056D01*
X60107000Y-33963056D02*
X58231000Y-33963056D01*
X63811000Y-34403056D02*
X62187000Y-34403056D01*
X62409000Y-35563056D02*
X59885000Y-35563056D01*
X63037000Y-35203056D02*
X59257000Y-35203056D01*
X60107000Y-34443056D02*
X58511000Y-34443056D01*
X64208000Y-33603056D02*
X62187000Y-33603056D01*
X64233000Y-33523056D02*
X62187000Y-33523056D01*
X63142000Y-35123056D02*
X59152000Y-35123056D01*
X60107000Y-33483056D02*
X58049000Y-33483056D01*
X60107000Y-32842056D02*
X57929000Y-32842056D01*
X64043000Y-34003056D02*
X62187000Y-34003056D01*
X60107000Y-33643056D02*
X58100000Y-33643056D01*
X64371000Y-32762056D02*
X57923000Y-32762056D01*
X62797000Y-35363056D02*
X59497000Y-35363056D01*
X64342000Y-33042056D02*
X62187000Y-33042056D01*
X60107000Y-34043056D02*
X58271000Y-34043056D01*
X60107000Y-34323056D02*
X58431000Y-34323056D01*
X63527000Y-34763056D02*
X62187000Y-34763056D01*
X60107000Y-32882056D02*
X57932000Y-32882056D01*
X63981000Y-34123056D02*
X62187000Y-34123056D01*
X60107000Y-33042056D02*
X57952000Y-33042056D01*
X61780000Y-35763056D02*
X60514000Y-35763056D01*
X64257000Y-33443056D02*
X62187000Y-33443056D01*
X60107000Y-33603056D02*
X58086000Y-33603056D01*
X60107000Y-33082056D02*
X57958000Y-33082056D01*
X63889000Y-34283056D02*
X62187000Y-34283056D01*
X60107000Y-34123056D02*
X58313000Y-34123056D01*
X60107000Y-33363056D02*
X58016000Y-33363056D01*
X63329000Y-34963056D02*
X58965000Y-34963056D01*
X60107000Y-33843056D02*
X58177000Y-33843056D01*
X63631000Y-34643056D02*
X62187000Y-34643056D01*
X63783000Y-34443056D02*
X62187000Y-34443056D01*
X60107000Y-33443056D02*
X58037000Y-33443056D01*
X60107000Y-34243056D02*
X58381000Y-34243056D01*
X64288000Y-33323056D02*
X62187000Y-33323056D01*
X63663000Y-34603056D02*
X62187000Y-34603056D01*
X63490000Y-34803056D02*
X62187000Y-34803056D01*
X64165000Y-33723056D02*
X62187000Y-33723056D01*
X60107000Y-34363056D02*
X58457000Y-34363056D01*
X60107000Y-34563056D02*
X58599000Y-34563056D01*
X64314000Y-33202056D02*
X62187000Y-33202056D01*
X63725000Y-34523056D02*
X62187000Y-34523056D01*
X63284000Y-35003056D02*
X59010000Y-35003056D01*
X63754000Y-34483056D02*
X62187000Y-34483056D01*
X60107000Y-33403056D02*
X58026000Y-33403056D01*
X60107000Y-33763056D02*
X58145000Y-33763056D01*
X60107000Y-33683056D02*
X58114000Y-33683056D01*
X63959000Y-34163056D02*
X62187000Y-34163056D01*
X64245000Y-33483056D02*
X62187000Y-33483056D01*
X62087000Y-35683056D02*
X60207000Y-35683056D01*
X60107000Y-34283056D02*
X58405000Y-34283056D01*
X60107000Y-32922056D02*
X57936000Y-32922056D01*
X62986000Y-29061815D02*
X62986000Y-29691815D01*
X63191000Y-35083056D02*
X59103000Y-35083056D01*
X63863000Y-34323056D02*
X62187000Y-34323056D01*
X60107000Y-33523056D02*
X58061000Y-33523056D01*
X64353000Y-32962056D02*
X62187000Y-32962056D01*
X64149000Y-33763056D02*
X62187000Y-33763056D01*
X63301000Y-29376815D02*
X62671000Y-29376815D01*
X63239000Y-35043056D02*
X59055000Y-35043056D01*
X62497000Y-35523056D02*
X59797000Y-35523056D01*
X64063000Y-33963056D02*
X62187000Y-33963056D01*
X63837000Y-34363056D02*
X62187000Y-34363056D01*
X60107000Y-33923056D02*
X58213000Y-33923056D01*
X64099000Y-33883056D02*
X62187000Y-33883056D01*
X60107000Y-34643056D02*
X58663000Y-34643056D01*
X60107000Y-34003056D02*
X58251000Y-34003056D01*
X60107000Y-33803056D02*
X58161000Y-33803056D01*
X64003000Y-34083056D02*
X62187000Y-34083056D01*
X64362000Y-32882056D02*
X62187000Y-32882056D01*
X64377000Y-32602056D02*
X57917000Y-32602056D01*
X63091000Y-35163056D02*
X59203000Y-35163056D01*
X63597000Y-34683056D02*
X62187000Y-34683056D01*
X64278000Y-33363056D02*
X62187000Y-33363056D01*
X62861000Y-35323056D02*
X59433000Y-35323056D01*
X60107000Y-33002056D02*
X57946000Y-33002056D01*
X64365000Y-32842056D02*
X62187000Y-32842056D01*
X60107000Y-33323056D02*
X58006000Y-33323056D01*
X60107000Y-33883056D02*
X58195000Y-33883056D01*
X62923000Y-35283056D02*
X59371000Y-35283056D01*
X60107000Y-33122056D02*
X57965000Y-33122056D01*
X63371000Y-34923056D02*
X58923000Y-34923056D01*
X60107000Y-33283056D02*
X57997000Y-33283056D01*
X60107000Y-32962056D02*
X57941000Y-32962056D01*
X63695000Y-34563056D02*
X62187000Y-34563056D01*
X64329000Y-33122056D02*
X62187000Y-33122056D01*
X64336000Y-33082056D02*
X62187000Y-33082056D01*
X60107000Y-34763056D02*
X58767000Y-34763056D01*
X64117000Y-33843056D02*
X62187000Y-33843056D01*
X64375000Y-32682056D02*
X57919000Y-32682056D01*
X64297000Y-33283056D02*
X62187000Y-33283056D01*
X60107000Y-34683056D02*
X58697000Y-34683056D01*
X64023000Y-34043056D02*
X62187000Y-34043056D01*
X60107000Y-34723056D02*
X58731000Y-34723056D01*
X64369000Y-32802056D02*
X62187000Y-32802056D01*
X64348000Y-33002056D02*
X62187000Y-33002056D01*
X64221000Y-33563056D02*
X62187000Y-33563056D01*
X60107000Y-33162056D02*
X57972000Y-33162056D01*
X64358000Y-32922056D02*
X62187000Y-32922056D01*
X63452000Y-34843056D02*
X62187000Y-34843056D01*
X62656000Y-35443056D02*
X59638000Y-35443056D01*
X64377000Y-32642056D02*
X57917000Y-32642056D01*
X60107000Y-34603056D02*
X58631000Y-34603056D01*
X60107000Y-34163056D02*
X58335000Y-34163056D01*
X60107000Y-34523056D02*
X58569000Y-34523056D01*
X60107000Y-34483056D02*
X58540000Y-34483056D01*
X62579000Y-35483056D02*
X59715000Y-35483056D01*
X64374000Y-32722056D02*
X57920000Y-32722056D01*
X64194000Y-33643056D02*
X62187000Y-33643056D01*
X64306000Y-33242056D02*
X62187000Y-33242056D01*
X64180000Y-33683056D02*
X62187000Y-33683056D01*
X62981000Y-35243056D02*
X59313000Y-35243056D01*
X63937000Y-34203056D02*
X62187000Y-34203056D01*
X60107000Y-34083056D02*
X58291000Y-34083056D01*
X60107000Y-33723056D02*
X58129000Y-33723056D01*
X64268000Y-33403056D02*
X62187000Y-33403056D01*
X60107000Y-33202056D02*
X57980000Y-33202056D01*
X61549000Y-35803056D02*
X60745000Y-35803056D01*
X62206000Y-35643056D02*
X60088000Y-35643056D01*
X64322000Y-33162056D02*
X62187000Y-33162056D01*
X64417000Y-32562056D02*
G75*
G03*
X64417000Y-32562056I-3270000J0D01*
G01*
%TO.C,SW24*%
X85490000Y-69040000D02*
X85490000Y-67540000D01*
X79740000Y-71540000D02*
X84240000Y-71540000D01*
X78490000Y-67540000D02*
X78490000Y-69040000D01*
X84240000Y-65040000D02*
X79740000Y-65040000D01*
%TO.C,SW15*%
X100730000Y-91900000D02*
X100730000Y-90400000D01*
X94980000Y-94400000D02*
X99480000Y-94400000D01*
X99480000Y-87900000D02*
X94980000Y-87900000D01*
X93730000Y-90400000D02*
X93730000Y-91900000D01*
%TO.C,SW34*%
X78490000Y-44680000D02*
X78490000Y-46180000D01*
X79740000Y-48680000D02*
X84240000Y-48680000D01*
X84240000Y-42180000D02*
X79740000Y-42180000D01*
X85490000Y-46180000D02*
X85490000Y-44680000D01*
%TO.C,C5*%
X110590000Y-55300000D02*
X110145000Y-55300000D01*
X110590000Y-55300000D02*
X110590000Y-61540000D01*
X110590000Y-61540000D02*
X110145000Y-61540000D01*
X108295000Y-55300000D02*
X107850000Y-55300000D01*
X107850000Y-55300000D02*
X107850000Y-61540000D01*
X108295000Y-61540000D02*
X107850000Y-61540000D01*
%TO.C,C4*%
X114645000Y-102250000D02*
X114200000Y-102250000D01*
X114645000Y-108490000D02*
X114200000Y-108490000D01*
X116940000Y-108490000D02*
X116495000Y-108490000D01*
X114200000Y-102250000D02*
X114200000Y-108490000D01*
X116940000Y-102250000D02*
X116940000Y-108490000D01*
X116940000Y-102250000D02*
X116495000Y-102250000D01*
%TO.C,SW18*%
X69000000Y-76470000D02*
X64500000Y-76470000D01*
X70250000Y-80470000D02*
X70250000Y-78970000D01*
X63250000Y-78970000D02*
X63250000Y-80470000D01*
X64500000Y-82970000D02*
X69000000Y-82970000D01*
%TO.C,SW29*%
X84240000Y-53610000D02*
X79740000Y-53610000D01*
X79740000Y-60110000D02*
X84240000Y-60110000D01*
X78490000Y-56110000D02*
X78490000Y-57610000D01*
X85490000Y-57610000D02*
X85490000Y-56110000D01*
%TO.C,U1*%
X51457000Y-34916108D02*
X55057000Y-34916108D01*
X53257000Y-30466107D02*
G75*
G03*
X51418522Y-34904586I0J-2600001D01*
G01*
X55095478Y-34904586D02*
G75*
G03*
X53257000Y-30466108I-1838478J1838478D01*
G01*
%TO.C,R2*%
X116950000Y-43240000D02*
X116950000Y-40780000D01*
X115480000Y-40780000D02*
X115480000Y-43240000D01*
X116950000Y-40780000D02*
X115480000Y-40780000D01*
%TO.C,SW5*%
X100730000Y-114760000D02*
X100730000Y-113260000D01*
X99480000Y-110760000D02*
X94980000Y-110760000D01*
X94980000Y-117260000D02*
X99480000Y-117260000D01*
X93730000Y-113260000D02*
X93730000Y-114760000D01*
%TO.C,SW8*%
X69000000Y-99330000D02*
X64500000Y-99330000D01*
X70250000Y-103330000D02*
X70250000Y-101830000D01*
X64500000Y-105830000D02*
X69000000Y-105830000D01*
X63250000Y-101830000D02*
X63250000Y-103330000D01*
%TO.C,SW17*%
X53760000Y-76470000D02*
X49260000Y-76470000D01*
X48010000Y-78970000D02*
X48010000Y-80470000D01*
X55010000Y-80470000D02*
X55010000Y-78970000D01*
X49260000Y-82970000D02*
X53760000Y-82970000D01*
%TO.C,SW21*%
X34020000Y-71540000D02*
X38520000Y-71540000D01*
X39770000Y-69040000D02*
X39770000Y-67540000D01*
X38520000Y-65040000D02*
X34020000Y-65040000D01*
X32770000Y-67540000D02*
X32770000Y-69040000D01*
%TO.C,SW32*%
X49260000Y-48680000D02*
X53760000Y-48680000D01*
X53760000Y-42180000D02*
X49260000Y-42180000D01*
X48010000Y-44680000D02*
X48010000Y-46180000D01*
X55010000Y-46180000D02*
X55010000Y-44680000D01*
%TO.C,SW11*%
X39770000Y-91900000D02*
X39770000Y-90400000D01*
X32770000Y-90400000D02*
X32770000Y-91900000D01*
X34020000Y-94400000D02*
X38520000Y-94400000D01*
X38520000Y-87900000D02*
X34020000Y-87900000D01*
%TO.C,SW14*%
X78490000Y-90400000D02*
X78490000Y-91900000D01*
X85490000Y-91900000D02*
X85490000Y-90400000D01*
X84240000Y-87900000D02*
X79740000Y-87900000D01*
X79740000Y-94400000D02*
X84240000Y-94400000D01*
%TO.C,C3*%
X113130000Y-102250000D02*
X113130000Y-108490000D01*
X110835000Y-102250000D02*
X110390000Y-102250000D01*
X113130000Y-108490000D02*
X112685000Y-108490000D01*
X110835000Y-108490000D02*
X110390000Y-108490000D01*
X110390000Y-102250000D02*
X110390000Y-108490000D01*
X113130000Y-102250000D02*
X112685000Y-102250000D01*
%TO.C,C1*%
X45935000Y-29130000D02*
X45620000Y-29130000D01*
X45935000Y-34370000D02*
X45620000Y-34370000D01*
X48360000Y-29130000D02*
X48045000Y-29130000D01*
X48360000Y-34370000D02*
X48045000Y-34370000D01*
X45620000Y-29130000D02*
X45620000Y-34370000D01*
X48360000Y-29130000D02*
X48360000Y-34370000D01*
%TO.C,C8*%
X35157000Y-35441000D02*
X30883000Y-35441000D01*
X31980000Y-34681000D02*
X30254000Y-34681000D01*
X36038000Y-34161000D02*
X34060000Y-34161000D01*
X35656000Y-34881000D02*
X34060000Y-34881000D01*
X33422000Y-36241000D02*
X32618000Y-36241000D01*
X33822000Y-36161000D02*
X32218000Y-36161000D01*
X31980000Y-34641000D02*
X30230000Y-34641000D01*
X31980000Y-33721000D02*
X29870000Y-33721000D01*
X34370000Y-35961000D02*
X31670000Y-35961000D01*
X36226000Y-33400000D02*
X34060000Y-33400000D01*
X36247000Y-33160000D02*
X29793000Y-33160000D01*
X31980000Y-33240000D02*
X29798000Y-33240000D01*
X31980000Y-33761000D02*
X29879000Y-33761000D01*
X31980000Y-34441000D02*
X30124000Y-34441000D01*
X35470000Y-35121000D02*
X34060000Y-35121000D01*
X31980000Y-35041000D02*
X30504000Y-35041000D01*
X31980000Y-34001000D02*
X29946000Y-34001000D01*
X35504000Y-35081000D02*
X34060000Y-35081000D01*
X34670000Y-35801000D02*
X31370000Y-35801000D01*
X31980000Y-33600000D02*
X29845000Y-33600000D01*
X31980000Y-33881000D02*
X29910000Y-33881000D01*
X35568000Y-35001000D02*
X34060000Y-35001000D01*
X31980000Y-33320000D02*
X29805000Y-33320000D01*
X31980000Y-34721000D02*
X30278000Y-34721000D01*
X31980000Y-33440000D02*
X29819000Y-33440000D01*
X35015000Y-35561000D02*
X31025000Y-35561000D01*
X35762000Y-34721000D02*
X34060000Y-34721000D01*
X35810000Y-34641000D02*
X34060000Y-34641000D01*
X34910000Y-35641000D02*
X31130000Y-35641000D01*
X31980000Y-34041000D02*
X29959000Y-34041000D01*
X31980000Y-35001000D02*
X30472000Y-35001000D01*
X35536000Y-35041000D02*
X34060000Y-35041000D01*
X31980000Y-34121000D02*
X29987000Y-34121000D01*
X35896000Y-34481000D02*
X34060000Y-34481000D01*
X36250000Y-33040000D02*
X29790000Y-33040000D01*
X31980000Y-33680000D02*
X29861000Y-33680000D01*
X31980000Y-33400000D02*
X29814000Y-33400000D01*
X31980000Y-34921000D02*
X30413000Y-34921000D01*
X36202000Y-33560000D02*
X34060000Y-33560000D01*
X35400000Y-35201000D02*
X34060000Y-35201000D01*
X31980000Y-35121000D02*
X30570000Y-35121000D01*
X31980000Y-34801000D02*
X30330000Y-34801000D01*
X35325000Y-35281000D02*
X34060000Y-35281000D01*
X31980000Y-33360000D02*
X29809000Y-33360000D01*
X35112000Y-35481000D02*
X30928000Y-35481000D01*
X36244000Y-33200000D02*
X29796000Y-33200000D01*
X36053000Y-34121000D02*
X34060000Y-34121000D01*
X35916000Y-34441000D02*
X34060000Y-34441000D01*
X36106000Y-33961000D02*
X34060000Y-33961000D01*
X35436000Y-35161000D02*
X34060000Y-35161000D01*
X31980000Y-34841000D02*
X30356000Y-34841000D01*
X35990000Y-34281000D02*
X34060000Y-34281000D01*
X35832000Y-34601000D02*
X34060000Y-34601000D01*
X35627000Y-34921000D02*
X34060000Y-34921000D01*
X31980000Y-34401000D02*
X30104000Y-34401000D01*
X36250000Y-33000000D02*
X29790000Y-33000000D01*
X31980000Y-34321000D02*
X30068000Y-34321000D01*
X31980000Y-35281000D02*
X30715000Y-35281000D01*
X34796000Y-35721000D02*
X31244000Y-35721000D01*
X36250000Y-33080000D02*
X29790000Y-33080000D01*
X31980000Y-34201000D02*
X30018000Y-34201000D01*
X31980000Y-33520000D02*
X29831000Y-33520000D01*
X36209000Y-33520000D02*
X34060000Y-33520000D01*
X31980000Y-35081000D02*
X30536000Y-35081000D01*
X35174000Y-29814759D02*
X34544000Y-29814759D01*
X36221000Y-33440000D02*
X34060000Y-33440000D01*
X31980000Y-33801000D02*
X29889000Y-33801000D01*
X36248000Y-33120000D02*
X29792000Y-33120000D01*
X34964000Y-35601000D02*
X31076000Y-35601000D01*
X31980000Y-34081000D02*
X29973000Y-34081000D01*
X31980000Y-33640000D02*
X29853000Y-33640000D01*
X31980000Y-34601000D02*
X30208000Y-34601000D01*
X35064000Y-35521000D02*
X30976000Y-35521000D01*
X36118000Y-33921000D02*
X34060000Y-33921000D01*
X31980000Y-34561000D02*
X30186000Y-34561000D01*
X36242000Y-33240000D02*
X34060000Y-33240000D01*
X31980000Y-33921000D02*
X29922000Y-33921000D01*
X36151000Y-33801000D02*
X34060000Y-33801000D01*
X31980000Y-33961000D02*
X29934000Y-33961000D01*
X31980000Y-34881000D02*
X30384000Y-34881000D01*
X36006000Y-34241000D02*
X34060000Y-34241000D01*
X35684000Y-34841000D02*
X34060000Y-34841000D01*
X31980000Y-34281000D02*
X30050000Y-34281000D01*
X35954000Y-34361000D02*
X34060000Y-34361000D01*
X36170000Y-33721000D02*
X34060000Y-33721000D01*
X36195000Y-33600000D02*
X34060000Y-33600000D01*
X31980000Y-33280000D02*
X29802000Y-33280000D01*
X31980000Y-33560000D02*
X29838000Y-33560000D01*
X35598000Y-34961000D02*
X34060000Y-34961000D01*
X31980000Y-34481000D02*
X30144000Y-34481000D01*
X35736000Y-34761000D02*
X34060000Y-34761000D01*
X31980000Y-35201000D02*
X30640000Y-35201000D01*
X34529000Y-35881000D02*
X31511000Y-35881000D01*
X31980000Y-35241000D02*
X30677000Y-35241000D01*
X31980000Y-34361000D02*
X30086000Y-34361000D01*
X31980000Y-35161000D02*
X30604000Y-35161000D01*
X36161000Y-33761000D02*
X34060000Y-33761000D01*
X36215000Y-33480000D02*
X34060000Y-33480000D01*
X36094000Y-34001000D02*
X34060000Y-34001000D01*
X31980000Y-34161000D02*
X30002000Y-34161000D01*
X31980000Y-34761000D02*
X30304000Y-34761000D01*
X35786000Y-34681000D02*
X34060000Y-34681000D01*
X31980000Y-34521000D02*
X30164000Y-34521000D01*
X34185000Y-36041000D02*
X31855000Y-36041000D01*
X34079000Y-36081000D02*
X31961000Y-36081000D01*
X35972000Y-34321000D02*
X34060000Y-34321000D01*
X34601000Y-35841000D02*
X31439000Y-35841000D01*
X35202000Y-35401000D02*
X30838000Y-35401000D01*
X31980000Y-34961000D02*
X30442000Y-34961000D01*
X35244000Y-35361000D02*
X30796000Y-35361000D01*
X36238000Y-33280000D02*
X34060000Y-33280000D01*
X35363000Y-35241000D02*
X34060000Y-35241000D01*
X34282000Y-36001000D02*
X31758000Y-36001000D01*
X33653000Y-36201000D02*
X32387000Y-36201000D01*
X36130000Y-33881000D02*
X34060000Y-33881000D01*
X31980000Y-33480000D02*
X29825000Y-33480000D01*
X35936000Y-34401000D02*
X34060000Y-34401000D01*
X36081000Y-34041000D02*
X34060000Y-34041000D01*
X31980000Y-33841000D02*
X29899000Y-33841000D01*
X36231000Y-33360000D02*
X34060000Y-33360000D01*
X36187000Y-33640000D02*
X34060000Y-33640000D01*
X31980000Y-34241000D02*
X30034000Y-34241000D01*
X35285000Y-35321000D02*
X30755000Y-35321000D01*
X36141000Y-33841000D02*
X34060000Y-33841000D01*
X34452000Y-35921000D02*
X31588000Y-35921000D01*
X36067000Y-34081000D02*
X34060000Y-34081000D01*
X35854000Y-34561000D02*
X34060000Y-34561000D01*
X35876000Y-34521000D02*
X34060000Y-34521000D01*
X33960000Y-36121000D02*
X32080000Y-36121000D01*
X34854000Y-35681000D02*
X31186000Y-35681000D01*
X36235000Y-33320000D02*
X34060000Y-33320000D01*
X35710000Y-34801000D02*
X34060000Y-34801000D01*
X36022000Y-34201000D02*
X34060000Y-34201000D01*
X34859000Y-29499759D02*
X34859000Y-30129759D01*
X34734000Y-35761000D02*
X31306000Y-35761000D01*
X36179000Y-33680000D02*
X34060000Y-33680000D01*
X36290000Y-33000000D02*
G75*
G03*
X36290000Y-33000000I-3270000J0D01*
G01*
%TD*%
M02*
